G04 #@! TF.GenerationSoftware,KiCad,Pcbnew,(5.1.2)-1*
G04 #@! TF.CreationDate,2024-07-07T09:58:16+09:00*
G04 #@! TF.ProjectId,slg,736c672e-6b69-4636-9164-5f7063625858,v1.0*
G04 #@! TF.SameCoordinates,Original*
G04 #@! TF.FileFunction,Soldermask,Top*
G04 #@! TF.FilePolarity,Negative*
%FSLAX46Y46*%
G04 Gerber Fmt 4.6, Leading zero omitted, Abs format (unit mm)*
G04 Created by KiCad (PCBNEW (5.1.2)-1) date 2024-07-07 09:58:16*
%MOMM*%
%LPD*%
G04 APERTURE LIST*
%ADD10C,0.100000*%
G04 APERTURE END LIST*
D10*
G36*
X153301000Y-103771000D02*
G01*
X151499000Y-103771000D01*
X151499000Y-101969000D01*
X153301000Y-101969000D01*
X153301000Y-103771000D01*
X153301000Y-103771000D01*
G37*
G36*
X142350442Y-101855518D02*
G01*
X142416627Y-101862037D01*
X142586466Y-101913557D01*
X142742991Y-101997222D01*
X142778729Y-102026552D01*
X142880186Y-102109814D01*
X142963448Y-102211271D01*
X142992778Y-102247009D01*
X143076443Y-102403534D01*
X143127963Y-102573373D01*
X143145359Y-102750000D01*
X143127963Y-102926627D01*
X143076443Y-103096466D01*
X142992778Y-103252991D01*
X142963448Y-103288729D01*
X142880186Y-103390186D01*
X142778729Y-103473448D01*
X142742991Y-103502778D01*
X142586466Y-103586443D01*
X142416627Y-103637963D01*
X142350443Y-103644481D01*
X142284260Y-103651000D01*
X142195740Y-103651000D01*
X142129557Y-103644481D01*
X142063373Y-103637963D01*
X141893534Y-103586443D01*
X141737009Y-103502778D01*
X141701271Y-103473448D01*
X141599814Y-103390186D01*
X141516552Y-103288729D01*
X141487222Y-103252991D01*
X141403557Y-103096466D01*
X141352037Y-102926627D01*
X141334641Y-102750000D01*
X141352037Y-102573373D01*
X141403557Y-102403534D01*
X141487222Y-102247009D01*
X141516552Y-102211271D01*
X141599814Y-102109814D01*
X141701271Y-102026552D01*
X141737009Y-101997222D01*
X141893534Y-101913557D01*
X142063373Y-101862037D01*
X142129558Y-101855518D01*
X142195740Y-101849000D01*
X142284260Y-101849000D01*
X142350442Y-101855518D01*
X142350442Y-101855518D01*
G37*
G36*
X152510443Y-99435519D02*
G01*
X152576627Y-99442037D01*
X152746466Y-99493557D01*
X152902991Y-99577222D01*
X152938729Y-99606552D01*
X153040186Y-99689814D01*
X153123448Y-99791271D01*
X153152778Y-99827009D01*
X153236443Y-99983534D01*
X153287963Y-100153373D01*
X153305359Y-100330000D01*
X153287963Y-100506627D01*
X153236443Y-100676466D01*
X153152778Y-100832991D01*
X153138667Y-100850185D01*
X153040186Y-100970186D01*
X152947266Y-101046442D01*
X152902991Y-101082778D01*
X152746466Y-101166443D01*
X152576627Y-101217963D01*
X152510443Y-101224481D01*
X152444260Y-101231000D01*
X152355740Y-101231000D01*
X152289558Y-101224482D01*
X152223373Y-101217963D01*
X152053534Y-101166443D01*
X151897009Y-101082778D01*
X151852734Y-101046442D01*
X151759814Y-100970186D01*
X151661333Y-100850185D01*
X151647222Y-100832991D01*
X151563557Y-100676466D01*
X151512037Y-100506627D01*
X151494641Y-100330000D01*
X151512037Y-100153373D01*
X151563557Y-99983534D01*
X151647222Y-99827009D01*
X151676552Y-99791271D01*
X151759814Y-99689814D01*
X151861271Y-99606552D01*
X151897009Y-99577222D01*
X152053534Y-99493557D01*
X152223373Y-99442037D01*
X152289558Y-99435518D01*
X152355740Y-99429000D01*
X152444260Y-99429000D01*
X152510443Y-99435519D01*
X152510443Y-99435519D01*
G37*
G36*
X142350443Y-99315519D02*
G01*
X142416627Y-99322037D01*
X142586466Y-99373557D01*
X142586468Y-99373558D01*
X142664728Y-99415389D01*
X142742991Y-99457222D01*
X142778729Y-99486552D01*
X142880186Y-99569814D01*
X142963448Y-99671271D01*
X142992778Y-99707009D01*
X143076443Y-99863534D01*
X143127963Y-100033373D01*
X143145359Y-100210000D01*
X143127963Y-100386627D01*
X143076443Y-100556466D01*
X142992778Y-100712991D01*
X142963448Y-100748729D01*
X142880186Y-100850186D01*
X142778729Y-100933448D01*
X142742991Y-100962778D01*
X142586466Y-101046443D01*
X142416627Y-101097963D01*
X142350442Y-101104482D01*
X142284260Y-101111000D01*
X142195740Y-101111000D01*
X142129558Y-101104482D01*
X142063373Y-101097963D01*
X141893534Y-101046443D01*
X141737009Y-100962778D01*
X141701271Y-100933448D01*
X141599814Y-100850186D01*
X141516552Y-100748729D01*
X141487222Y-100712991D01*
X141403557Y-100556466D01*
X141352037Y-100386627D01*
X141334641Y-100210000D01*
X141352037Y-100033373D01*
X141403557Y-99863534D01*
X141487222Y-99707009D01*
X141516552Y-99671271D01*
X141599814Y-99569814D01*
X141701271Y-99486552D01*
X141737009Y-99457222D01*
X141815271Y-99415390D01*
X141893532Y-99373558D01*
X141893534Y-99373557D01*
X142063373Y-99322037D01*
X142129557Y-99315519D01*
X142195740Y-99309000D01*
X142284260Y-99309000D01*
X142350443Y-99315519D01*
X142350443Y-99315519D01*
G37*
G36*
X148979591Y-98403085D02*
G01*
X149013569Y-98413393D01*
X149044890Y-98430134D01*
X149072339Y-98452661D01*
X149094866Y-98480110D01*
X149111607Y-98511431D01*
X149121915Y-98545409D01*
X149126000Y-98586890D01*
X149126000Y-99188110D01*
X149121915Y-99229591D01*
X149111607Y-99263569D01*
X149094866Y-99294890D01*
X149072339Y-99322339D01*
X149044890Y-99344866D01*
X149013569Y-99361607D01*
X148979591Y-99371915D01*
X148938110Y-99376000D01*
X148261890Y-99376000D01*
X148220409Y-99371915D01*
X148186431Y-99361607D01*
X148155110Y-99344866D01*
X148127661Y-99322339D01*
X148105134Y-99294890D01*
X148088393Y-99263569D01*
X148078085Y-99229591D01*
X148074000Y-99188110D01*
X148074000Y-98586890D01*
X148078085Y-98545409D01*
X148088393Y-98511431D01*
X148105134Y-98480110D01*
X148127661Y-98452661D01*
X148155110Y-98430134D01*
X148186431Y-98413393D01*
X148220409Y-98403085D01*
X148261890Y-98399000D01*
X148938110Y-98399000D01*
X148979591Y-98403085D01*
X148979591Y-98403085D01*
G37*
G36*
X147379591Y-98403085D02*
G01*
X147413569Y-98413393D01*
X147444890Y-98430134D01*
X147472339Y-98452661D01*
X147494866Y-98480110D01*
X147511607Y-98511431D01*
X147521915Y-98545409D01*
X147526000Y-98586890D01*
X147526000Y-99188110D01*
X147521915Y-99229591D01*
X147511607Y-99263569D01*
X147494866Y-99294890D01*
X147472339Y-99322339D01*
X147444890Y-99344866D01*
X147413569Y-99361607D01*
X147379591Y-99371915D01*
X147338110Y-99376000D01*
X146661890Y-99376000D01*
X146620409Y-99371915D01*
X146586431Y-99361607D01*
X146555110Y-99344866D01*
X146527661Y-99322339D01*
X146505134Y-99294890D01*
X146488393Y-99263569D01*
X146478085Y-99229591D01*
X146474000Y-99188110D01*
X146474000Y-98586890D01*
X146478085Y-98545409D01*
X146488393Y-98511431D01*
X146505134Y-98480110D01*
X146527661Y-98452661D01*
X146555110Y-98430134D01*
X146586431Y-98413393D01*
X146620409Y-98403085D01*
X146661890Y-98399000D01*
X147338110Y-98399000D01*
X147379591Y-98403085D01*
X147379591Y-98403085D01*
G37*
G36*
X152510442Y-96895518D02*
G01*
X152576627Y-96902037D01*
X152746466Y-96953557D01*
X152902991Y-97037222D01*
X152938729Y-97066552D01*
X153040186Y-97149814D01*
X153123448Y-97251271D01*
X153152778Y-97287009D01*
X153236443Y-97443534D01*
X153287963Y-97613373D01*
X153305359Y-97790000D01*
X153287963Y-97966627D01*
X153236443Y-98136466D01*
X153152778Y-98292991D01*
X153138667Y-98310185D01*
X153040186Y-98430186D01*
X152947266Y-98506442D01*
X152902991Y-98542778D01*
X152746466Y-98626443D01*
X152576627Y-98677963D01*
X152510442Y-98684482D01*
X152444260Y-98691000D01*
X152355740Y-98691000D01*
X152289558Y-98684482D01*
X152223373Y-98677963D01*
X152053534Y-98626443D01*
X151897009Y-98542778D01*
X151852734Y-98506442D01*
X151759814Y-98430186D01*
X151661333Y-98310185D01*
X151647222Y-98292991D01*
X151563557Y-98136466D01*
X151512037Y-97966627D01*
X151494641Y-97790000D01*
X151512037Y-97613373D01*
X151563557Y-97443534D01*
X151647222Y-97287009D01*
X151676552Y-97251271D01*
X151759814Y-97149814D01*
X151861271Y-97066552D01*
X151897009Y-97037222D01*
X152053534Y-96953557D01*
X152223373Y-96902037D01*
X152289558Y-96895518D01*
X152355740Y-96889000D01*
X152444260Y-96889000D01*
X152510442Y-96895518D01*
X152510442Y-96895518D01*
G37*
G36*
X142350442Y-96775518D02*
G01*
X142416627Y-96782037D01*
X142586466Y-96833557D01*
X142586468Y-96833558D01*
X142603369Y-96842592D01*
X142742991Y-96917222D01*
X142766397Y-96936431D01*
X142880186Y-97029814D01*
X142963448Y-97131271D01*
X142992778Y-97167009D01*
X143076443Y-97323534D01*
X143127963Y-97493373D01*
X143145359Y-97670000D01*
X143127963Y-97846627D01*
X143076443Y-98016466D01*
X142992778Y-98172991D01*
X142963448Y-98208729D01*
X142880186Y-98310186D01*
X142778729Y-98393448D01*
X142742991Y-98422778D01*
X142586466Y-98506443D01*
X142416627Y-98557963D01*
X142350443Y-98564481D01*
X142284260Y-98571000D01*
X142195740Y-98571000D01*
X142129558Y-98564482D01*
X142063373Y-98557963D01*
X141893534Y-98506443D01*
X141737009Y-98422778D01*
X141701271Y-98393448D01*
X141599814Y-98310186D01*
X141516552Y-98208729D01*
X141487222Y-98172991D01*
X141403557Y-98016466D01*
X141352037Y-97846627D01*
X141334641Y-97670000D01*
X141352037Y-97493373D01*
X141403557Y-97323534D01*
X141487222Y-97167009D01*
X141516552Y-97131271D01*
X141599814Y-97029814D01*
X141713603Y-96936431D01*
X141737009Y-96917222D01*
X141876631Y-96842592D01*
X141893532Y-96833558D01*
X141893534Y-96833557D01*
X142063373Y-96782037D01*
X142129558Y-96775518D01*
X142195740Y-96769000D01*
X142284260Y-96769000D01*
X142350442Y-96775518D01*
X142350442Y-96775518D01*
G37*
G36*
X147379591Y-96828085D02*
G01*
X147413569Y-96838393D01*
X147444890Y-96855134D01*
X147472339Y-96877661D01*
X147494866Y-96905110D01*
X147511607Y-96936431D01*
X147521915Y-96970409D01*
X147526000Y-97011890D01*
X147526000Y-97613110D01*
X147521915Y-97654591D01*
X147511607Y-97688569D01*
X147494866Y-97719890D01*
X147472339Y-97747339D01*
X147444890Y-97769866D01*
X147413569Y-97786607D01*
X147379591Y-97796915D01*
X147338110Y-97801000D01*
X146661890Y-97801000D01*
X146620409Y-97796915D01*
X146586431Y-97786607D01*
X146555110Y-97769866D01*
X146527661Y-97747339D01*
X146505134Y-97719890D01*
X146488393Y-97688569D01*
X146478085Y-97654591D01*
X146474000Y-97613110D01*
X146474000Y-97011890D01*
X146478085Y-96970409D01*
X146488393Y-96936431D01*
X146505134Y-96905110D01*
X146527661Y-96877661D01*
X146555110Y-96855134D01*
X146586431Y-96838393D01*
X146620409Y-96828085D01*
X146661890Y-96824000D01*
X147338110Y-96824000D01*
X147379591Y-96828085D01*
X147379591Y-96828085D01*
G37*
G36*
X148979591Y-96828085D02*
G01*
X149013569Y-96838393D01*
X149044890Y-96855134D01*
X149072339Y-96877661D01*
X149094866Y-96905110D01*
X149111607Y-96936431D01*
X149121915Y-96970409D01*
X149126000Y-97011890D01*
X149126000Y-97613110D01*
X149121915Y-97654591D01*
X149111607Y-97688569D01*
X149094866Y-97719890D01*
X149072339Y-97747339D01*
X149044890Y-97769866D01*
X149013569Y-97786607D01*
X148979591Y-97796915D01*
X148938110Y-97801000D01*
X148261890Y-97801000D01*
X148220409Y-97796915D01*
X148186431Y-97786607D01*
X148155110Y-97769866D01*
X148127661Y-97747339D01*
X148105134Y-97719890D01*
X148088393Y-97688569D01*
X148078085Y-97654591D01*
X148074000Y-97613110D01*
X148074000Y-97011890D01*
X148078085Y-96970409D01*
X148088393Y-96936431D01*
X148105134Y-96905110D01*
X148127661Y-96877661D01*
X148155110Y-96855134D01*
X148186431Y-96838393D01*
X148220409Y-96828085D01*
X148261890Y-96824000D01*
X148938110Y-96824000D01*
X148979591Y-96828085D01*
X148979591Y-96828085D01*
G37*
G36*
X152510442Y-94355518D02*
G01*
X152576627Y-94362037D01*
X152746466Y-94413557D01*
X152902991Y-94497222D01*
X152938729Y-94526552D01*
X153040186Y-94609814D01*
X153123448Y-94711271D01*
X153152778Y-94747009D01*
X153236443Y-94903534D01*
X153287963Y-95073373D01*
X153305359Y-95250000D01*
X153287963Y-95426627D01*
X153236443Y-95596466D01*
X153152778Y-95752991D01*
X153138667Y-95770185D01*
X153040186Y-95890186D01*
X152947266Y-95966442D01*
X152902991Y-96002778D01*
X152746466Y-96086443D01*
X152576627Y-96137963D01*
X152510443Y-96144481D01*
X152444260Y-96151000D01*
X152355740Y-96151000D01*
X152289558Y-96144482D01*
X152223373Y-96137963D01*
X152053534Y-96086443D01*
X151897009Y-96002778D01*
X151852734Y-95966442D01*
X151759814Y-95890186D01*
X151661333Y-95770185D01*
X151647222Y-95752991D01*
X151563557Y-95596466D01*
X151512037Y-95426627D01*
X151494641Y-95250000D01*
X151512037Y-95073373D01*
X151563557Y-94903534D01*
X151647222Y-94747009D01*
X151676552Y-94711271D01*
X151759814Y-94609814D01*
X151861271Y-94526552D01*
X151897009Y-94497222D01*
X152053534Y-94413557D01*
X152223373Y-94362037D01*
X152289557Y-94355519D01*
X152355740Y-94349000D01*
X152444260Y-94349000D01*
X152510442Y-94355518D01*
X152510442Y-94355518D01*
G37*
G36*
X142350442Y-94235518D02*
G01*
X142416627Y-94242037D01*
X142586466Y-94293557D01*
X142742991Y-94377222D01*
X142778729Y-94406552D01*
X142880186Y-94489814D01*
X142963448Y-94591271D01*
X142992778Y-94627009D01*
X143076443Y-94783534D01*
X143127963Y-94953373D01*
X143145359Y-95130000D01*
X143127963Y-95306627D01*
X143076443Y-95476466D01*
X142992778Y-95632991D01*
X142963448Y-95668729D01*
X142880186Y-95770186D01*
X142778729Y-95853448D01*
X142742991Y-95882778D01*
X142586466Y-95966443D01*
X142416627Y-96017963D01*
X142350443Y-96024481D01*
X142284260Y-96031000D01*
X142195740Y-96031000D01*
X142129558Y-96024482D01*
X142063373Y-96017963D01*
X141893534Y-95966443D01*
X141737009Y-95882778D01*
X141701271Y-95853448D01*
X141599814Y-95770186D01*
X141516552Y-95668729D01*
X141487222Y-95632991D01*
X141403557Y-95476466D01*
X141352037Y-95306627D01*
X141334641Y-95130000D01*
X141352037Y-94953373D01*
X141403557Y-94783534D01*
X141487222Y-94627009D01*
X141516552Y-94591271D01*
X141599814Y-94489814D01*
X141701271Y-94406552D01*
X141737009Y-94377222D01*
X141893534Y-94293557D01*
X142063373Y-94242037D01*
X142129558Y-94235518D01*
X142195740Y-94229000D01*
X142284260Y-94229000D01*
X142350442Y-94235518D01*
X142350442Y-94235518D01*
G37*
G36*
X146387228Y-90148653D02*
G01*
X146406541Y-90152496D01*
X146423098Y-90159353D01*
X146424663Y-90160399D01*
X146446274Y-90171951D01*
X146469723Y-90179064D01*
X146494109Y-90181466D01*
X146518495Y-90179064D01*
X146541944Y-90171951D01*
X146573405Y-90153095D01*
X146575109Y-90151696D01*
X146577255Y-90150550D01*
X146579584Y-90149843D01*
X146588143Y-90149000D01*
X146851857Y-90149000D01*
X146860416Y-90149843D01*
X146864556Y-90151099D01*
X146883716Y-90159035D01*
X146907750Y-90163815D01*
X146932254Y-90163815D01*
X146956287Y-90159034D01*
X146975445Y-90151099D01*
X146979584Y-90149843D01*
X146988143Y-90149000D01*
X147251857Y-90149000D01*
X147260416Y-90149843D01*
X147264556Y-90151099D01*
X147283716Y-90159035D01*
X147307750Y-90163815D01*
X147332254Y-90163815D01*
X147356287Y-90159034D01*
X147375445Y-90151099D01*
X147379584Y-90149843D01*
X147388143Y-90149000D01*
X147651857Y-90149000D01*
X147660416Y-90149843D01*
X147664556Y-90151099D01*
X147683716Y-90159035D01*
X147707750Y-90163815D01*
X147732254Y-90163815D01*
X147756287Y-90159034D01*
X147775445Y-90151099D01*
X147779584Y-90149843D01*
X147788143Y-90149000D01*
X148051857Y-90149000D01*
X148060416Y-90149843D01*
X148062745Y-90150550D01*
X148064891Y-90151696D01*
X148066595Y-90153095D01*
X148086970Y-90166708D01*
X148109609Y-90176085D01*
X148133642Y-90180865D01*
X148158146Y-90180864D01*
X148182179Y-90176082D01*
X148215337Y-90160399D01*
X148216902Y-90159353D01*
X148233459Y-90152496D01*
X148252772Y-90148653D01*
X148263059Y-90148148D01*
X148376941Y-90148148D01*
X148387228Y-90148653D01*
X148406541Y-90152496D01*
X148423097Y-90159353D01*
X148426365Y-90161537D01*
X148426377Y-90161543D01*
X148434737Y-90167129D01*
X148434746Y-90167137D01*
X148438017Y-90169322D01*
X148450678Y-90181983D01*
X148452863Y-90185254D01*
X148452871Y-90185263D01*
X148458457Y-90193623D01*
X148458463Y-90193635D01*
X148460647Y-90196903D01*
X148467504Y-90213459D01*
X148471347Y-90232772D01*
X148471852Y-90243059D01*
X148471852Y-90798149D01*
X148474254Y-90822535D01*
X148481367Y-90845984D01*
X148492918Y-90867595D01*
X148508463Y-90886537D01*
X148527405Y-90902082D01*
X148549016Y-90913633D01*
X148572465Y-90920746D01*
X148596851Y-90923148D01*
X149151941Y-90923148D01*
X149162228Y-90923653D01*
X149181541Y-90927496D01*
X149198097Y-90934353D01*
X149201365Y-90936537D01*
X149201377Y-90936543D01*
X149209737Y-90942129D01*
X149209746Y-90942137D01*
X149213017Y-90944322D01*
X149225678Y-90956983D01*
X149227863Y-90960254D01*
X149227871Y-90960263D01*
X149233457Y-90968623D01*
X149233463Y-90968635D01*
X149235647Y-90971903D01*
X149242504Y-90988459D01*
X149246347Y-91007772D01*
X149246852Y-91018059D01*
X149246852Y-91131941D01*
X149246347Y-91142228D01*
X149242504Y-91161541D01*
X149235647Y-91178098D01*
X149234601Y-91179663D01*
X149223049Y-91201274D01*
X149215936Y-91224723D01*
X149213534Y-91249109D01*
X149215936Y-91273495D01*
X149223049Y-91296944D01*
X149241905Y-91328405D01*
X149243304Y-91330109D01*
X149244450Y-91332255D01*
X149245157Y-91334584D01*
X149246000Y-91343143D01*
X149246000Y-91606857D01*
X149245157Y-91615416D01*
X149243901Y-91619556D01*
X149235965Y-91638716D01*
X149231185Y-91662750D01*
X149231185Y-91687254D01*
X149235966Y-91711287D01*
X149243901Y-91730445D01*
X149245157Y-91734584D01*
X149246000Y-91743143D01*
X149246000Y-92006857D01*
X149245157Y-92015416D01*
X149243901Y-92019556D01*
X149235965Y-92038716D01*
X149231185Y-92062750D01*
X149231185Y-92087254D01*
X149235966Y-92111287D01*
X149243901Y-92130445D01*
X149245157Y-92134584D01*
X149246000Y-92143143D01*
X149246000Y-92406857D01*
X149245157Y-92415416D01*
X149243901Y-92419556D01*
X149235965Y-92438716D01*
X149231185Y-92462750D01*
X149231185Y-92487254D01*
X149235966Y-92511287D01*
X149243901Y-92530445D01*
X149245157Y-92534584D01*
X149246000Y-92543143D01*
X149246000Y-92806857D01*
X149245157Y-92815416D01*
X149244450Y-92817745D01*
X149243304Y-92819891D01*
X149241905Y-92821595D01*
X149228292Y-92841970D01*
X149218915Y-92864609D01*
X149214135Y-92888642D01*
X149214136Y-92913146D01*
X149218918Y-92937179D01*
X149234601Y-92970337D01*
X149235647Y-92971902D01*
X149242504Y-92988459D01*
X149246347Y-93007772D01*
X149246852Y-93018059D01*
X149246852Y-93131941D01*
X149246347Y-93142228D01*
X149242504Y-93161541D01*
X149235647Y-93178097D01*
X149233463Y-93181365D01*
X149233457Y-93181377D01*
X149227871Y-93189737D01*
X149227863Y-93189746D01*
X149225678Y-93193017D01*
X149213017Y-93205678D01*
X149209746Y-93207863D01*
X149209737Y-93207871D01*
X149201377Y-93213457D01*
X149201365Y-93213463D01*
X149198097Y-93215647D01*
X149181541Y-93222504D01*
X149162228Y-93226347D01*
X149151941Y-93226852D01*
X148596851Y-93226852D01*
X148572465Y-93229254D01*
X148549016Y-93236367D01*
X148527405Y-93247918D01*
X148508463Y-93263463D01*
X148492918Y-93282405D01*
X148481367Y-93304016D01*
X148474254Y-93327465D01*
X148471852Y-93351851D01*
X148471852Y-93906941D01*
X148471347Y-93917228D01*
X148467504Y-93936541D01*
X148460647Y-93953097D01*
X148458463Y-93956365D01*
X148458457Y-93956377D01*
X148452871Y-93964737D01*
X148452863Y-93964746D01*
X148450678Y-93968017D01*
X148438017Y-93980678D01*
X148434746Y-93982863D01*
X148434737Y-93982871D01*
X148426377Y-93988457D01*
X148426365Y-93988463D01*
X148423097Y-93990647D01*
X148406541Y-93997504D01*
X148387228Y-94001347D01*
X148376941Y-94001852D01*
X148263059Y-94001852D01*
X148252772Y-94001347D01*
X148233459Y-93997504D01*
X148216902Y-93990647D01*
X148215337Y-93989601D01*
X148193726Y-93978049D01*
X148170277Y-93970936D01*
X148145891Y-93968534D01*
X148121505Y-93970936D01*
X148098056Y-93978049D01*
X148066595Y-93996905D01*
X148064891Y-93998304D01*
X148062745Y-93999450D01*
X148060416Y-94000157D01*
X148051857Y-94001000D01*
X147788143Y-94001000D01*
X147779584Y-94000157D01*
X147775444Y-93998901D01*
X147756284Y-93990965D01*
X147732250Y-93986185D01*
X147707746Y-93986185D01*
X147683713Y-93990966D01*
X147664555Y-93998901D01*
X147660416Y-94000157D01*
X147651857Y-94001000D01*
X147388143Y-94001000D01*
X147379584Y-94000157D01*
X147375444Y-93998901D01*
X147356284Y-93990965D01*
X147332250Y-93986185D01*
X147307746Y-93986185D01*
X147283713Y-93990966D01*
X147264555Y-93998901D01*
X147260416Y-94000157D01*
X147251857Y-94001000D01*
X146988143Y-94001000D01*
X146979584Y-94000157D01*
X146975444Y-93998901D01*
X146956284Y-93990965D01*
X146932250Y-93986185D01*
X146907746Y-93986185D01*
X146883713Y-93990966D01*
X146864555Y-93998901D01*
X146860416Y-94000157D01*
X146851857Y-94001000D01*
X146588143Y-94001000D01*
X146579584Y-94000157D01*
X146577255Y-93999450D01*
X146575109Y-93998304D01*
X146573405Y-93996905D01*
X146553030Y-93983292D01*
X146530391Y-93973915D01*
X146506358Y-93969135D01*
X146481854Y-93969136D01*
X146457821Y-93973918D01*
X146424663Y-93989601D01*
X146423098Y-93990647D01*
X146406541Y-93997504D01*
X146387228Y-94001347D01*
X146376941Y-94001852D01*
X146263059Y-94001852D01*
X146252772Y-94001347D01*
X146233459Y-93997504D01*
X146216903Y-93990647D01*
X146213635Y-93988463D01*
X146213623Y-93988457D01*
X146205263Y-93982871D01*
X146205254Y-93982863D01*
X146201983Y-93980678D01*
X146189322Y-93968017D01*
X146187137Y-93964746D01*
X146187129Y-93964737D01*
X146181543Y-93956377D01*
X146181537Y-93956365D01*
X146179353Y-93953097D01*
X146172496Y-93936541D01*
X146168653Y-93917228D01*
X146168148Y-93906941D01*
X146168148Y-93351851D01*
X146165746Y-93327465D01*
X146158633Y-93304016D01*
X146147082Y-93282405D01*
X146131537Y-93263463D01*
X146112595Y-93247918D01*
X146090984Y-93236367D01*
X146067535Y-93229254D01*
X146043149Y-93226852D01*
X145488059Y-93226852D01*
X145477772Y-93226347D01*
X145458459Y-93222504D01*
X145441903Y-93215647D01*
X145438635Y-93213463D01*
X145438623Y-93213457D01*
X145430263Y-93207871D01*
X145430254Y-93207863D01*
X145426983Y-93205678D01*
X145414322Y-93193017D01*
X145412137Y-93189746D01*
X145412129Y-93189737D01*
X145406543Y-93181377D01*
X145406537Y-93181365D01*
X145404353Y-93178097D01*
X145397496Y-93161541D01*
X145393653Y-93142228D01*
X145393148Y-93131941D01*
X145393148Y-93050999D01*
X146360928Y-93050999D01*
X146363330Y-93075385D01*
X146370443Y-93098834D01*
X146381994Y-93120445D01*
X146397539Y-93139387D01*
X146416479Y-93154930D01*
X146424662Y-93160398D01*
X146446272Y-93171950D01*
X146469721Y-93179064D01*
X146494107Y-93181466D01*
X146518493Y-93179065D01*
X146541942Y-93171952D01*
X146573400Y-93153100D01*
X146580064Y-93147632D01*
X146597392Y-93130306D01*
X146611008Y-93109933D01*
X146620387Y-93087295D01*
X146625170Y-93063262D01*
X146625171Y-93050999D01*
X148014227Y-93050999D01*
X148016629Y-93075385D01*
X148023742Y-93098834D01*
X148035293Y-93120445D01*
X148050838Y-93139387D01*
X148059936Y-93147632D01*
X148066600Y-93153100D01*
X148086976Y-93166712D01*
X148109615Y-93176087D01*
X148133649Y-93180865D01*
X148158153Y-93180863D01*
X148182186Y-93176080D01*
X148215338Y-93160398D01*
X148223521Y-93154930D01*
X148242463Y-93139384D01*
X148258008Y-93120442D01*
X148269558Y-93098831D01*
X148276671Y-93075382D01*
X148279072Y-93050996D01*
X148276670Y-93026610D01*
X148269556Y-93003161D01*
X148258004Y-92981551D01*
X148242458Y-92962609D01*
X148223516Y-92947064D01*
X148201905Y-92935514D01*
X148178456Y-92928401D01*
X148154073Y-92926000D01*
X148139226Y-92926000D01*
X148114840Y-92928402D01*
X148091391Y-92935515D01*
X148069780Y-92947066D01*
X148050838Y-92962611D01*
X148035293Y-92981553D01*
X148023742Y-93003164D01*
X148016629Y-93026613D01*
X148014227Y-93050999D01*
X146625171Y-93050999D01*
X146625172Y-93038758D01*
X146620394Y-93014724D01*
X146611019Y-92992085D01*
X146597407Y-92971709D01*
X146580081Y-92954381D01*
X146559708Y-92940765D01*
X146537070Y-92931386D01*
X146513037Y-92926603D01*
X146500774Y-92926000D01*
X146485927Y-92926000D01*
X146461541Y-92928402D01*
X146438092Y-92935515D01*
X146416481Y-92947066D01*
X146397539Y-92962611D01*
X146381994Y-92981553D01*
X146370443Y-93003164D01*
X146363330Y-93026613D01*
X146360928Y-93050999D01*
X145393148Y-93050999D01*
X145393148Y-93018059D01*
X145393653Y-93007772D01*
X145397496Y-92988459D01*
X145404353Y-92971902D01*
X145405399Y-92970337D01*
X145416951Y-92948726D01*
X145424064Y-92925277D01*
X145426466Y-92900891D01*
X145424064Y-92876505D01*
X145416951Y-92853056D01*
X145398095Y-92821595D01*
X145396696Y-92819891D01*
X145395550Y-92817745D01*
X145394843Y-92815416D01*
X145394000Y-92806857D01*
X145394000Y-92543143D01*
X145394843Y-92534584D01*
X145396099Y-92530444D01*
X145404035Y-92511284D01*
X145408815Y-92487250D01*
X145408815Y-92462746D01*
X145404034Y-92438713D01*
X145396099Y-92419555D01*
X145394843Y-92415416D01*
X145394000Y-92406857D01*
X145394000Y-92143143D01*
X145394843Y-92134584D01*
X145396099Y-92130444D01*
X145404035Y-92111284D01*
X145408815Y-92087250D01*
X145408815Y-92062746D01*
X145404034Y-92038713D01*
X145396099Y-92019555D01*
X145394843Y-92015416D01*
X145394000Y-92006857D01*
X145394000Y-91743143D01*
X145394843Y-91734584D01*
X145396099Y-91730444D01*
X145404035Y-91711284D01*
X145408815Y-91687250D01*
X145408815Y-91662746D01*
X145404034Y-91638713D01*
X145396099Y-91619555D01*
X145394843Y-91615416D01*
X145394000Y-91606857D01*
X145394000Y-91343143D01*
X145394843Y-91334584D01*
X145395550Y-91332255D01*
X145396696Y-91330109D01*
X145398095Y-91328405D01*
X145411708Y-91308030D01*
X145421085Y-91285391D01*
X145425865Y-91261358D01*
X145425864Y-91236854D01*
X145421082Y-91212821D01*
X145405399Y-91179663D01*
X145404353Y-91178098D01*
X145397496Y-91161541D01*
X145393653Y-91142228D01*
X145393148Y-91131941D01*
X145393148Y-91099004D01*
X146360928Y-91099004D01*
X146363330Y-91123390D01*
X146370444Y-91146839D01*
X146381996Y-91168449D01*
X146397542Y-91187391D01*
X146416484Y-91202936D01*
X146438095Y-91214486D01*
X146461544Y-91221599D01*
X146485927Y-91224000D01*
X146500774Y-91224000D01*
X146525160Y-91221598D01*
X146548609Y-91214485D01*
X146570220Y-91202934D01*
X146589162Y-91187389D01*
X146604707Y-91168447D01*
X146616258Y-91146836D01*
X146623371Y-91123387D01*
X146624567Y-91111242D01*
X148014828Y-91111242D01*
X148019606Y-91135276D01*
X148028981Y-91157915D01*
X148042593Y-91178291D01*
X148059919Y-91195619D01*
X148080292Y-91209235D01*
X148102930Y-91218614D01*
X148126963Y-91223397D01*
X148139226Y-91224000D01*
X148154073Y-91224000D01*
X148178459Y-91221598D01*
X148201908Y-91214485D01*
X148223519Y-91202934D01*
X148242461Y-91187389D01*
X148258006Y-91168447D01*
X148269557Y-91146836D01*
X148276670Y-91123387D01*
X148279072Y-91099001D01*
X148276670Y-91074615D01*
X148269557Y-91051166D01*
X148258006Y-91029555D01*
X148242461Y-91010613D01*
X148223521Y-90995070D01*
X148215338Y-90989602D01*
X148193728Y-90978050D01*
X148170279Y-90970936D01*
X148145893Y-90968534D01*
X148121507Y-90970935D01*
X148098058Y-90978048D01*
X148066600Y-90996900D01*
X148059936Y-91002368D01*
X148042608Y-91019694D01*
X148028992Y-91040067D01*
X148019613Y-91062705D01*
X148014830Y-91086738D01*
X148014828Y-91111242D01*
X146624567Y-91111242D01*
X146625773Y-91099001D01*
X146623371Y-91074615D01*
X146616258Y-91051166D01*
X146604707Y-91029555D01*
X146589162Y-91010613D01*
X146580064Y-91002368D01*
X146573400Y-90996900D01*
X146553024Y-90983288D01*
X146530385Y-90973913D01*
X146506351Y-90969135D01*
X146481847Y-90969137D01*
X146457814Y-90973920D01*
X146424662Y-90989602D01*
X146416479Y-90995070D01*
X146397537Y-91010616D01*
X146381992Y-91029558D01*
X146370442Y-91051169D01*
X146363329Y-91074618D01*
X146360928Y-91099004D01*
X145393148Y-91099004D01*
X145393148Y-91018059D01*
X145393653Y-91007772D01*
X145397496Y-90988459D01*
X145404353Y-90971903D01*
X145406537Y-90968635D01*
X145406543Y-90968623D01*
X145412129Y-90960263D01*
X145412137Y-90960254D01*
X145414322Y-90956983D01*
X145426983Y-90944322D01*
X145430254Y-90942137D01*
X145430263Y-90942129D01*
X145438623Y-90936543D01*
X145438635Y-90936537D01*
X145441903Y-90934353D01*
X145458459Y-90927496D01*
X145477772Y-90923653D01*
X145488059Y-90923148D01*
X146043149Y-90923148D01*
X146067535Y-90920746D01*
X146090984Y-90913633D01*
X146112595Y-90902082D01*
X146131537Y-90886537D01*
X146147082Y-90867595D01*
X146158633Y-90845984D01*
X146165746Y-90822535D01*
X146168148Y-90798149D01*
X146168148Y-90243059D01*
X146168653Y-90232772D01*
X146172496Y-90213459D01*
X146179353Y-90196903D01*
X146181537Y-90193635D01*
X146181543Y-90193623D01*
X146187129Y-90185263D01*
X146187137Y-90185254D01*
X146189322Y-90181983D01*
X146201983Y-90169322D01*
X146205254Y-90167137D01*
X146205263Y-90167129D01*
X146213623Y-90161543D01*
X146213635Y-90161537D01*
X146216903Y-90159353D01*
X146233459Y-90152496D01*
X146252772Y-90148653D01*
X146263059Y-90148148D01*
X146376941Y-90148148D01*
X146387228Y-90148653D01*
X146387228Y-90148653D01*
G37*
G36*
X152510442Y-91815518D02*
G01*
X152576627Y-91822037D01*
X152746466Y-91873557D01*
X152902991Y-91957222D01*
X152912747Y-91965229D01*
X153040186Y-92069814D01*
X153102802Y-92146113D01*
X153152778Y-92207009D01*
X153236443Y-92363534D01*
X153287963Y-92533373D01*
X153305359Y-92710000D01*
X153287963Y-92886627D01*
X153238102Y-93050996D01*
X153236442Y-93056468D01*
X153221294Y-93084808D01*
X153152778Y-93212991D01*
X153130612Y-93240000D01*
X153040186Y-93350186D01*
X152947266Y-93426442D01*
X152902991Y-93462778D01*
X152746466Y-93546443D01*
X152576627Y-93597963D01*
X152510442Y-93604482D01*
X152444260Y-93611000D01*
X152355740Y-93611000D01*
X152289557Y-93604481D01*
X152223373Y-93597963D01*
X152053534Y-93546443D01*
X151897009Y-93462778D01*
X151852734Y-93426442D01*
X151759814Y-93350186D01*
X151669388Y-93240000D01*
X151647222Y-93212991D01*
X151578706Y-93084808D01*
X151563558Y-93056468D01*
X151561898Y-93050996D01*
X151512037Y-92886627D01*
X151494641Y-92710000D01*
X151512037Y-92533373D01*
X151563557Y-92363534D01*
X151647222Y-92207009D01*
X151697198Y-92146113D01*
X151759814Y-92069814D01*
X151887253Y-91965229D01*
X151897009Y-91957222D01*
X152053534Y-91873557D01*
X152223373Y-91822037D01*
X152289558Y-91815518D01*
X152355740Y-91809000D01*
X152444260Y-91809000D01*
X152510442Y-91815518D01*
X152510442Y-91815518D01*
G37*
G36*
X142350442Y-91695518D02*
G01*
X142416627Y-91702037D01*
X142586466Y-91753557D01*
X142742991Y-91837222D01*
X142778729Y-91866552D01*
X142880186Y-91949814D01*
X142942709Y-92026000D01*
X142992778Y-92087009D01*
X143076443Y-92243534D01*
X143127963Y-92413373D01*
X143145359Y-92590000D01*
X143127963Y-92766627D01*
X143076443Y-92936466D01*
X142992778Y-93092991D01*
X142984603Y-93102952D01*
X142880186Y-93230186D01*
X142778729Y-93313448D01*
X142742991Y-93342778D01*
X142586466Y-93426443D01*
X142416627Y-93477963D01*
X142350443Y-93484481D01*
X142284260Y-93491000D01*
X142195740Y-93491000D01*
X142129557Y-93484481D01*
X142063373Y-93477963D01*
X141893534Y-93426443D01*
X141737009Y-93342778D01*
X141701271Y-93313448D01*
X141599814Y-93230186D01*
X141495397Y-93102952D01*
X141487222Y-93092991D01*
X141403557Y-92936466D01*
X141352037Y-92766627D01*
X141334641Y-92590000D01*
X141352037Y-92413373D01*
X141403557Y-92243534D01*
X141487222Y-92087009D01*
X141537291Y-92026000D01*
X141599814Y-91949814D01*
X141701271Y-91866552D01*
X141737009Y-91837222D01*
X141893534Y-91753557D01*
X142063373Y-91702037D01*
X142129558Y-91695518D01*
X142195740Y-91689000D01*
X142284260Y-91689000D01*
X142350442Y-91695518D01*
X142350442Y-91695518D01*
G37*
G36*
X152510443Y-89275519D02*
G01*
X152576627Y-89282037D01*
X152746466Y-89333557D01*
X152902991Y-89417222D01*
X152938729Y-89446552D01*
X153040186Y-89529814D01*
X153123448Y-89631271D01*
X153152778Y-89667009D01*
X153236443Y-89823534D01*
X153287963Y-89993373D01*
X153305359Y-90170000D01*
X153287963Y-90346627D01*
X153236443Y-90516466D01*
X153152778Y-90672991D01*
X153138667Y-90690185D01*
X153040186Y-90810186D01*
X152938729Y-90893448D01*
X152902991Y-90922778D01*
X152895599Y-90926729D01*
X152780112Y-90988459D01*
X152746466Y-91006443D01*
X152576627Y-91057963D01*
X152510442Y-91064482D01*
X152444260Y-91071000D01*
X152355740Y-91071000D01*
X152289558Y-91064482D01*
X152223373Y-91057963D01*
X152053534Y-91006443D01*
X152019889Y-90988459D01*
X151904401Y-90926729D01*
X151897009Y-90922778D01*
X151861271Y-90893448D01*
X151759814Y-90810186D01*
X151661333Y-90690185D01*
X151647222Y-90672991D01*
X151563557Y-90516466D01*
X151512037Y-90346627D01*
X151494641Y-90170000D01*
X151512037Y-89993373D01*
X151563557Y-89823534D01*
X151647222Y-89667009D01*
X151676552Y-89631271D01*
X151759814Y-89529814D01*
X151861271Y-89446552D01*
X151897009Y-89417222D01*
X152053534Y-89333557D01*
X152223373Y-89282037D01*
X152289557Y-89275519D01*
X152355740Y-89269000D01*
X152444260Y-89269000D01*
X152510443Y-89275519D01*
X152510443Y-89275519D01*
G37*
G36*
X142350443Y-89155519D02*
G01*
X142416627Y-89162037D01*
X142586466Y-89213557D01*
X142742991Y-89297222D01*
X142778729Y-89326552D01*
X142880186Y-89409814D01*
X142963448Y-89511271D01*
X142992778Y-89547009D01*
X143076443Y-89703534D01*
X143127963Y-89873373D01*
X143145359Y-90050000D01*
X143127963Y-90226627D01*
X143076443Y-90396466D01*
X142992778Y-90552991D01*
X142963448Y-90588729D01*
X142880186Y-90690186D01*
X142778729Y-90773448D01*
X142742991Y-90802778D01*
X142699060Y-90826260D01*
X142602352Y-90877952D01*
X142586466Y-90886443D01*
X142416627Y-90937963D01*
X142352062Y-90944322D01*
X142284260Y-90951000D01*
X142195740Y-90951000D01*
X142127938Y-90944322D01*
X142063373Y-90937963D01*
X141893534Y-90886443D01*
X141877649Y-90877952D01*
X141780940Y-90826260D01*
X141737009Y-90802778D01*
X141701271Y-90773448D01*
X141599814Y-90690186D01*
X141516552Y-90588729D01*
X141487222Y-90552991D01*
X141403557Y-90396466D01*
X141352037Y-90226627D01*
X141334641Y-90050000D01*
X141352037Y-89873373D01*
X141403557Y-89703534D01*
X141487222Y-89547009D01*
X141516552Y-89511271D01*
X141599814Y-89409814D01*
X141701271Y-89326552D01*
X141737009Y-89297222D01*
X141893534Y-89213557D01*
X142063373Y-89162037D01*
X142129557Y-89155519D01*
X142195740Y-89149000D01*
X142284260Y-89149000D01*
X142350443Y-89155519D01*
X142350443Y-89155519D01*
G37*
G36*
X152510442Y-86735518D02*
G01*
X152576627Y-86742037D01*
X152746466Y-86793557D01*
X152902991Y-86877222D01*
X152938729Y-86906552D01*
X153040186Y-86989814D01*
X153115635Y-87081750D01*
X153152778Y-87127009D01*
X153236443Y-87283534D01*
X153287963Y-87453373D01*
X153305359Y-87630000D01*
X153287963Y-87806627D01*
X153236443Y-87976466D01*
X153152778Y-88132991D01*
X153138667Y-88150185D01*
X153040186Y-88270186D01*
X152947266Y-88346442D01*
X152902991Y-88382778D01*
X152746466Y-88466443D01*
X152576627Y-88517963D01*
X152510442Y-88524482D01*
X152444260Y-88531000D01*
X152355740Y-88531000D01*
X152289558Y-88524482D01*
X152223373Y-88517963D01*
X152053534Y-88466443D01*
X151897009Y-88382778D01*
X151852734Y-88346442D01*
X151759814Y-88270186D01*
X151661333Y-88150185D01*
X151647222Y-88132991D01*
X151563557Y-87976466D01*
X151512037Y-87806627D01*
X151494641Y-87630000D01*
X151512037Y-87453373D01*
X151563557Y-87283534D01*
X151647222Y-87127009D01*
X151684365Y-87081750D01*
X151759814Y-86989814D01*
X151861271Y-86906552D01*
X151897009Y-86877222D01*
X152053534Y-86793557D01*
X152223373Y-86742037D01*
X152289558Y-86735518D01*
X152355740Y-86729000D01*
X152444260Y-86729000D01*
X152510442Y-86735518D01*
X152510442Y-86735518D01*
G37*
G36*
X142350443Y-86615519D02*
G01*
X142416627Y-86622037D01*
X142586466Y-86673557D01*
X142742991Y-86757222D01*
X142778729Y-86786552D01*
X142880186Y-86869814D01*
X142963448Y-86971271D01*
X142992778Y-87007009D01*
X142992779Y-87007011D01*
X143062854Y-87138110D01*
X143076443Y-87163534D01*
X143127963Y-87333373D01*
X143145359Y-87510000D01*
X143127963Y-87686627D01*
X143076443Y-87856466D01*
X142992778Y-88012991D01*
X142963448Y-88048729D01*
X142880186Y-88150186D01*
X142778729Y-88233448D01*
X142742991Y-88262778D01*
X142586466Y-88346443D01*
X142416627Y-88397963D01*
X142350443Y-88404481D01*
X142284260Y-88411000D01*
X142195740Y-88411000D01*
X142129557Y-88404481D01*
X142063373Y-88397963D01*
X141893534Y-88346443D01*
X141737009Y-88262778D01*
X141701271Y-88233448D01*
X141599814Y-88150186D01*
X141516552Y-88048729D01*
X141487222Y-88012991D01*
X141403557Y-87856466D01*
X141352037Y-87686627D01*
X141334641Y-87510000D01*
X141352037Y-87333373D01*
X141403557Y-87163534D01*
X141417147Y-87138110D01*
X141487221Y-87007011D01*
X141487222Y-87007009D01*
X141516552Y-86971271D01*
X141599814Y-86869814D01*
X141701271Y-86786552D01*
X141737009Y-86757222D01*
X141893534Y-86673557D01*
X142063373Y-86622037D01*
X142129557Y-86615519D01*
X142195740Y-86609000D01*
X142284260Y-86609000D01*
X142350443Y-86615519D01*
X142350443Y-86615519D01*
G37*
G36*
X146254591Y-86278085D02*
G01*
X146288569Y-86288393D01*
X146319890Y-86305134D01*
X146347339Y-86327661D01*
X146369866Y-86355110D01*
X146386607Y-86386431D01*
X146396915Y-86420409D01*
X146401000Y-86461890D01*
X146401000Y-87138110D01*
X146396915Y-87179591D01*
X146386607Y-87213569D01*
X146369866Y-87244890D01*
X146347339Y-87272339D01*
X146319890Y-87294866D01*
X146288569Y-87311607D01*
X146254591Y-87321915D01*
X146213110Y-87326000D01*
X145611890Y-87326000D01*
X145570409Y-87321915D01*
X145536431Y-87311607D01*
X145505110Y-87294866D01*
X145477661Y-87272339D01*
X145455134Y-87244890D01*
X145438393Y-87213569D01*
X145428085Y-87179591D01*
X145424000Y-87138110D01*
X145424000Y-86461890D01*
X145428085Y-86420409D01*
X145438393Y-86386431D01*
X145455134Y-86355110D01*
X145477661Y-86327661D01*
X145505110Y-86305134D01*
X145536431Y-86288393D01*
X145570409Y-86278085D01*
X145611890Y-86274000D01*
X146213110Y-86274000D01*
X146254591Y-86278085D01*
X146254591Y-86278085D01*
G37*
G36*
X147829591Y-86278085D02*
G01*
X147863569Y-86288393D01*
X147894890Y-86305134D01*
X147922339Y-86327661D01*
X147944866Y-86355110D01*
X147961607Y-86386431D01*
X147971915Y-86420409D01*
X147976000Y-86461890D01*
X147976000Y-87138110D01*
X147971915Y-87179591D01*
X147961607Y-87213569D01*
X147944866Y-87244890D01*
X147922339Y-87272339D01*
X147894890Y-87294866D01*
X147863569Y-87311607D01*
X147829591Y-87321915D01*
X147788110Y-87326000D01*
X147186890Y-87326000D01*
X147145409Y-87321915D01*
X147111431Y-87311607D01*
X147080110Y-87294866D01*
X147052661Y-87272339D01*
X147030134Y-87244890D01*
X147013393Y-87213569D01*
X147003085Y-87179591D01*
X146999000Y-87138110D01*
X146999000Y-86461890D01*
X147003085Y-86420409D01*
X147013393Y-86386431D01*
X147030134Y-86355110D01*
X147052661Y-86327661D01*
X147080110Y-86305134D01*
X147111431Y-86288393D01*
X147145409Y-86278085D01*
X147186890Y-86274000D01*
X147788110Y-86274000D01*
X147829591Y-86278085D01*
X147829591Y-86278085D01*
G37*
G36*
X152510442Y-84195518D02*
G01*
X152576627Y-84202037D01*
X152746466Y-84253557D01*
X152902991Y-84337222D01*
X152938729Y-84366552D01*
X153040186Y-84449814D01*
X153123448Y-84551271D01*
X153152778Y-84587009D01*
X153236443Y-84743534D01*
X153287963Y-84913373D01*
X153305359Y-85090000D01*
X153287963Y-85266627D01*
X153236443Y-85436466D01*
X153152778Y-85592991D01*
X153138667Y-85610185D01*
X153040186Y-85730186D01*
X152947266Y-85806442D01*
X152902991Y-85842778D01*
X152746466Y-85926443D01*
X152576627Y-85977963D01*
X152510442Y-85984482D01*
X152444260Y-85991000D01*
X152355740Y-85991000D01*
X152289558Y-85984482D01*
X152223373Y-85977963D01*
X152053534Y-85926443D01*
X151897009Y-85842778D01*
X151852734Y-85806442D01*
X151759814Y-85730186D01*
X151661333Y-85610185D01*
X151647222Y-85592991D01*
X151563557Y-85436466D01*
X151512037Y-85266627D01*
X151494641Y-85090000D01*
X151512037Y-84913373D01*
X151563557Y-84743534D01*
X151647222Y-84587009D01*
X151676552Y-84551271D01*
X151759814Y-84449814D01*
X151861271Y-84366552D01*
X151897009Y-84337222D01*
X152053534Y-84253557D01*
X152223373Y-84202037D01*
X152289558Y-84195518D01*
X152355740Y-84189000D01*
X152444260Y-84189000D01*
X152510442Y-84195518D01*
X152510442Y-84195518D01*
G37*
G36*
X142350442Y-84075518D02*
G01*
X142416627Y-84082037D01*
X142586466Y-84133557D01*
X142742991Y-84217222D01*
X142778729Y-84246552D01*
X142880186Y-84329814D01*
X142963448Y-84431271D01*
X142992778Y-84467009D01*
X143076443Y-84623534D01*
X143127963Y-84793373D01*
X143145359Y-84970000D01*
X143127963Y-85146627D01*
X143076443Y-85316466D01*
X142992778Y-85472991D01*
X142963448Y-85508729D01*
X142880186Y-85610186D01*
X142778729Y-85693448D01*
X142742991Y-85722778D01*
X142586466Y-85806443D01*
X142416627Y-85857963D01*
X142350442Y-85864482D01*
X142284260Y-85871000D01*
X142195740Y-85871000D01*
X142129558Y-85864482D01*
X142063373Y-85857963D01*
X141893534Y-85806443D01*
X141737009Y-85722778D01*
X141701271Y-85693448D01*
X141599814Y-85610186D01*
X141516552Y-85508729D01*
X141487222Y-85472991D01*
X141403557Y-85316466D01*
X141352037Y-85146627D01*
X141334641Y-84970000D01*
X141352037Y-84793373D01*
X141403557Y-84623534D01*
X141487222Y-84467009D01*
X141516552Y-84431271D01*
X141599814Y-84329814D01*
X141701271Y-84246552D01*
X141737009Y-84217222D01*
X141893534Y-84133557D01*
X142063373Y-84082037D01*
X142129558Y-84075518D01*
X142195740Y-84069000D01*
X142284260Y-84069000D01*
X142350442Y-84075518D01*
X142350442Y-84075518D01*
G37*
G36*
X152510443Y-81655519D02*
G01*
X152576627Y-81662037D01*
X152746466Y-81713557D01*
X152902991Y-81797222D01*
X152938729Y-81826552D01*
X153040186Y-81909814D01*
X153123448Y-82011271D01*
X153152778Y-82047009D01*
X153236443Y-82203534D01*
X153287963Y-82373373D01*
X153305359Y-82550000D01*
X153287963Y-82726627D01*
X153236443Y-82896466D01*
X153152778Y-83052991D01*
X153138667Y-83070185D01*
X153040186Y-83190186D01*
X152947266Y-83266442D01*
X152902991Y-83302778D01*
X152746466Y-83386443D01*
X152576627Y-83437963D01*
X152510443Y-83444481D01*
X152444260Y-83451000D01*
X152355740Y-83451000D01*
X152289557Y-83444481D01*
X152223373Y-83437963D01*
X152053534Y-83386443D01*
X151897009Y-83302778D01*
X151852734Y-83266442D01*
X151759814Y-83190186D01*
X151661333Y-83070185D01*
X151647222Y-83052991D01*
X151563557Y-82896466D01*
X151512037Y-82726627D01*
X151494641Y-82550000D01*
X151512037Y-82373373D01*
X151563557Y-82203534D01*
X151647222Y-82047009D01*
X151676552Y-82011271D01*
X151759814Y-81909814D01*
X151861271Y-81826552D01*
X151897009Y-81797222D01*
X152053534Y-81713557D01*
X152223373Y-81662037D01*
X152289557Y-81655519D01*
X152355740Y-81649000D01*
X152444260Y-81649000D01*
X152510443Y-81655519D01*
X152510443Y-81655519D01*
G37*
G36*
X142350442Y-81535518D02*
G01*
X142416627Y-81542037D01*
X142586466Y-81593557D01*
X142742991Y-81677222D01*
X142778729Y-81706552D01*
X142880186Y-81789814D01*
X142963448Y-81891271D01*
X142992778Y-81927009D01*
X143076443Y-82083534D01*
X143127963Y-82253373D01*
X143145359Y-82430000D01*
X143127963Y-82606627D01*
X143076443Y-82776466D01*
X142992778Y-82932991D01*
X142963448Y-82968729D01*
X142880186Y-83070186D01*
X142778729Y-83153448D01*
X142742991Y-83182778D01*
X142586466Y-83266443D01*
X142416627Y-83317963D01*
X142350443Y-83324481D01*
X142284260Y-83331000D01*
X142195740Y-83331000D01*
X142129557Y-83324481D01*
X142063373Y-83317963D01*
X141893534Y-83266443D01*
X141737009Y-83182778D01*
X141701271Y-83153448D01*
X141599814Y-83070186D01*
X141516552Y-82968729D01*
X141487222Y-82932991D01*
X141403557Y-82776466D01*
X141352037Y-82606627D01*
X141334641Y-82430000D01*
X141352037Y-82253373D01*
X141403557Y-82083534D01*
X141487222Y-81927009D01*
X141516552Y-81891271D01*
X141599814Y-81789814D01*
X141701271Y-81706552D01*
X141737009Y-81677222D01*
X141893534Y-81593557D01*
X142063373Y-81542037D01*
X142129558Y-81535518D01*
X142195740Y-81529000D01*
X142284260Y-81529000D01*
X142350442Y-81535518D01*
X142350442Y-81535518D01*
G37*
G36*
X147379591Y-80303085D02*
G01*
X147413569Y-80313393D01*
X147444890Y-80330134D01*
X147472339Y-80352661D01*
X147494866Y-80380110D01*
X147511607Y-80411431D01*
X147521915Y-80445409D01*
X147526000Y-80486890D01*
X147526000Y-81088110D01*
X147521915Y-81129591D01*
X147511607Y-81163569D01*
X147494866Y-81194890D01*
X147472339Y-81222339D01*
X147444890Y-81244866D01*
X147413569Y-81261607D01*
X147379591Y-81271915D01*
X147338110Y-81276000D01*
X146661890Y-81276000D01*
X146620409Y-81271915D01*
X146586431Y-81261607D01*
X146555110Y-81244866D01*
X146527661Y-81222339D01*
X146505134Y-81194890D01*
X146488393Y-81163569D01*
X146478085Y-81129591D01*
X146474000Y-81088110D01*
X146474000Y-80486890D01*
X146478085Y-80445409D01*
X146488393Y-80411431D01*
X146505134Y-80380110D01*
X146527661Y-80352661D01*
X146555110Y-80330134D01*
X146586431Y-80313393D01*
X146620409Y-80303085D01*
X146661890Y-80299000D01*
X147338110Y-80299000D01*
X147379591Y-80303085D01*
X147379591Y-80303085D01*
G37*
G36*
X145379591Y-80303085D02*
G01*
X145413569Y-80313393D01*
X145444890Y-80330134D01*
X145472339Y-80352661D01*
X145494866Y-80380110D01*
X145511607Y-80411431D01*
X145521915Y-80445409D01*
X145526000Y-80486890D01*
X145526000Y-81088110D01*
X145521915Y-81129591D01*
X145511607Y-81163569D01*
X145494866Y-81194890D01*
X145472339Y-81222339D01*
X145444890Y-81244866D01*
X145413569Y-81261607D01*
X145379591Y-81271915D01*
X145338110Y-81276000D01*
X144661890Y-81276000D01*
X144620409Y-81271915D01*
X144586431Y-81261607D01*
X144555110Y-81244866D01*
X144527661Y-81222339D01*
X144505134Y-81194890D01*
X144488393Y-81163569D01*
X144478085Y-81129591D01*
X144474000Y-81088110D01*
X144474000Y-80486890D01*
X144478085Y-80445409D01*
X144488393Y-80411431D01*
X144505134Y-80380110D01*
X144527661Y-80352661D01*
X144555110Y-80330134D01*
X144586431Y-80313393D01*
X144620409Y-80303085D01*
X144661890Y-80299000D01*
X145338110Y-80299000D01*
X145379591Y-80303085D01*
X145379591Y-80303085D01*
G37*
G36*
X152510443Y-79115519D02*
G01*
X152576627Y-79122037D01*
X152746466Y-79173557D01*
X152902991Y-79257222D01*
X152938729Y-79286552D01*
X153040186Y-79369814D01*
X153111531Y-79456750D01*
X153152778Y-79507009D01*
X153152779Y-79507011D01*
X153218231Y-79629461D01*
X153236443Y-79663534D01*
X153287963Y-79833373D01*
X153305359Y-80010000D01*
X153287963Y-80186627D01*
X153236443Y-80356466D01*
X153152778Y-80512991D01*
X153127945Y-80543250D01*
X153040186Y-80650186D01*
X152938729Y-80733448D01*
X152902991Y-80762778D01*
X152746466Y-80846443D01*
X152576627Y-80897963D01*
X152510442Y-80904482D01*
X152444260Y-80911000D01*
X152355740Y-80911000D01*
X152289558Y-80904482D01*
X152223373Y-80897963D01*
X152053534Y-80846443D01*
X151897009Y-80762778D01*
X151861271Y-80733448D01*
X151759814Y-80650186D01*
X151672055Y-80543250D01*
X151647222Y-80512991D01*
X151563557Y-80356466D01*
X151512037Y-80186627D01*
X151494641Y-80010000D01*
X151512037Y-79833373D01*
X151563557Y-79663534D01*
X151581770Y-79629461D01*
X151647221Y-79507011D01*
X151647222Y-79507009D01*
X151688469Y-79456750D01*
X151759814Y-79369814D01*
X151861271Y-79286552D01*
X151897009Y-79257222D01*
X152053534Y-79173557D01*
X152223373Y-79122037D01*
X152289557Y-79115519D01*
X152355740Y-79109000D01*
X152444260Y-79109000D01*
X152510443Y-79115519D01*
X152510443Y-79115519D01*
G37*
G36*
X143141000Y-80791000D02*
G01*
X141339000Y-80791000D01*
X141339000Y-78989000D01*
X143141000Y-78989000D01*
X143141000Y-80791000D01*
X143141000Y-80791000D01*
G37*
G36*
X145379591Y-78728085D02*
G01*
X145413569Y-78738393D01*
X145444890Y-78755134D01*
X145472339Y-78777661D01*
X145494866Y-78805110D01*
X145511607Y-78836431D01*
X145521915Y-78870409D01*
X145526000Y-78911890D01*
X145526000Y-79513110D01*
X145521915Y-79554591D01*
X145511607Y-79588569D01*
X145494866Y-79619890D01*
X145472339Y-79647339D01*
X145444890Y-79669866D01*
X145413569Y-79686607D01*
X145379591Y-79696915D01*
X145338110Y-79701000D01*
X144661890Y-79701000D01*
X144620409Y-79696915D01*
X144586431Y-79686607D01*
X144555110Y-79669866D01*
X144527661Y-79647339D01*
X144505134Y-79619890D01*
X144488393Y-79588569D01*
X144478085Y-79554591D01*
X144474000Y-79513110D01*
X144474000Y-78911890D01*
X144478085Y-78870409D01*
X144488393Y-78836431D01*
X144505134Y-78805110D01*
X144527661Y-78777661D01*
X144555110Y-78755134D01*
X144586431Y-78738393D01*
X144620409Y-78728085D01*
X144661890Y-78724000D01*
X145338110Y-78724000D01*
X145379591Y-78728085D01*
X145379591Y-78728085D01*
G37*
G36*
X147379591Y-78728085D02*
G01*
X147413569Y-78738393D01*
X147444890Y-78755134D01*
X147472339Y-78777661D01*
X147494866Y-78805110D01*
X147511607Y-78836431D01*
X147521915Y-78870409D01*
X147526000Y-78911890D01*
X147526000Y-79513110D01*
X147521915Y-79554591D01*
X147511607Y-79588569D01*
X147494866Y-79619890D01*
X147472339Y-79647339D01*
X147444890Y-79669866D01*
X147413569Y-79686607D01*
X147379591Y-79696915D01*
X147338110Y-79701000D01*
X146661890Y-79701000D01*
X146620409Y-79696915D01*
X146586431Y-79686607D01*
X146555110Y-79669866D01*
X146527661Y-79647339D01*
X146505134Y-79619890D01*
X146488393Y-79588569D01*
X146478085Y-79554591D01*
X146474000Y-79513110D01*
X146474000Y-78911890D01*
X146478085Y-78870409D01*
X146488393Y-78836431D01*
X146505134Y-78805110D01*
X146527661Y-78777661D01*
X146555110Y-78755134D01*
X146586431Y-78738393D01*
X146620409Y-78728085D01*
X146661890Y-78724000D01*
X147338110Y-78724000D01*
X147379591Y-78728085D01*
X147379591Y-78728085D01*
G37*
G36*
X144859375Y-73960764D02*
G01*
X145012626Y-74007252D01*
X145012629Y-74007253D01*
X145153863Y-74082744D01*
X145277659Y-74184341D01*
X145379256Y-74308137D01*
X145454747Y-74449370D01*
X145454747Y-74449371D01*
X145454748Y-74449373D01*
X145501236Y-74602624D01*
X145513000Y-74722067D01*
X145513000Y-75077932D01*
X145501236Y-75197375D01*
X145454748Y-75350627D01*
X145454747Y-75350630D01*
X145379256Y-75491863D01*
X145277659Y-75615659D01*
X145153863Y-75717256D01*
X145012630Y-75792747D01*
X145012627Y-75792748D01*
X144859376Y-75839236D01*
X144700000Y-75854933D01*
X144540625Y-75839236D01*
X144387374Y-75792748D01*
X144387371Y-75792747D01*
X144246137Y-75717256D01*
X144122341Y-75615659D01*
X144020744Y-75491863D01*
X143945253Y-75350630D01*
X143945252Y-75350627D01*
X143898764Y-75197376D01*
X143887000Y-75077933D01*
X143887000Y-74722068D01*
X143898764Y-74602625D01*
X143945252Y-74449374D01*
X143945253Y-74449371D01*
X144020744Y-74308137D01*
X144122341Y-74184341D01*
X144246137Y-74082744D01*
X144387370Y-74007253D01*
X144387373Y-74007252D01*
X144540624Y-73960764D01*
X144700000Y-73945067D01*
X144859375Y-73960764D01*
X144859375Y-73960764D01*
G37*
G36*
X146859375Y-73960764D02*
G01*
X147012626Y-74007252D01*
X147012629Y-74007253D01*
X147153863Y-74082744D01*
X147277659Y-74184341D01*
X147379256Y-74308137D01*
X147454747Y-74449370D01*
X147454747Y-74449371D01*
X147454748Y-74449373D01*
X147501236Y-74602624D01*
X147513000Y-74722067D01*
X147513000Y-75077932D01*
X147501236Y-75197375D01*
X147454748Y-75350627D01*
X147454747Y-75350630D01*
X147379256Y-75491863D01*
X147277659Y-75615659D01*
X147153863Y-75717256D01*
X147012630Y-75792747D01*
X147012627Y-75792748D01*
X146859376Y-75839236D01*
X146700000Y-75854933D01*
X146540625Y-75839236D01*
X146387374Y-75792748D01*
X146387371Y-75792747D01*
X146246137Y-75717256D01*
X146122341Y-75615659D01*
X146020744Y-75491863D01*
X145945253Y-75350630D01*
X145945252Y-75350627D01*
X145898764Y-75197376D01*
X145887000Y-75077933D01*
X145887000Y-74722068D01*
X145898764Y-74602625D01*
X145945252Y-74449374D01*
X145945253Y-74449371D01*
X146020744Y-74308137D01*
X146122341Y-74184341D01*
X146246137Y-74082744D01*
X146387370Y-74007253D01*
X146387373Y-74007252D01*
X146540624Y-73960764D01*
X146700000Y-73945067D01*
X146859375Y-73960764D01*
X146859375Y-73960764D01*
G37*
G36*
X150859375Y-73960764D02*
G01*
X151012626Y-74007252D01*
X151012629Y-74007253D01*
X151153863Y-74082744D01*
X151277659Y-74184341D01*
X151379256Y-74308137D01*
X151454747Y-74449370D01*
X151454747Y-74449371D01*
X151454748Y-74449373D01*
X151501236Y-74602624D01*
X151513000Y-74722067D01*
X151513000Y-75077932D01*
X151501236Y-75197375D01*
X151454748Y-75350627D01*
X151454747Y-75350630D01*
X151379256Y-75491863D01*
X151277659Y-75615659D01*
X151153863Y-75717256D01*
X151012630Y-75792747D01*
X151012627Y-75792748D01*
X150859376Y-75839236D01*
X150700000Y-75854933D01*
X150540625Y-75839236D01*
X150387374Y-75792748D01*
X150387371Y-75792747D01*
X150246137Y-75717256D01*
X150122341Y-75615659D01*
X150020744Y-75491863D01*
X149945253Y-75350630D01*
X149945252Y-75350627D01*
X149898764Y-75197376D01*
X149887000Y-75077933D01*
X149887000Y-74722068D01*
X149898764Y-74602625D01*
X149945252Y-74449374D01*
X149945253Y-74449371D01*
X150020744Y-74308137D01*
X150122341Y-74184341D01*
X150246137Y-74082744D01*
X150387370Y-74007253D01*
X150387373Y-74007252D01*
X150540624Y-73960764D01*
X150700000Y-73945067D01*
X150859375Y-73960764D01*
X150859375Y-73960764D01*
G37*
G36*
X148859375Y-73960764D02*
G01*
X149012626Y-74007252D01*
X149012629Y-74007253D01*
X149153863Y-74082744D01*
X149277659Y-74184341D01*
X149379256Y-74308137D01*
X149454747Y-74449370D01*
X149454747Y-74449371D01*
X149454748Y-74449373D01*
X149501236Y-74602624D01*
X149513000Y-74722067D01*
X149513000Y-75077932D01*
X149501236Y-75197375D01*
X149454748Y-75350627D01*
X149454747Y-75350630D01*
X149379256Y-75491863D01*
X149277659Y-75615659D01*
X149153863Y-75717256D01*
X149012630Y-75792747D01*
X149012627Y-75792748D01*
X148859376Y-75839236D01*
X148700000Y-75854933D01*
X148540625Y-75839236D01*
X148387374Y-75792748D01*
X148387371Y-75792747D01*
X148246137Y-75717256D01*
X148122341Y-75615659D01*
X148020744Y-75491863D01*
X147945253Y-75350630D01*
X147945252Y-75350627D01*
X147898764Y-75197376D01*
X147887000Y-75077933D01*
X147887000Y-74722068D01*
X147898764Y-74602625D01*
X147945252Y-74449374D01*
X147945253Y-74449371D01*
X148020744Y-74308137D01*
X148122341Y-74184341D01*
X148246137Y-74082744D01*
X148387370Y-74007253D01*
X148387373Y-74007252D01*
X148540624Y-73960764D01*
X148700000Y-73945067D01*
X148859375Y-73960764D01*
X148859375Y-73960764D01*
G37*
M02*
