G04 #@! TF.GenerationSoftware,KiCad,Pcbnew,(5.1.2)-1*
G04 #@! TF.CreationDate,2024-07-07T09:58:16+09:00*
G04 #@! TF.ProjectId,slg,736c672e-6b69-4636-9164-5f7063625858,v1.0*
G04 #@! TF.SameCoordinates,Original*
G04 #@! TF.FileFunction,Legend,Top*
G04 #@! TF.FilePolarity,Positive*
%FSLAX46Y46*%
G04 Gerber Fmt 4.6, Leading zero omitted, Abs format (unit mm)*
G04 Created by KiCad (PCBNEW (5.1.2)-1) date 2024-07-07 09:58:16*
%MOMM*%
%LPD*%
G04 APERTURE LIST*
%ADD10C,0.120000*%
%ADD11C,0.150000*%
%ADD12R,1.852000X1.702000*%
%ADD13C,0.115147*%
%ADD14C,0.100000*%
%ADD15C,0.302000*%
%ADD16C,0.977000*%
%ADD17O,1.626000X1.902000*%
%ADD18O,1.802000X1.802000*%
%ADD19R,1.802000X1.802000*%
G04 APERTURE END LIST*
D10*
X148552857Y-85818571D02*
X148581428Y-85732857D01*
X148581428Y-85590000D01*
X148552857Y-85532857D01*
X148524285Y-85504285D01*
X148467142Y-85475714D01*
X148410000Y-85475714D01*
X148352857Y-85504285D01*
X148324285Y-85532857D01*
X148295714Y-85590000D01*
X148267142Y-85704285D01*
X148238571Y-85761428D01*
X148210000Y-85790000D01*
X148152857Y-85818571D01*
X148095714Y-85818571D01*
X148038571Y-85790000D01*
X148010000Y-85761428D01*
X147981428Y-85704285D01*
X147981428Y-85561428D01*
X148010000Y-85475714D01*
X148581428Y-84932857D02*
X148581428Y-85218571D01*
X147981428Y-85218571D01*
X148010000Y-84418571D02*
X147981428Y-84475714D01*
X147981428Y-84561428D01*
X148010000Y-84647142D01*
X148067142Y-84704285D01*
X148124285Y-84732857D01*
X148238571Y-84761428D01*
X148324285Y-84761428D01*
X148438571Y-84732857D01*
X148495714Y-84704285D01*
X148552857Y-84647142D01*
X148581428Y-84561428D01*
X148581428Y-84504285D01*
X148552857Y-84418571D01*
X148524285Y-84390000D01*
X148324285Y-84390000D01*
X148324285Y-84504285D01*
X148181428Y-83875714D02*
X148581428Y-83875714D01*
X147952857Y-84018571D02*
X148381428Y-84161428D01*
X148381428Y-83790000D01*
X147981428Y-83618571D02*
X147981428Y-83218571D01*
X148581428Y-83475714D01*
X147981428Y-82875714D02*
X147981428Y-82818571D01*
X148010000Y-82761428D01*
X148038571Y-82732857D01*
X148095714Y-82704285D01*
X148210000Y-82675714D01*
X148352857Y-82675714D01*
X148467142Y-82704285D01*
X148524285Y-82732857D01*
X148552857Y-82761428D01*
X148581428Y-82818571D01*
X148581428Y-82875714D01*
X148552857Y-82932857D01*
X148524285Y-82961428D01*
X148467142Y-82990000D01*
X148352857Y-83018571D01*
X148210000Y-83018571D01*
X148095714Y-82990000D01*
X148038571Y-82961428D01*
X148010000Y-82932857D01*
X147981428Y-82875714D01*
X147981428Y-82304285D02*
X147981428Y-82247142D01*
X148010000Y-82190000D01*
X148038571Y-82161428D01*
X148095714Y-82132857D01*
X148210000Y-82104285D01*
X148352857Y-82104285D01*
X148467142Y-82132857D01*
X148524285Y-82161428D01*
X148552857Y-82190000D01*
X148581428Y-82247142D01*
X148581428Y-82304285D01*
X148552857Y-82361428D01*
X148524285Y-82390000D01*
X148467142Y-82418571D01*
X148352857Y-82447142D01*
X148210000Y-82447142D01*
X148095714Y-82418571D01*
X148038571Y-82390000D01*
X148010000Y-82361428D01*
X147981428Y-82304285D01*
X148181428Y-81590000D02*
X148581428Y-81590000D01*
X147952857Y-81732857D02*
X148381428Y-81875714D01*
X148381428Y-81504285D01*
X147981428Y-81361428D02*
X148581428Y-81161428D01*
X147981428Y-80961428D01*
X148267142Y-80104285D02*
X148295714Y-80018571D01*
X148324285Y-79990000D01*
X148381428Y-79961428D01*
X148467142Y-79961428D01*
X148524285Y-79990000D01*
X148552857Y-80018571D01*
X148581428Y-80075714D01*
X148581428Y-80304285D01*
X147981428Y-80304285D01*
X147981428Y-80104285D01*
X148010000Y-80047142D01*
X148038571Y-80018571D01*
X148095714Y-79990000D01*
X148152857Y-79990000D01*
X148210000Y-80018571D01*
X148238571Y-80047142D01*
X148267142Y-80104285D01*
X148267142Y-80304285D01*
X148581428Y-79618571D02*
X148552857Y-79675714D01*
X148524285Y-79704285D01*
X148467142Y-79732857D01*
X148295714Y-79732857D01*
X148238571Y-79704285D01*
X148210000Y-79675714D01*
X148181428Y-79618571D01*
X148181428Y-79532857D01*
X148210000Y-79475714D01*
X148238571Y-79447142D01*
X148295714Y-79418571D01*
X148467142Y-79418571D01*
X148524285Y-79447142D01*
X148552857Y-79475714D01*
X148581428Y-79532857D01*
X148581428Y-79618571D01*
X148581428Y-78904285D02*
X148267142Y-78904285D01*
X148210000Y-78932857D01*
X148181428Y-78990000D01*
X148181428Y-79104285D01*
X148210000Y-79161428D01*
X148552857Y-78904285D02*
X148581428Y-78961428D01*
X148581428Y-79104285D01*
X148552857Y-79161428D01*
X148495714Y-79190000D01*
X148438571Y-79190000D01*
X148381428Y-79161428D01*
X148352857Y-79104285D01*
X148352857Y-78961428D01*
X148324285Y-78904285D01*
X148581428Y-78618571D02*
X148181428Y-78618571D01*
X148295714Y-78618571D02*
X148238571Y-78590000D01*
X148210000Y-78561428D01*
X148181428Y-78504285D01*
X148181428Y-78447142D01*
X148581428Y-77990000D02*
X147981428Y-77990000D01*
X148552857Y-77990000D02*
X148581428Y-78047142D01*
X148581428Y-78161428D01*
X148552857Y-78218571D01*
X148524285Y-78247142D01*
X148467142Y-78275714D01*
X148295714Y-78275714D01*
X148238571Y-78247142D01*
X148210000Y-78218571D01*
X148181428Y-78161428D01*
X148181428Y-78047142D01*
X148210000Y-77990000D01*
X149058571Y-86490000D02*
X149030000Y-86461428D01*
X149001428Y-86404285D01*
X149001428Y-86261428D01*
X149030000Y-86204285D01*
X149058571Y-86175714D01*
X149115714Y-86147142D01*
X149172857Y-86147142D01*
X149258571Y-86175714D01*
X149601428Y-86518571D01*
X149601428Y-86147142D01*
X149201428Y-85632857D02*
X149601428Y-85632857D01*
X148972857Y-85775714D02*
X149401428Y-85918571D01*
X149401428Y-85547142D01*
X149001428Y-85204285D02*
X149001428Y-85147142D01*
X149030000Y-85090000D01*
X149058571Y-85061428D01*
X149115714Y-85032857D01*
X149230000Y-85004285D01*
X149372857Y-85004285D01*
X149487142Y-85032857D01*
X149544285Y-85061428D01*
X149572857Y-85090000D01*
X149601428Y-85147142D01*
X149601428Y-85204285D01*
X149572857Y-85261428D01*
X149544285Y-85290000D01*
X149487142Y-85318571D01*
X149372857Y-85347142D01*
X149230000Y-85347142D01*
X149115714Y-85318571D01*
X149058571Y-85290000D01*
X149030000Y-85261428D01*
X149001428Y-85204285D01*
X149001428Y-84804285D02*
X149001428Y-84404285D01*
X149601428Y-84661428D01*
X149201428Y-83775714D02*
X149601428Y-83632857D01*
X149201428Y-83490000D01*
X149601428Y-82947142D02*
X149601428Y-83290000D01*
X149601428Y-83118571D02*
X149001428Y-83118571D01*
X149087142Y-83175714D01*
X149144285Y-83232857D01*
X149172857Y-83290000D01*
X149544285Y-82690000D02*
X149572857Y-82661428D01*
X149601428Y-82690000D01*
X149572857Y-82718571D01*
X149544285Y-82690000D01*
X149601428Y-82690000D01*
X149001428Y-82290000D02*
X149001428Y-82232857D01*
X149030000Y-82175714D01*
X149058571Y-82147142D01*
X149115714Y-82118571D01*
X149230000Y-82090000D01*
X149372857Y-82090000D01*
X149487142Y-82118571D01*
X149544285Y-82147142D01*
X149572857Y-82175714D01*
X149601428Y-82232857D01*
X149601428Y-82290000D01*
X149572857Y-82347142D01*
X149544285Y-82375714D01*
X149487142Y-82404285D01*
X149372857Y-82432857D01*
X149230000Y-82432857D01*
X149115714Y-82404285D01*
X149058571Y-82375714D01*
X149030000Y-82347142D01*
X149001428Y-82290000D01*
X149544285Y-81032857D02*
X149572857Y-81061428D01*
X149601428Y-81147142D01*
X149601428Y-81204285D01*
X149572857Y-81290000D01*
X149515714Y-81347142D01*
X149458571Y-81375714D01*
X149344285Y-81404285D01*
X149258571Y-81404285D01*
X149144285Y-81375714D01*
X149087142Y-81347142D01*
X149030000Y-81290000D01*
X149001428Y-81204285D01*
X149001428Y-81147142D01*
X149030000Y-81061428D01*
X149058571Y-81032857D01*
X149601428Y-80775714D02*
X149201428Y-80775714D01*
X149315714Y-80775714D02*
X149258571Y-80747142D01*
X149230000Y-80718571D01*
X149201428Y-80661428D01*
X149201428Y-80604285D01*
X149572857Y-80175714D02*
X149601428Y-80232857D01*
X149601428Y-80347142D01*
X149572857Y-80404285D01*
X149515714Y-80432857D01*
X149287142Y-80432857D01*
X149230000Y-80404285D01*
X149201428Y-80347142D01*
X149201428Y-80232857D01*
X149230000Y-80175714D01*
X149287142Y-80147142D01*
X149344285Y-80147142D01*
X149401428Y-80432857D01*
X149572857Y-79918571D02*
X149601428Y-79861428D01*
X149601428Y-79747142D01*
X149572857Y-79690000D01*
X149515714Y-79661428D01*
X149487142Y-79661428D01*
X149430000Y-79690000D01*
X149401428Y-79747142D01*
X149401428Y-79832857D01*
X149372857Y-79890000D01*
X149315714Y-79918571D01*
X149287142Y-79918571D01*
X149230000Y-79890000D01*
X149201428Y-79832857D01*
X149201428Y-79747142D01*
X149230000Y-79690000D01*
X149572857Y-79147142D02*
X149601428Y-79204285D01*
X149601428Y-79318571D01*
X149572857Y-79375714D01*
X149544285Y-79404285D01*
X149487142Y-79432857D01*
X149315714Y-79432857D01*
X149258571Y-79404285D01*
X149230000Y-79375714D01*
X149201428Y-79318571D01*
X149201428Y-79204285D01*
X149230000Y-79147142D01*
X149572857Y-78661428D02*
X149601428Y-78718571D01*
X149601428Y-78832857D01*
X149572857Y-78890000D01*
X149515714Y-78918571D01*
X149287142Y-78918571D01*
X149230000Y-78890000D01*
X149201428Y-78832857D01*
X149201428Y-78718571D01*
X149230000Y-78661428D01*
X149287142Y-78632857D01*
X149344285Y-78632857D01*
X149401428Y-78918571D01*
X149201428Y-78375714D02*
X149601428Y-78375714D01*
X149258571Y-78375714D02*
X149230000Y-78347142D01*
X149201428Y-78290000D01*
X149201428Y-78204285D01*
X149230000Y-78147142D01*
X149287142Y-78118571D01*
X149601428Y-78118571D01*
X149201428Y-77918571D02*
X149201428Y-77690000D01*
X149001428Y-77832857D02*
X149515714Y-77832857D01*
X149572857Y-77804285D01*
X149601428Y-77747142D01*
X149601428Y-77690000D01*
X150851904Y-80483333D02*
X150470952Y-80750000D01*
X150851904Y-80940476D02*
X150051904Y-80940476D01*
X150051904Y-80635714D01*
X150090000Y-80559523D01*
X150128095Y-80521428D01*
X150204285Y-80483333D01*
X150318571Y-80483333D01*
X150394761Y-80521428D01*
X150432857Y-80559523D01*
X150470952Y-80635714D01*
X150470952Y-80940476D01*
X150851904Y-79721428D02*
X150851904Y-80178571D01*
X150851904Y-79950000D02*
X150051904Y-79950000D01*
X150166190Y-80026190D01*
X150242380Y-80102380D01*
X150280476Y-80178571D01*
X150432857Y-79111904D02*
X150470952Y-78997619D01*
X150509047Y-78959523D01*
X150585238Y-78921428D01*
X150699523Y-78921428D01*
X150775714Y-78959523D01*
X150813809Y-78997619D01*
X150851904Y-79073809D01*
X150851904Y-79378571D01*
X150051904Y-79378571D01*
X150051904Y-79111904D01*
X150090000Y-79035714D01*
X150128095Y-78997619D01*
X150204285Y-78959523D01*
X150280476Y-78959523D01*
X150356666Y-78997619D01*
X150394761Y-79035714D01*
X150432857Y-79111904D01*
X150432857Y-79378571D01*
X150841904Y-82996190D02*
X150460952Y-83262857D01*
X150841904Y-83453333D02*
X150041904Y-83453333D01*
X150041904Y-83148571D01*
X150080000Y-83072380D01*
X150118095Y-83034285D01*
X150194285Y-82996190D01*
X150308571Y-82996190D01*
X150384761Y-83034285D01*
X150422857Y-83072380D01*
X150460952Y-83148571D01*
X150460952Y-83453333D01*
X150841904Y-82234285D02*
X150841904Y-82691428D01*
X150841904Y-82462857D02*
X150041904Y-82462857D01*
X150156190Y-82539047D01*
X150232380Y-82615238D01*
X150270476Y-82691428D01*
X150613333Y-81929523D02*
X150613333Y-81548571D01*
X150841904Y-82005714D02*
X150041904Y-81739047D01*
X150841904Y-81472380D01*
X150921904Y-85643333D02*
X150540952Y-85910000D01*
X150921904Y-86100476D02*
X150121904Y-86100476D01*
X150121904Y-85795714D01*
X150160000Y-85719523D01*
X150198095Y-85681428D01*
X150274285Y-85643333D01*
X150388571Y-85643333D01*
X150464761Y-85681428D01*
X150502857Y-85719523D01*
X150540952Y-85795714D01*
X150540952Y-86100476D01*
X150121904Y-85148095D02*
X150121904Y-85071904D01*
X150160000Y-84995714D01*
X150198095Y-84957619D01*
X150274285Y-84919523D01*
X150426666Y-84881428D01*
X150617142Y-84881428D01*
X150769523Y-84919523D01*
X150845714Y-84957619D01*
X150883809Y-84995714D01*
X150921904Y-85071904D01*
X150921904Y-85148095D01*
X150883809Y-85224285D01*
X150845714Y-85262380D01*
X150769523Y-85300476D01*
X150617142Y-85338571D01*
X150426666Y-85338571D01*
X150274285Y-85300476D01*
X150198095Y-85262380D01*
X150160000Y-85224285D01*
X150121904Y-85148095D01*
X150502857Y-84271904D02*
X150540952Y-84157619D01*
X150579047Y-84119523D01*
X150655238Y-84081428D01*
X150769523Y-84081428D01*
X150845714Y-84119523D01*
X150883809Y-84157619D01*
X150921904Y-84233809D01*
X150921904Y-84538571D01*
X150121904Y-84538571D01*
X150121904Y-84271904D01*
X150160000Y-84195714D01*
X150198095Y-84157619D01*
X150274285Y-84119523D01*
X150350476Y-84119523D01*
X150426666Y-84157619D01*
X150464761Y-84195714D01*
X150502857Y-84271904D01*
X150502857Y-84538571D01*
X150911904Y-88096190D02*
X150530952Y-88362857D01*
X150911904Y-88553333D02*
X150111904Y-88553333D01*
X150111904Y-88248571D01*
X150150000Y-88172380D01*
X150188095Y-88134285D01*
X150264285Y-88096190D01*
X150378571Y-88096190D01*
X150454761Y-88134285D01*
X150492857Y-88172380D01*
X150530952Y-88248571D01*
X150530952Y-88553333D01*
X150111904Y-87600952D02*
X150111904Y-87524761D01*
X150150000Y-87448571D01*
X150188095Y-87410476D01*
X150264285Y-87372380D01*
X150416666Y-87334285D01*
X150607142Y-87334285D01*
X150759523Y-87372380D01*
X150835714Y-87410476D01*
X150873809Y-87448571D01*
X150911904Y-87524761D01*
X150911904Y-87600952D01*
X150873809Y-87677142D01*
X150835714Y-87715238D01*
X150759523Y-87753333D01*
X150607142Y-87791428D01*
X150416666Y-87791428D01*
X150264285Y-87753333D01*
X150188095Y-87715238D01*
X150150000Y-87677142D01*
X150111904Y-87600952D01*
X150683333Y-87029523D02*
X150683333Y-86648571D01*
X150911904Y-87105714D02*
X150111904Y-86839047D01*
X150911904Y-86572380D01*
X150643333Y-91030476D02*
X150643333Y-90649523D01*
X150871904Y-91106666D02*
X150071904Y-90840000D01*
X150871904Y-90573333D01*
X150871904Y-89887619D02*
X150871904Y-90344761D01*
X150871904Y-90116190D02*
X150071904Y-90116190D01*
X150186190Y-90192380D01*
X150262380Y-90268571D01*
X150300476Y-90344761D01*
X150071904Y-89392380D02*
X150071904Y-89240000D01*
X150110000Y-89163809D01*
X150186190Y-89087619D01*
X150338571Y-89049523D01*
X150605238Y-89049523D01*
X150757619Y-89087619D01*
X150833809Y-89163809D01*
X150871904Y-89240000D01*
X150871904Y-89392380D01*
X150833809Y-89468571D01*
X150757619Y-89544761D01*
X150605238Y-89582857D01*
X150338571Y-89582857D01*
X150186190Y-89544761D01*
X150110000Y-89468571D01*
X150071904Y-89392380D01*
X150633333Y-93576666D02*
X150633333Y-93195714D01*
X150861904Y-93652857D02*
X150061904Y-93386190D01*
X150861904Y-93119523D01*
X150861904Y-92433809D02*
X150861904Y-92890952D01*
X150861904Y-92662380D02*
X150061904Y-92662380D01*
X150176190Y-92738571D01*
X150252380Y-92814761D01*
X150290476Y-92890952D01*
X150557142Y-92090952D02*
X150557142Y-91481428D01*
X150653333Y-96106666D02*
X150653333Y-95725714D01*
X150881904Y-96182857D02*
X150081904Y-95916190D01*
X150881904Y-95649523D01*
X150881904Y-94963809D02*
X150881904Y-95420952D01*
X150881904Y-95192380D02*
X150081904Y-95192380D01*
X150196190Y-95268571D01*
X150272380Y-95344761D01*
X150310476Y-95420952D01*
X150577142Y-94620952D02*
X150577142Y-94011428D01*
X150881904Y-94316190D02*
X150272380Y-94316190D01*
X150650000Y-99082857D02*
X150650000Y-98797142D01*
X150821428Y-99140000D02*
X150221428Y-98940000D01*
X150821428Y-98740000D01*
X150221428Y-98425714D02*
X150221428Y-98368571D01*
X150250000Y-98311428D01*
X150278571Y-98282857D01*
X150335714Y-98254285D01*
X150450000Y-98225714D01*
X150592857Y-98225714D01*
X150707142Y-98254285D01*
X150764285Y-98282857D01*
X150792857Y-98311428D01*
X150821428Y-98368571D01*
X150821428Y-98425714D01*
X150792857Y-98482857D01*
X150764285Y-98511428D01*
X150707142Y-98540000D01*
X150592857Y-98568571D01*
X150450000Y-98568571D01*
X150335714Y-98540000D01*
X150278571Y-98511428D01*
X150250000Y-98482857D01*
X150221428Y-98425714D01*
X150221428Y-97854285D02*
X150221428Y-97740000D01*
X150250000Y-97682857D01*
X150307142Y-97625714D01*
X150421428Y-97597142D01*
X150621428Y-97597142D01*
X150735714Y-97625714D01*
X150792857Y-97682857D01*
X150821428Y-97740000D01*
X150821428Y-97854285D01*
X150792857Y-97911428D01*
X150735714Y-97968571D01*
X150621428Y-97997142D01*
X150421428Y-97997142D01*
X150307142Y-97968571D01*
X150250000Y-97911428D01*
X150221428Y-97854285D01*
X150573333Y-101376666D02*
X150573333Y-100995714D01*
X150801904Y-101452857D02*
X150001904Y-101186190D01*
X150801904Y-100919523D01*
X150001904Y-100500476D02*
X150001904Y-100424285D01*
X150040000Y-100348095D01*
X150078095Y-100310000D01*
X150154285Y-100271904D01*
X150306666Y-100233809D01*
X150497142Y-100233809D01*
X150649523Y-100271904D01*
X150725714Y-100310000D01*
X150763809Y-100348095D01*
X150801904Y-100424285D01*
X150801904Y-100500476D01*
X150763809Y-100576666D01*
X150725714Y-100614761D01*
X150649523Y-100652857D01*
X150497142Y-100690952D01*
X150306666Y-100690952D01*
X150154285Y-100652857D01*
X150078095Y-100614761D01*
X150040000Y-100576666D01*
X150001904Y-100500476D01*
X150497142Y-99890952D02*
X150497142Y-99281428D01*
X150563333Y-103766666D02*
X150563333Y-103385714D01*
X150791904Y-103842857D02*
X149991904Y-103576190D01*
X150791904Y-103309523D01*
X149991904Y-102890476D02*
X149991904Y-102814285D01*
X150030000Y-102738095D01*
X150068095Y-102700000D01*
X150144285Y-102661904D01*
X150296666Y-102623809D01*
X150487142Y-102623809D01*
X150639523Y-102661904D01*
X150715714Y-102700000D01*
X150753809Y-102738095D01*
X150791904Y-102814285D01*
X150791904Y-102890476D01*
X150753809Y-102966666D01*
X150715714Y-103004761D01*
X150639523Y-103042857D01*
X150487142Y-103080952D01*
X150296666Y-103080952D01*
X150144285Y-103042857D01*
X150068095Y-103004761D01*
X150030000Y-102966666D01*
X149991904Y-102890476D01*
X150487142Y-102280952D02*
X150487142Y-101671428D01*
X150791904Y-101976190D02*
X150182380Y-101976190D01*
X143768095Y-102359047D02*
X144568095Y-102359047D01*
X144568095Y-102892380D02*
X144568095Y-102968571D01*
X144530000Y-103044761D01*
X144491904Y-103082857D01*
X144415714Y-103120952D01*
X144263333Y-103159047D01*
X144072857Y-103159047D01*
X143920476Y-103120952D01*
X143844285Y-103082857D01*
X143806190Y-103044761D01*
X143768095Y-102968571D01*
X143768095Y-102892380D01*
X143806190Y-102816190D01*
X143844285Y-102778095D01*
X143920476Y-102740000D01*
X144072857Y-102701904D01*
X144263333Y-102701904D01*
X144415714Y-102740000D01*
X144491904Y-102778095D01*
X144530000Y-102816190D01*
X144568095Y-102892380D01*
X143788095Y-99420000D02*
X144588095Y-99420000D01*
X144588095Y-99953333D02*
X144588095Y-100105714D01*
X144550000Y-100181904D01*
X144473809Y-100258095D01*
X144321428Y-100296190D01*
X144054761Y-100296190D01*
X143902380Y-100258095D01*
X143826190Y-100181904D01*
X143788095Y-100105714D01*
X143788095Y-99953333D01*
X143826190Y-99877142D01*
X143902380Y-99800952D01*
X144054761Y-99762857D01*
X144321428Y-99762857D01*
X144473809Y-99800952D01*
X144550000Y-99877142D01*
X144588095Y-99953333D01*
X144588095Y-100981904D02*
X144588095Y-100829523D01*
X144550000Y-100753333D01*
X144511904Y-100715238D01*
X144397619Y-100639047D01*
X144245238Y-100600952D01*
X143940476Y-100600952D01*
X143864285Y-100639047D01*
X143826190Y-100677142D01*
X143788095Y-100753333D01*
X143788095Y-100905714D01*
X143826190Y-100981904D01*
X143864285Y-101020000D01*
X143940476Y-101058095D01*
X144130952Y-101058095D01*
X144207142Y-101020000D01*
X144245238Y-100981904D01*
X144283333Y-100905714D01*
X144283333Y-100753333D01*
X144245238Y-100677142D01*
X144207142Y-100639047D01*
X144130952Y-100600952D01*
X143738095Y-96880000D02*
X144538095Y-96880000D01*
X144538095Y-97413333D02*
X144538095Y-97565714D01*
X144500000Y-97641904D01*
X144423809Y-97718095D01*
X144271428Y-97756190D01*
X144004761Y-97756190D01*
X143852380Y-97718095D01*
X143776190Y-97641904D01*
X143738095Y-97565714D01*
X143738095Y-97413333D01*
X143776190Y-97337142D01*
X143852380Y-97260952D01*
X144004761Y-97222857D01*
X144271428Y-97222857D01*
X144423809Y-97260952D01*
X144500000Y-97337142D01*
X144538095Y-97413333D01*
X144538095Y-98480000D02*
X144538095Y-98099047D01*
X144157142Y-98060952D01*
X144195238Y-98099047D01*
X144233333Y-98175238D01*
X144233333Y-98365714D01*
X144195238Y-98441904D01*
X144157142Y-98480000D01*
X144080952Y-98518095D01*
X143890476Y-98518095D01*
X143814285Y-98480000D01*
X143776190Y-98441904D01*
X143738095Y-98365714D01*
X143738095Y-98175238D01*
X143776190Y-98099047D01*
X143814285Y-98060952D01*
X143738095Y-94400000D02*
X144538095Y-94400000D01*
X144538095Y-94933333D02*
X144538095Y-95085714D01*
X144500000Y-95161904D01*
X144423809Y-95238095D01*
X144271428Y-95276190D01*
X144004761Y-95276190D01*
X143852380Y-95238095D01*
X143776190Y-95161904D01*
X143738095Y-95085714D01*
X143738095Y-94933333D01*
X143776190Y-94857142D01*
X143852380Y-94780952D01*
X144004761Y-94742857D01*
X144271428Y-94742857D01*
X144423809Y-94780952D01*
X144500000Y-94857142D01*
X144538095Y-94933333D01*
X144271428Y-95961904D02*
X143738095Y-95961904D01*
X144576190Y-95771428D02*
X144004761Y-95580952D01*
X144004761Y-96076190D01*
X143738095Y-91880000D02*
X144538095Y-91880000D01*
X144538095Y-92413333D02*
X144538095Y-92565714D01*
X144500000Y-92641904D01*
X144423809Y-92718095D01*
X144271428Y-92756190D01*
X144004761Y-92756190D01*
X143852380Y-92718095D01*
X143776190Y-92641904D01*
X143738095Y-92565714D01*
X143738095Y-92413333D01*
X143776190Y-92337142D01*
X143852380Y-92260952D01*
X144004761Y-92222857D01*
X144271428Y-92222857D01*
X144423809Y-92260952D01*
X144500000Y-92337142D01*
X144538095Y-92413333D01*
X144538095Y-93022857D02*
X144538095Y-93518095D01*
X144233333Y-93251428D01*
X144233333Y-93365714D01*
X144195238Y-93441904D01*
X144157142Y-93480000D01*
X144080952Y-93518095D01*
X143890476Y-93518095D01*
X143814285Y-93480000D01*
X143776190Y-93441904D01*
X143738095Y-93365714D01*
X143738095Y-93137142D01*
X143776190Y-93060952D01*
X143814285Y-93022857D01*
X143768095Y-89390000D02*
X144568095Y-89390000D01*
X144568095Y-89923333D02*
X144568095Y-90075714D01*
X144530000Y-90151904D01*
X144453809Y-90228095D01*
X144301428Y-90266190D01*
X144034761Y-90266190D01*
X143882380Y-90228095D01*
X143806190Y-90151904D01*
X143768095Y-90075714D01*
X143768095Y-89923333D01*
X143806190Y-89847142D01*
X143882380Y-89770952D01*
X144034761Y-89732857D01*
X144301428Y-89732857D01*
X144453809Y-89770952D01*
X144530000Y-89847142D01*
X144568095Y-89923333D01*
X144491904Y-90570952D02*
X144530000Y-90609047D01*
X144568095Y-90685238D01*
X144568095Y-90875714D01*
X144530000Y-90951904D01*
X144491904Y-90990000D01*
X144415714Y-91028095D01*
X144339523Y-91028095D01*
X144225238Y-90990000D01*
X143768095Y-90532857D01*
X143768095Y-91028095D01*
X143758095Y-86740000D02*
X144558095Y-86740000D01*
X144558095Y-87273333D02*
X144558095Y-87425714D01*
X144520000Y-87501904D01*
X144443809Y-87578095D01*
X144291428Y-87616190D01*
X144024761Y-87616190D01*
X143872380Y-87578095D01*
X143796190Y-87501904D01*
X143758095Y-87425714D01*
X143758095Y-87273333D01*
X143796190Y-87197142D01*
X143872380Y-87120952D01*
X144024761Y-87082857D01*
X144291428Y-87082857D01*
X144443809Y-87120952D01*
X144520000Y-87197142D01*
X144558095Y-87273333D01*
X143758095Y-88378095D02*
X143758095Y-87920952D01*
X143758095Y-88149523D02*
X144558095Y-88149523D01*
X144443809Y-88073333D01*
X144367619Y-87997142D01*
X144329523Y-87920952D01*
X143768095Y-84230000D02*
X144568095Y-84230000D01*
X144568095Y-84763333D02*
X144568095Y-84915714D01*
X144530000Y-84991904D01*
X144453809Y-85068095D01*
X144301428Y-85106190D01*
X144034761Y-85106190D01*
X143882380Y-85068095D01*
X143806190Y-84991904D01*
X143768095Y-84915714D01*
X143768095Y-84763333D01*
X143806190Y-84687142D01*
X143882380Y-84610952D01*
X144034761Y-84572857D01*
X144301428Y-84572857D01*
X144453809Y-84610952D01*
X144530000Y-84687142D01*
X144568095Y-84763333D01*
X144568095Y-85601428D02*
X144568095Y-85677619D01*
X144530000Y-85753809D01*
X144491904Y-85791904D01*
X144415714Y-85830000D01*
X144263333Y-85868095D01*
X144072857Y-85868095D01*
X143920476Y-85830000D01*
X143844285Y-85791904D01*
X143806190Y-85753809D01*
X143768095Y-85677619D01*
X143768095Y-85601428D01*
X143806190Y-85525238D01*
X143844285Y-85487142D01*
X143920476Y-85449047D01*
X144072857Y-85410952D01*
X144263333Y-85410952D01*
X144415714Y-85449047D01*
X144491904Y-85487142D01*
X144530000Y-85525238D01*
X144568095Y-85601428D01*
X144470000Y-81900476D02*
X144508095Y-81824285D01*
X144508095Y-81710000D01*
X144470000Y-81595714D01*
X144393809Y-81519523D01*
X144317619Y-81481428D01*
X144165238Y-81443333D01*
X144050952Y-81443333D01*
X143898571Y-81481428D01*
X143822380Y-81519523D01*
X143746190Y-81595714D01*
X143708095Y-81710000D01*
X143708095Y-81786190D01*
X143746190Y-81900476D01*
X143784285Y-81938571D01*
X144050952Y-81938571D01*
X144050952Y-81786190D01*
X143708095Y-82281428D02*
X144508095Y-82281428D01*
X143708095Y-82738571D01*
X144508095Y-82738571D01*
X143708095Y-83119523D02*
X144508095Y-83119523D01*
X144508095Y-83310000D01*
X144470000Y-83424285D01*
X144393809Y-83500476D01*
X144317619Y-83538571D01*
X144165238Y-83576666D01*
X144050952Y-83576666D01*
X143898571Y-83538571D01*
X143822380Y-83500476D01*
X143746190Y-83424285D01*
X143708095Y-83310000D01*
X143708095Y-83119523D01*
X144238095Y-78763333D02*
X143438095Y-79030000D01*
X144238095Y-79296666D01*
X143514285Y-80020476D02*
X143476190Y-79982380D01*
X143438095Y-79868095D01*
X143438095Y-79791904D01*
X143476190Y-79677619D01*
X143552380Y-79601428D01*
X143628571Y-79563333D01*
X143780952Y-79525238D01*
X143895238Y-79525238D01*
X144047619Y-79563333D01*
X144123809Y-79601428D01*
X144200000Y-79677619D01*
X144238095Y-79791904D01*
X144238095Y-79868095D01*
X144200000Y-79982380D01*
X144161904Y-80020476D01*
X143514285Y-80820476D02*
X143476190Y-80782380D01*
X143438095Y-80668095D01*
X143438095Y-80591904D01*
X143476190Y-80477619D01*
X143552380Y-80401428D01*
X143628571Y-80363333D01*
X143780952Y-80325238D01*
X143895238Y-80325238D01*
X144047619Y-80363333D01*
X144123809Y-80401428D01*
X144200000Y-80477619D01*
X144238095Y-80591904D01*
X144238095Y-80668095D01*
X144200000Y-80782380D01*
X144161904Y-80820476D01*
X148680000Y-93685000D02*
X148930000Y-93685000D01*
X145710000Y-90465000D02*
X145710000Y-90715000D01*
X145960000Y-90465000D02*
X145710000Y-90465000D01*
X148930000Y-90465000D02*
X148930000Y-90715000D01*
X148680000Y-90465000D02*
X148930000Y-90465000D01*
X145710000Y-93685000D02*
X145710000Y-93435000D01*
X145960000Y-93685000D02*
X145710000Y-93685000D01*
X147510000Y-80162779D02*
X147510000Y-79837221D01*
X146490000Y-80162779D02*
X146490000Y-79837221D01*
X145510000Y-80162779D02*
X145510000Y-79837221D01*
X144490000Y-80162779D02*
X144490000Y-79837221D01*
D11*
X152200000Y-76400000D02*
X147700000Y-76400000D01*
X152200000Y-73400000D02*
X152200000Y-76400000D01*
X143200000Y-73400000D02*
X152200000Y-73400000D01*
X143200000Y-76400000D02*
X143200000Y-73400000D01*
X147700000Y-76400000D02*
X143200000Y-76400000D01*
X145700000Y-75900000D02*
X145700000Y-76400000D01*
X149700000Y-75900000D02*
X145700000Y-75900000D01*
X149700000Y-76400000D02*
X149700000Y-75900000D01*
D10*
X140910000Y-78560000D02*
X142240000Y-78560000D01*
X140910000Y-79890000D02*
X140910000Y-78560000D01*
X140910000Y-81160000D02*
X143570000Y-81160000D01*
X143570000Y-81160000D02*
X143570000Y-104080000D01*
X140910000Y-81160000D02*
X140910000Y-104080000D01*
X140910000Y-104080000D02*
X143570000Y-104080000D01*
X153730000Y-104200000D02*
X152400000Y-104200000D01*
X153730000Y-102870000D02*
X153730000Y-104200000D01*
X153730000Y-101600000D02*
X151070000Y-101600000D01*
X151070000Y-101600000D02*
X151070000Y-78680000D01*
X153730000Y-101600000D02*
X153730000Y-78680000D01*
X153730000Y-78680000D02*
X151070000Y-78680000D01*
X147510000Y-98262779D02*
X147510000Y-97937221D01*
X146490000Y-98262779D02*
X146490000Y-97937221D01*
X148090000Y-97937221D02*
X148090000Y-98262779D01*
X149110000Y-97937221D02*
X149110000Y-98262779D01*
X146537221Y-87310000D02*
X146862779Y-87310000D01*
X146537221Y-86290000D02*
X146862779Y-86290000D01*
D11*
X146558095Y-94347380D02*
X146558095Y-95156904D01*
X146605714Y-95252142D01*
X146653333Y-95299761D01*
X146748571Y-95347380D01*
X146939047Y-95347380D01*
X147034285Y-95299761D01*
X147081904Y-95252142D01*
X147129523Y-95156904D01*
X147129523Y-94347380D01*
X148129523Y-95347380D02*
X147558095Y-95347380D01*
X147843809Y-95347380D02*
X147843809Y-94347380D01*
X147748571Y-94490238D01*
X147653333Y-94585476D01*
X147558095Y-94633095D01*
X147592380Y-82716666D02*
X147116190Y-83050000D01*
X147592380Y-83288095D02*
X146592380Y-83288095D01*
X146592380Y-82907142D01*
X146640000Y-82811904D01*
X146687619Y-82764285D01*
X146782857Y-82716666D01*
X146925714Y-82716666D01*
X147020952Y-82764285D01*
X147068571Y-82811904D01*
X147116190Y-82907142D01*
X147116190Y-83288095D01*
X146687619Y-82335714D02*
X146640000Y-82288095D01*
X146592380Y-82192857D01*
X146592380Y-81954761D01*
X146640000Y-81859523D01*
X146687619Y-81811904D01*
X146782857Y-81764285D01*
X146878095Y-81764285D01*
X147020952Y-81811904D01*
X147592380Y-82383333D01*
X147592380Y-81764285D01*
X145632380Y-82636666D02*
X145156190Y-82970000D01*
X145632380Y-83208095D02*
X144632380Y-83208095D01*
X144632380Y-82827142D01*
X144680000Y-82731904D01*
X144727619Y-82684285D01*
X144822857Y-82636666D01*
X144965714Y-82636666D01*
X145060952Y-82684285D01*
X145108571Y-82731904D01*
X145156190Y-82827142D01*
X145156190Y-83208095D01*
X145632380Y-81684285D02*
X145632380Y-82255714D01*
X145632380Y-81970000D02*
X144632380Y-81970000D01*
X144775238Y-82065238D01*
X144870476Y-82160476D01*
X144918095Y-82255714D01*
X141612380Y-75233333D02*
X142326666Y-75233333D01*
X142469523Y-75280952D01*
X142564761Y-75376190D01*
X142612380Y-75519047D01*
X142612380Y-75614285D01*
X141612380Y-74852380D02*
X141612380Y-74233333D01*
X141993333Y-74566666D01*
X141993333Y-74423809D01*
X142040952Y-74328571D01*
X142088571Y-74280952D01*
X142183809Y-74233333D01*
X142421904Y-74233333D01*
X142517142Y-74280952D01*
X142564761Y-74328571D01*
X142612380Y-74423809D01*
X142612380Y-74709523D01*
X142564761Y-74804761D01*
X142517142Y-74852380D01*
X150921904Y-76670000D02*
X150826666Y-76622380D01*
X150683809Y-76622380D01*
X150540952Y-76670000D01*
X150445714Y-76765238D01*
X150398095Y-76860476D01*
X150350476Y-77050952D01*
X150350476Y-77193809D01*
X150398095Y-77384285D01*
X150445714Y-77479523D01*
X150540952Y-77574761D01*
X150683809Y-77622380D01*
X150779047Y-77622380D01*
X150921904Y-77574761D01*
X150969523Y-77527142D01*
X150969523Y-77193809D01*
X150779047Y-77193809D01*
X148336666Y-76642380D02*
X148670000Y-77642380D01*
X149003333Y-76642380D01*
X146448095Y-77662380D02*
X146448095Y-76662380D01*
X146686190Y-76662380D01*
X146829047Y-76710000D01*
X146924285Y-76805238D01*
X146971904Y-76900476D01*
X147019523Y-77090952D01*
X147019523Y-77233809D01*
X146971904Y-77424285D01*
X146924285Y-77519523D01*
X146829047Y-77614761D01*
X146686190Y-77662380D01*
X146448095Y-77662380D01*
X144999523Y-77587142D02*
X144951904Y-77634761D01*
X144809047Y-77682380D01*
X144713809Y-77682380D01*
X144570952Y-77634761D01*
X144475714Y-77539523D01*
X144428095Y-77444285D01*
X144380476Y-77253809D01*
X144380476Y-77110952D01*
X144428095Y-76920476D01*
X144475714Y-76825238D01*
X144570952Y-76730000D01*
X144713809Y-76682380D01*
X144809047Y-76682380D01*
X144951904Y-76730000D01*
X144999523Y-76777619D01*
X141906666Y-77452380D02*
X141906666Y-78166666D01*
X141859047Y-78309523D01*
X141763809Y-78404761D01*
X141620952Y-78452380D01*
X141525714Y-78452380D01*
X142335238Y-77547619D02*
X142382857Y-77500000D01*
X142478095Y-77452380D01*
X142716190Y-77452380D01*
X142811428Y-77500000D01*
X142859047Y-77547619D01*
X142906666Y-77642857D01*
X142906666Y-77738095D01*
X142859047Y-77880952D01*
X142287619Y-78452380D01*
X142906666Y-78452380D01*
X152066666Y-77452380D02*
X152066666Y-78166666D01*
X152019047Y-78309523D01*
X151923809Y-78404761D01*
X151780952Y-78452380D01*
X151685714Y-78452380D01*
X153066666Y-78452380D02*
X152495238Y-78452380D01*
X152780952Y-78452380D02*
X152780952Y-77452380D01*
X152685714Y-77595238D01*
X152590476Y-77690476D01*
X152495238Y-77738095D01*
X146988571Y-101708333D02*
X146988571Y-102041666D01*
X147512380Y-102041666D02*
X146512380Y-102041666D01*
X146512380Y-101565476D01*
X146988571Y-100851190D02*
X147036190Y-100708333D01*
X147083809Y-100660714D01*
X147179047Y-100613095D01*
X147321904Y-100613095D01*
X147417142Y-100660714D01*
X147464761Y-100708333D01*
X147512380Y-100803571D01*
X147512380Y-101184523D01*
X146512380Y-101184523D01*
X146512380Y-100851190D01*
X146560000Y-100755952D01*
X146607619Y-100708333D01*
X146702857Y-100660714D01*
X146798095Y-100660714D01*
X146893333Y-100708333D01*
X146940952Y-100755952D01*
X146988571Y-100851190D01*
X146988571Y-101184523D01*
X147512380Y-99660714D02*
X147512380Y-100232142D01*
X147512380Y-99946428D02*
X146512380Y-99946428D01*
X146655238Y-100041666D01*
X146750476Y-100136904D01*
X146798095Y-100232142D01*
X148957142Y-100806666D02*
X149004761Y-100854285D01*
X149052380Y-100997142D01*
X149052380Y-101092380D01*
X149004761Y-101235238D01*
X148909523Y-101330476D01*
X148814285Y-101378095D01*
X148623809Y-101425714D01*
X148480952Y-101425714D01*
X148290476Y-101378095D01*
X148195238Y-101330476D01*
X148100000Y-101235238D01*
X148052380Y-101092380D01*
X148052380Y-100997142D01*
X148100000Y-100854285D01*
X148147619Y-100806666D01*
X148147619Y-100425714D02*
X148100000Y-100378095D01*
X148052380Y-100282857D01*
X148052380Y-100044761D01*
X148100000Y-99949523D01*
X148147619Y-99901904D01*
X148242857Y-99854285D01*
X148338095Y-99854285D01*
X148480952Y-99901904D01*
X149052380Y-100473333D01*
X149052380Y-99854285D01*
X146533333Y-85727142D02*
X146485714Y-85774761D01*
X146342857Y-85822380D01*
X146247619Y-85822380D01*
X146104761Y-85774761D01*
X146009523Y-85679523D01*
X145961904Y-85584285D01*
X145914285Y-85393809D01*
X145914285Y-85250952D01*
X145961904Y-85060476D01*
X146009523Y-84965238D01*
X146104761Y-84870000D01*
X146247619Y-84822380D01*
X146342857Y-84822380D01*
X146485714Y-84870000D01*
X146533333Y-84917619D01*
X147485714Y-85822380D02*
X146914285Y-85822380D01*
X147200000Y-85822380D02*
X147200000Y-84822380D01*
X147104761Y-84965238D01*
X147009523Y-85060476D01*
X146914285Y-85108095D01*
%LPC*%
D12*
X147320000Y-92075000D03*
D13*
X148320000Y-93575000D03*
D14*
G36*
X148254999Y-94000754D02*
G01*
X148247195Y-93999985D01*
X148237392Y-93998035D01*
X148229889Y-93995759D01*
X148220655Y-93991935D01*
X148213739Y-93988239D01*
X148205420Y-93982680D01*
X148199359Y-93977705D01*
X148192295Y-93970641D01*
X148187320Y-93964580D01*
X148181761Y-93956261D01*
X148178065Y-93949345D01*
X148174241Y-93940111D01*
X148171965Y-93932608D01*
X148170015Y-93922805D01*
X148169246Y-93915001D01*
X148169000Y-93910000D01*
X148169000Y-93240000D01*
X148169246Y-93234999D01*
X148170015Y-93227195D01*
X148171965Y-93217392D01*
X148174241Y-93209889D01*
X148178065Y-93200655D01*
X148181761Y-93193739D01*
X148187320Y-93185420D01*
X148192295Y-93179359D01*
X148199359Y-93172295D01*
X148205420Y-93167320D01*
X148213739Y-93161761D01*
X148220655Y-93158065D01*
X148229889Y-93154241D01*
X148237392Y-93151965D01*
X148247195Y-93150015D01*
X148254999Y-93149246D01*
X148260000Y-93149000D01*
X148283431Y-93149000D01*
X148288432Y-93149246D01*
X148296236Y-93150015D01*
X148306039Y-93151965D01*
X148313542Y-93154241D01*
X148322776Y-93158065D01*
X148329692Y-93161761D01*
X148338011Y-93167320D01*
X148344072Y-93172295D01*
X148347777Y-93175654D01*
X148444346Y-93272223D01*
X148447705Y-93275928D01*
X148452680Y-93281989D01*
X148458239Y-93290308D01*
X148461935Y-93297224D01*
X148465759Y-93306458D01*
X148468035Y-93313961D01*
X148469985Y-93323764D01*
X148470754Y-93331568D01*
X148471000Y-93336569D01*
X148471000Y-93910000D01*
X148470754Y-93915001D01*
X148469985Y-93922805D01*
X148468035Y-93932608D01*
X148465759Y-93940111D01*
X148461935Y-93949345D01*
X148458239Y-93956261D01*
X148452680Y-93964580D01*
X148447705Y-93970641D01*
X148440641Y-93977705D01*
X148434580Y-93982680D01*
X148426261Y-93988239D01*
X148419345Y-93991935D01*
X148410111Y-93995759D01*
X148402608Y-93998035D01*
X148392805Y-93999985D01*
X148385001Y-94000754D01*
X148380000Y-94001000D01*
X148260000Y-94001000D01*
X148254999Y-94000754D01*
X148254999Y-94000754D01*
G37*
G36*
X148002900Y-93149364D02*
G01*
X148010229Y-93150451D01*
X148017416Y-93152251D01*
X148024393Y-93154747D01*
X148031090Y-93157915D01*
X148037446Y-93161724D01*
X148043397Y-93166138D01*
X148048887Y-93171113D01*
X148053862Y-93176603D01*
X148058276Y-93182554D01*
X148062085Y-93188910D01*
X148065253Y-93195607D01*
X148067749Y-93202584D01*
X148069549Y-93209771D01*
X148070636Y-93217100D01*
X148071000Y-93224500D01*
X148071000Y-93925500D01*
X148070636Y-93932900D01*
X148069549Y-93940229D01*
X148067749Y-93947416D01*
X148065253Y-93954393D01*
X148062085Y-93961090D01*
X148058276Y-93967446D01*
X148053862Y-93973397D01*
X148048887Y-93978887D01*
X148043397Y-93983862D01*
X148037446Y-93988276D01*
X148031090Y-93992085D01*
X148024393Y-93995253D01*
X148017416Y-93997749D01*
X148010229Y-93999549D01*
X148002900Y-94000636D01*
X147995500Y-94001000D01*
X147844500Y-94001000D01*
X147837100Y-94000636D01*
X147829771Y-93999549D01*
X147822584Y-93997749D01*
X147815607Y-93995253D01*
X147808910Y-93992085D01*
X147802554Y-93988276D01*
X147796603Y-93983862D01*
X147791113Y-93978887D01*
X147786138Y-93973397D01*
X147781724Y-93967446D01*
X147777915Y-93961090D01*
X147774747Y-93954393D01*
X147772251Y-93947416D01*
X147770451Y-93940229D01*
X147769364Y-93932900D01*
X147769000Y-93925500D01*
X147769000Y-93224500D01*
X147769364Y-93217100D01*
X147770451Y-93209771D01*
X147772251Y-93202584D01*
X147774747Y-93195607D01*
X147777915Y-93188910D01*
X147781724Y-93182554D01*
X147786138Y-93176603D01*
X147791113Y-93171113D01*
X147796603Y-93166138D01*
X147802554Y-93161724D01*
X147808910Y-93157915D01*
X147815607Y-93154747D01*
X147822584Y-93152251D01*
X147829771Y-93150451D01*
X147837100Y-93149364D01*
X147844500Y-93149000D01*
X147995500Y-93149000D01*
X148002900Y-93149364D01*
X148002900Y-93149364D01*
G37*
D15*
X147920000Y-93575000D03*
D14*
G36*
X147602900Y-93149364D02*
G01*
X147610229Y-93150451D01*
X147617416Y-93152251D01*
X147624393Y-93154747D01*
X147631090Y-93157915D01*
X147637446Y-93161724D01*
X147643397Y-93166138D01*
X147648887Y-93171113D01*
X147653862Y-93176603D01*
X147658276Y-93182554D01*
X147662085Y-93188910D01*
X147665253Y-93195607D01*
X147667749Y-93202584D01*
X147669549Y-93209771D01*
X147670636Y-93217100D01*
X147671000Y-93224500D01*
X147671000Y-93925500D01*
X147670636Y-93932900D01*
X147669549Y-93940229D01*
X147667749Y-93947416D01*
X147665253Y-93954393D01*
X147662085Y-93961090D01*
X147658276Y-93967446D01*
X147653862Y-93973397D01*
X147648887Y-93978887D01*
X147643397Y-93983862D01*
X147637446Y-93988276D01*
X147631090Y-93992085D01*
X147624393Y-93995253D01*
X147617416Y-93997749D01*
X147610229Y-93999549D01*
X147602900Y-94000636D01*
X147595500Y-94001000D01*
X147444500Y-94001000D01*
X147437100Y-94000636D01*
X147429771Y-93999549D01*
X147422584Y-93997749D01*
X147415607Y-93995253D01*
X147408910Y-93992085D01*
X147402554Y-93988276D01*
X147396603Y-93983862D01*
X147391113Y-93978887D01*
X147386138Y-93973397D01*
X147381724Y-93967446D01*
X147377915Y-93961090D01*
X147374747Y-93954393D01*
X147372251Y-93947416D01*
X147370451Y-93940229D01*
X147369364Y-93932900D01*
X147369000Y-93925500D01*
X147369000Y-93224500D01*
X147369364Y-93217100D01*
X147370451Y-93209771D01*
X147372251Y-93202584D01*
X147374747Y-93195607D01*
X147377915Y-93188910D01*
X147381724Y-93182554D01*
X147386138Y-93176603D01*
X147391113Y-93171113D01*
X147396603Y-93166138D01*
X147402554Y-93161724D01*
X147408910Y-93157915D01*
X147415607Y-93154747D01*
X147422584Y-93152251D01*
X147429771Y-93150451D01*
X147437100Y-93149364D01*
X147444500Y-93149000D01*
X147595500Y-93149000D01*
X147602900Y-93149364D01*
X147602900Y-93149364D01*
G37*
D15*
X147520000Y-93575000D03*
D14*
G36*
X147202900Y-93149364D02*
G01*
X147210229Y-93150451D01*
X147217416Y-93152251D01*
X147224393Y-93154747D01*
X147231090Y-93157915D01*
X147237446Y-93161724D01*
X147243397Y-93166138D01*
X147248887Y-93171113D01*
X147253862Y-93176603D01*
X147258276Y-93182554D01*
X147262085Y-93188910D01*
X147265253Y-93195607D01*
X147267749Y-93202584D01*
X147269549Y-93209771D01*
X147270636Y-93217100D01*
X147271000Y-93224500D01*
X147271000Y-93925500D01*
X147270636Y-93932900D01*
X147269549Y-93940229D01*
X147267749Y-93947416D01*
X147265253Y-93954393D01*
X147262085Y-93961090D01*
X147258276Y-93967446D01*
X147253862Y-93973397D01*
X147248887Y-93978887D01*
X147243397Y-93983862D01*
X147237446Y-93988276D01*
X147231090Y-93992085D01*
X147224393Y-93995253D01*
X147217416Y-93997749D01*
X147210229Y-93999549D01*
X147202900Y-94000636D01*
X147195500Y-94001000D01*
X147044500Y-94001000D01*
X147037100Y-94000636D01*
X147029771Y-93999549D01*
X147022584Y-93997749D01*
X147015607Y-93995253D01*
X147008910Y-93992085D01*
X147002554Y-93988276D01*
X146996603Y-93983862D01*
X146991113Y-93978887D01*
X146986138Y-93973397D01*
X146981724Y-93967446D01*
X146977915Y-93961090D01*
X146974747Y-93954393D01*
X146972251Y-93947416D01*
X146970451Y-93940229D01*
X146969364Y-93932900D01*
X146969000Y-93925500D01*
X146969000Y-93224500D01*
X146969364Y-93217100D01*
X146970451Y-93209771D01*
X146972251Y-93202584D01*
X146974747Y-93195607D01*
X146977915Y-93188910D01*
X146981724Y-93182554D01*
X146986138Y-93176603D01*
X146991113Y-93171113D01*
X146996603Y-93166138D01*
X147002554Y-93161724D01*
X147008910Y-93157915D01*
X147015607Y-93154747D01*
X147022584Y-93152251D01*
X147029771Y-93150451D01*
X147037100Y-93149364D01*
X147044500Y-93149000D01*
X147195500Y-93149000D01*
X147202900Y-93149364D01*
X147202900Y-93149364D01*
G37*
D15*
X147120000Y-93575000D03*
D14*
G36*
X146802900Y-93149364D02*
G01*
X146810229Y-93150451D01*
X146817416Y-93152251D01*
X146824393Y-93154747D01*
X146831090Y-93157915D01*
X146837446Y-93161724D01*
X146843397Y-93166138D01*
X146848887Y-93171113D01*
X146853862Y-93176603D01*
X146858276Y-93182554D01*
X146862085Y-93188910D01*
X146865253Y-93195607D01*
X146867749Y-93202584D01*
X146869549Y-93209771D01*
X146870636Y-93217100D01*
X146871000Y-93224500D01*
X146871000Y-93925500D01*
X146870636Y-93932900D01*
X146869549Y-93940229D01*
X146867749Y-93947416D01*
X146865253Y-93954393D01*
X146862085Y-93961090D01*
X146858276Y-93967446D01*
X146853862Y-93973397D01*
X146848887Y-93978887D01*
X146843397Y-93983862D01*
X146837446Y-93988276D01*
X146831090Y-93992085D01*
X146824393Y-93995253D01*
X146817416Y-93997749D01*
X146810229Y-93999549D01*
X146802900Y-94000636D01*
X146795500Y-94001000D01*
X146644500Y-94001000D01*
X146637100Y-94000636D01*
X146629771Y-93999549D01*
X146622584Y-93997749D01*
X146615607Y-93995253D01*
X146608910Y-93992085D01*
X146602554Y-93988276D01*
X146596603Y-93983862D01*
X146591113Y-93978887D01*
X146586138Y-93973397D01*
X146581724Y-93967446D01*
X146577915Y-93961090D01*
X146574747Y-93954393D01*
X146572251Y-93947416D01*
X146570451Y-93940229D01*
X146569364Y-93932900D01*
X146569000Y-93925500D01*
X146569000Y-93224500D01*
X146569364Y-93217100D01*
X146570451Y-93209771D01*
X146572251Y-93202584D01*
X146574747Y-93195607D01*
X146577915Y-93188910D01*
X146581724Y-93182554D01*
X146586138Y-93176603D01*
X146591113Y-93171113D01*
X146596603Y-93166138D01*
X146602554Y-93161724D01*
X146608910Y-93157915D01*
X146615607Y-93154747D01*
X146622584Y-93152251D01*
X146629771Y-93150451D01*
X146637100Y-93149364D01*
X146644500Y-93149000D01*
X146795500Y-93149000D01*
X146802900Y-93149364D01*
X146802900Y-93149364D01*
G37*
D15*
X146720000Y-93575000D03*
D13*
X146320000Y-93575000D03*
D14*
G36*
X146254999Y-94000754D02*
G01*
X146247195Y-93999985D01*
X146237392Y-93998035D01*
X146229889Y-93995759D01*
X146220655Y-93991935D01*
X146213739Y-93988239D01*
X146205420Y-93982680D01*
X146199359Y-93977705D01*
X146192295Y-93970641D01*
X146187320Y-93964580D01*
X146181761Y-93956261D01*
X146178065Y-93949345D01*
X146174241Y-93940111D01*
X146171965Y-93932608D01*
X146170015Y-93922805D01*
X146169246Y-93915001D01*
X146169000Y-93910000D01*
X146169000Y-93336569D01*
X146169246Y-93331568D01*
X146170015Y-93323764D01*
X146171965Y-93313961D01*
X146174241Y-93306458D01*
X146178065Y-93297224D01*
X146181761Y-93290308D01*
X146187320Y-93281989D01*
X146192295Y-93275928D01*
X146195654Y-93272223D01*
X146292223Y-93175654D01*
X146295928Y-93172295D01*
X146301989Y-93167320D01*
X146310308Y-93161761D01*
X146317224Y-93158065D01*
X146326458Y-93154241D01*
X146333961Y-93151965D01*
X146343764Y-93150015D01*
X146351568Y-93149246D01*
X146356569Y-93149000D01*
X146380000Y-93149000D01*
X146385001Y-93149246D01*
X146392805Y-93150015D01*
X146402608Y-93151965D01*
X146410111Y-93154241D01*
X146419345Y-93158065D01*
X146426261Y-93161761D01*
X146434580Y-93167320D01*
X146440641Y-93172295D01*
X146447705Y-93179359D01*
X146452680Y-93185420D01*
X146458239Y-93193739D01*
X146461935Y-93200655D01*
X146465759Y-93209889D01*
X146468035Y-93217392D01*
X146469985Y-93227195D01*
X146470754Y-93234999D01*
X146471000Y-93240000D01*
X146471000Y-93910000D01*
X146470754Y-93915001D01*
X146469985Y-93922805D01*
X146468035Y-93932608D01*
X146465759Y-93940111D01*
X146461935Y-93949345D01*
X146458239Y-93956261D01*
X146452680Y-93964580D01*
X146447705Y-93970641D01*
X146440641Y-93977705D01*
X146434580Y-93982680D01*
X146426261Y-93988239D01*
X146419345Y-93991935D01*
X146410111Y-93995759D01*
X146402608Y-93998035D01*
X146392805Y-93999985D01*
X146385001Y-94000754D01*
X146380000Y-94001000D01*
X146260000Y-94001000D01*
X146254999Y-94000754D01*
X146254999Y-94000754D01*
G37*
D13*
X145820000Y-93075000D03*
D14*
G36*
X145479999Y-93225754D02*
G01*
X145472195Y-93224985D01*
X145462392Y-93223035D01*
X145454889Y-93220759D01*
X145445655Y-93216935D01*
X145438739Y-93213239D01*
X145430420Y-93207680D01*
X145424359Y-93202705D01*
X145417295Y-93195641D01*
X145412320Y-93189580D01*
X145406761Y-93181261D01*
X145403065Y-93174345D01*
X145399241Y-93165111D01*
X145396965Y-93157608D01*
X145395015Y-93147805D01*
X145394246Y-93140001D01*
X145394000Y-93135000D01*
X145394000Y-93015000D01*
X145394246Y-93009999D01*
X145395015Y-93002195D01*
X145396965Y-92992392D01*
X145399241Y-92984889D01*
X145403065Y-92975655D01*
X145406761Y-92968739D01*
X145412320Y-92960420D01*
X145417295Y-92954359D01*
X145424359Y-92947295D01*
X145430420Y-92942320D01*
X145438739Y-92936761D01*
X145445655Y-92933065D01*
X145454889Y-92929241D01*
X145462392Y-92926965D01*
X145472195Y-92925015D01*
X145479999Y-92924246D01*
X145485000Y-92924000D01*
X146155000Y-92924000D01*
X146160001Y-92924246D01*
X146167805Y-92925015D01*
X146177608Y-92926965D01*
X146185111Y-92929241D01*
X146194345Y-92933065D01*
X146201261Y-92936761D01*
X146209580Y-92942320D01*
X146215641Y-92947295D01*
X146222705Y-92954359D01*
X146227680Y-92960420D01*
X146233239Y-92968739D01*
X146236935Y-92975655D01*
X146240759Y-92984889D01*
X146243035Y-92992392D01*
X146244985Y-93002195D01*
X146245754Y-93009999D01*
X146246000Y-93015000D01*
X146246000Y-93038431D01*
X146245754Y-93043432D01*
X146244985Y-93051236D01*
X146243035Y-93061039D01*
X146240759Y-93068542D01*
X146236935Y-93077776D01*
X146233239Y-93084692D01*
X146227680Y-93093011D01*
X146222705Y-93099072D01*
X146219346Y-93102777D01*
X146122777Y-93199346D01*
X146119072Y-93202705D01*
X146113011Y-93207680D01*
X146104692Y-93213239D01*
X146097776Y-93216935D01*
X146088542Y-93220759D01*
X146081039Y-93223035D01*
X146071236Y-93224985D01*
X146063432Y-93225754D01*
X146058431Y-93226000D01*
X145485000Y-93226000D01*
X145479999Y-93225754D01*
X145479999Y-93225754D01*
G37*
G36*
X146177900Y-92524364D02*
G01*
X146185229Y-92525451D01*
X146192416Y-92527251D01*
X146199393Y-92529747D01*
X146206090Y-92532915D01*
X146212446Y-92536724D01*
X146218397Y-92541138D01*
X146223887Y-92546113D01*
X146228862Y-92551603D01*
X146233276Y-92557554D01*
X146237085Y-92563910D01*
X146240253Y-92570607D01*
X146242749Y-92577584D01*
X146244549Y-92584771D01*
X146245636Y-92592100D01*
X146246000Y-92599500D01*
X146246000Y-92750500D01*
X146245636Y-92757900D01*
X146244549Y-92765229D01*
X146242749Y-92772416D01*
X146240253Y-92779393D01*
X146237085Y-92786090D01*
X146233276Y-92792446D01*
X146228862Y-92798397D01*
X146223887Y-92803887D01*
X146218397Y-92808862D01*
X146212446Y-92813276D01*
X146206090Y-92817085D01*
X146199393Y-92820253D01*
X146192416Y-92822749D01*
X146185229Y-92824549D01*
X146177900Y-92825636D01*
X146170500Y-92826000D01*
X145469500Y-92826000D01*
X145462100Y-92825636D01*
X145454771Y-92824549D01*
X145447584Y-92822749D01*
X145440607Y-92820253D01*
X145433910Y-92817085D01*
X145427554Y-92813276D01*
X145421603Y-92808862D01*
X145416113Y-92803887D01*
X145411138Y-92798397D01*
X145406724Y-92792446D01*
X145402915Y-92786090D01*
X145399747Y-92779393D01*
X145397251Y-92772416D01*
X145395451Y-92765229D01*
X145394364Y-92757900D01*
X145394000Y-92750500D01*
X145394000Y-92599500D01*
X145394364Y-92592100D01*
X145395451Y-92584771D01*
X145397251Y-92577584D01*
X145399747Y-92570607D01*
X145402915Y-92563910D01*
X145406724Y-92557554D01*
X145411138Y-92551603D01*
X145416113Y-92546113D01*
X145421603Y-92541138D01*
X145427554Y-92536724D01*
X145433910Y-92532915D01*
X145440607Y-92529747D01*
X145447584Y-92527251D01*
X145454771Y-92525451D01*
X145462100Y-92524364D01*
X145469500Y-92524000D01*
X146170500Y-92524000D01*
X146177900Y-92524364D01*
X146177900Y-92524364D01*
G37*
D15*
X145820000Y-92675000D03*
D14*
G36*
X146177900Y-92124364D02*
G01*
X146185229Y-92125451D01*
X146192416Y-92127251D01*
X146199393Y-92129747D01*
X146206090Y-92132915D01*
X146212446Y-92136724D01*
X146218397Y-92141138D01*
X146223887Y-92146113D01*
X146228862Y-92151603D01*
X146233276Y-92157554D01*
X146237085Y-92163910D01*
X146240253Y-92170607D01*
X146242749Y-92177584D01*
X146244549Y-92184771D01*
X146245636Y-92192100D01*
X146246000Y-92199500D01*
X146246000Y-92350500D01*
X146245636Y-92357900D01*
X146244549Y-92365229D01*
X146242749Y-92372416D01*
X146240253Y-92379393D01*
X146237085Y-92386090D01*
X146233276Y-92392446D01*
X146228862Y-92398397D01*
X146223887Y-92403887D01*
X146218397Y-92408862D01*
X146212446Y-92413276D01*
X146206090Y-92417085D01*
X146199393Y-92420253D01*
X146192416Y-92422749D01*
X146185229Y-92424549D01*
X146177900Y-92425636D01*
X146170500Y-92426000D01*
X145469500Y-92426000D01*
X145462100Y-92425636D01*
X145454771Y-92424549D01*
X145447584Y-92422749D01*
X145440607Y-92420253D01*
X145433910Y-92417085D01*
X145427554Y-92413276D01*
X145421603Y-92408862D01*
X145416113Y-92403887D01*
X145411138Y-92398397D01*
X145406724Y-92392446D01*
X145402915Y-92386090D01*
X145399747Y-92379393D01*
X145397251Y-92372416D01*
X145395451Y-92365229D01*
X145394364Y-92357900D01*
X145394000Y-92350500D01*
X145394000Y-92199500D01*
X145394364Y-92192100D01*
X145395451Y-92184771D01*
X145397251Y-92177584D01*
X145399747Y-92170607D01*
X145402915Y-92163910D01*
X145406724Y-92157554D01*
X145411138Y-92151603D01*
X145416113Y-92146113D01*
X145421603Y-92141138D01*
X145427554Y-92136724D01*
X145433910Y-92132915D01*
X145440607Y-92129747D01*
X145447584Y-92127251D01*
X145454771Y-92125451D01*
X145462100Y-92124364D01*
X145469500Y-92124000D01*
X146170500Y-92124000D01*
X146177900Y-92124364D01*
X146177900Y-92124364D01*
G37*
D15*
X145820000Y-92275000D03*
D14*
G36*
X146177900Y-91724364D02*
G01*
X146185229Y-91725451D01*
X146192416Y-91727251D01*
X146199393Y-91729747D01*
X146206090Y-91732915D01*
X146212446Y-91736724D01*
X146218397Y-91741138D01*
X146223887Y-91746113D01*
X146228862Y-91751603D01*
X146233276Y-91757554D01*
X146237085Y-91763910D01*
X146240253Y-91770607D01*
X146242749Y-91777584D01*
X146244549Y-91784771D01*
X146245636Y-91792100D01*
X146246000Y-91799500D01*
X146246000Y-91950500D01*
X146245636Y-91957900D01*
X146244549Y-91965229D01*
X146242749Y-91972416D01*
X146240253Y-91979393D01*
X146237085Y-91986090D01*
X146233276Y-91992446D01*
X146228862Y-91998397D01*
X146223887Y-92003887D01*
X146218397Y-92008862D01*
X146212446Y-92013276D01*
X146206090Y-92017085D01*
X146199393Y-92020253D01*
X146192416Y-92022749D01*
X146185229Y-92024549D01*
X146177900Y-92025636D01*
X146170500Y-92026000D01*
X145469500Y-92026000D01*
X145462100Y-92025636D01*
X145454771Y-92024549D01*
X145447584Y-92022749D01*
X145440607Y-92020253D01*
X145433910Y-92017085D01*
X145427554Y-92013276D01*
X145421603Y-92008862D01*
X145416113Y-92003887D01*
X145411138Y-91998397D01*
X145406724Y-91992446D01*
X145402915Y-91986090D01*
X145399747Y-91979393D01*
X145397251Y-91972416D01*
X145395451Y-91965229D01*
X145394364Y-91957900D01*
X145394000Y-91950500D01*
X145394000Y-91799500D01*
X145394364Y-91792100D01*
X145395451Y-91784771D01*
X145397251Y-91777584D01*
X145399747Y-91770607D01*
X145402915Y-91763910D01*
X145406724Y-91757554D01*
X145411138Y-91751603D01*
X145416113Y-91746113D01*
X145421603Y-91741138D01*
X145427554Y-91736724D01*
X145433910Y-91732915D01*
X145440607Y-91729747D01*
X145447584Y-91727251D01*
X145454771Y-91725451D01*
X145462100Y-91724364D01*
X145469500Y-91724000D01*
X146170500Y-91724000D01*
X146177900Y-91724364D01*
X146177900Y-91724364D01*
G37*
D15*
X145820000Y-91875000D03*
D14*
G36*
X146177900Y-91324364D02*
G01*
X146185229Y-91325451D01*
X146192416Y-91327251D01*
X146199393Y-91329747D01*
X146206090Y-91332915D01*
X146212446Y-91336724D01*
X146218397Y-91341138D01*
X146223887Y-91346113D01*
X146228862Y-91351603D01*
X146233276Y-91357554D01*
X146237085Y-91363910D01*
X146240253Y-91370607D01*
X146242749Y-91377584D01*
X146244549Y-91384771D01*
X146245636Y-91392100D01*
X146246000Y-91399500D01*
X146246000Y-91550500D01*
X146245636Y-91557900D01*
X146244549Y-91565229D01*
X146242749Y-91572416D01*
X146240253Y-91579393D01*
X146237085Y-91586090D01*
X146233276Y-91592446D01*
X146228862Y-91598397D01*
X146223887Y-91603887D01*
X146218397Y-91608862D01*
X146212446Y-91613276D01*
X146206090Y-91617085D01*
X146199393Y-91620253D01*
X146192416Y-91622749D01*
X146185229Y-91624549D01*
X146177900Y-91625636D01*
X146170500Y-91626000D01*
X145469500Y-91626000D01*
X145462100Y-91625636D01*
X145454771Y-91624549D01*
X145447584Y-91622749D01*
X145440607Y-91620253D01*
X145433910Y-91617085D01*
X145427554Y-91613276D01*
X145421603Y-91608862D01*
X145416113Y-91603887D01*
X145411138Y-91598397D01*
X145406724Y-91592446D01*
X145402915Y-91586090D01*
X145399747Y-91579393D01*
X145397251Y-91572416D01*
X145395451Y-91565229D01*
X145394364Y-91557900D01*
X145394000Y-91550500D01*
X145394000Y-91399500D01*
X145394364Y-91392100D01*
X145395451Y-91384771D01*
X145397251Y-91377584D01*
X145399747Y-91370607D01*
X145402915Y-91363910D01*
X145406724Y-91357554D01*
X145411138Y-91351603D01*
X145416113Y-91346113D01*
X145421603Y-91341138D01*
X145427554Y-91336724D01*
X145433910Y-91332915D01*
X145440607Y-91329747D01*
X145447584Y-91327251D01*
X145454771Y-91325451D01*
X145462100Y-91324364D01*
X145469500Y-91324000D01*
X146170500Y-91324000D01*
X146177900Y-91324364D01*
X146177900Y-91324364D01*
G37*
D15*
X145820000Y-91475000D03*
D13*
X145820000Y-91075000D03*
D14*
G36*
X145479999Y-91225754D02*
G01*
X145472195Y-91224985D01*
X145462392Y-91223035D01*
X145454889Y-91220759D01*
X145445655Y-91216935D01*
X145438739Y-91213239D01*
X145430420Y-91207680D01*
X145424359Y-91202705D01*
X145417295Y-91195641D01*
X145412320Y-91189580D01*
X145406761Y-91181261D01*
X145403065Y-91174345D01*
X145399241Y-91165111D01*
X145396965Y-91157608D01*
X145395015Y-91147805D01*
X145394246Y-91140001D01*
X145394000Y-91135000D01*
X145394000Y-91015000D01*
X145394246Y-91009999D01*
X145395015Y-91002195D01*
X145396965Y-90992392D01*
X145399241Y-90984889D01*
X145403065Y-90975655D01*
X145406761Y-90968739D01*
X145412320Y-90960420D01*
X145417295Y-90954359D01*
X145424359Y-90947295D01*
X145430420Y-90942320D01*
X145438739Y-90936761D01*
X145445655Y-90933065D01*
X145454889Y-90929241D01*
X145462392Y-90926965D01*
X145472195Y-90925015D01*
X145479999Y-90924246D01*
X145485000Y-90924000D01*
X146058431Y-90924000D01*
X146063432Y-90924246D01*
X146071236Y-90925015D01*
X146081039Y-90926965D01*
X146088542Y-90929241D01*
X146097776Y-90933065D01*
X146104692Y-90936761D01*
X146113011Y-90942320D01*
X146119072Y-90947295D01*
X146122777Y-90950654D01*
X146219346Y-91047223D01*
X146222705Y-91050928D01*
X146227680Y-91056989D01*
X146233239Y-91065308D01*
X146236935Y-91072224D01*
X146240759Y-91081458D01*
X146243035Y-91088961D01*
X146244985Y-91098764D01*
X146245754Y-91106568D01*
X146246000Y-91111569D01*
X146246000Y-91135000D01*
X146245754Y-91140001D01*
X146244985Y-91147805D01*
X146243035Y-91157608D01*
X146240759Y-91165111D01*
X146236935Y-91174345D01*
X146233239Y-91181261D01*
X146227680Y-91189580D01*
X146222705Y-91195641D01*
X146215641Y-91202705D01*
X146209580Y-91207680D01*
X146201261Y-91213239D01*
X146194345Y-91216935D01*
X146185111Y-91220759D01*
X146177608Y-91223035D01*
X146167805Y-91224985D01*
X146160001Y-91225754D01*
X146155000Y-91226000D01*
X145485000Y-91226000D01*
X145479999Y-91225754D01*
X145479999Y-91225754D01*
G37*
D13*
X146320000Y-90575000D03*
D14*
G36*
X146351568Y-91000754D02*
G01*
X146343764Y-90999985D01*
X146333961Y-90998035D01*
X146326458Y-90995759D01*
X146317224Y-90991935D01*
X146310308Y-90988239D01*
X146301989Y-90982680D01*
X146295928Y-90977705D01*
X146292223Y-90974346D01*
X146195654Y-90877777D01*
X146192295Y-90874072D01*
X146187320Y-90868011D01*
X146181761Y-90859692D01*
X146178065Y-90852776D01*
X146174241Y-90843542D01*
X146171965Y-90836039D01*
X146170015Y-90826236D01*
X146169246Y-90818432D01*
X146169000Y-90813431D01*
X146169000Y-90240000D01*
X146169246Y-90234999D01*
X146170015Y-90227195D01*
X146171965Y-90217392D01*
X146174241Y-90209889D01*
X146178065Y-90200655D01*
X146181761Y-90193739D01*
X146187320Y-90185420D01*
X146192295Y-90179359D01*
X146199359Y-90172295D01*
X146205420Y-90167320D01*
X146213739Y-90161761D01*
X146220655Y-90158065D01*
X146229889Y-90154241D01*
X146237392Y-90151965D01*
X146247195Y-90150015D01*
X146254999Y-90149246D01*
X146260000Y-90149000D01*
X146380000Y-90149000D01*
X146385001Y-90149246D01*
X146392805Y-90150015D01*
X146402608Y-90151965D01*
X146410111Y-90154241D01*
X146419345Y-90158065D01*
X146426261Y-90161761D01*
X146434580Y-90167320D01*
X146440641Y-90172295D01*
X146447705Y-90179359D01*
X146452680Y-90185420D01*
X146458239Y-90193739D01*
X146461935Y-90200655D01*
X146465759Y-90209889D01*
X146468035Y-90217392D01*
X146469985Y-90227195D01*
X146470754Y-90234999D01*
X146471000Y-90240000D01*
X146471000Y-90910000D01*
X146470754Y-90915001D01*
X146469985Y-90922805D01*
X146468035Y-90932608D01*
X146465759Y-90940111D01*
X146461935Y-90949345D01*
X146458239Y-90956261D01*
X146452680Y-90964580D01*
X146447705Y-90970641D01*
X146440641Y-90977705D01*
X146434580Y-90982680D01*
X146426261Y-90988239D01*
X146419345Y-90991935D01*
X146410111Y-90995759D01*
X146402608Y-90998035D01*
X146392805Y-90999985D01*
X146385001Y-91000754D01*
X146380000Y-91001000D01*
X146356569Y-91001000D01*
X146351568Y-91000754D01*
X146351568Y-91000754D01*
G37*
G36*
X146802900Y-90149364D02*
G01*
X146810229Y-90150451D01*
X146817416Y-90152251D01*
X146824393Y-90154747D01*
X146831090Y-90157915D01*
X146837446Y-90161724D01*
X146843397Y-90166138D01*
X146848887Y-90171113D01*
X146853862Y-90176603D01*
X146858276Y-90182554D01*
X146862085Y-90188910D01*
X146865253Y-90195607D01*
X146867749Y-90202584D01*
X146869549Y-90209771D01*
X146870636Y-90217100D01*
X146871000Y-90224500D01*
X146871000Y-90925500D01*
X146870636Y-90932900D01*
X146869549Y-90940229D01*
X146867749Y-90947416D01*
X146865253Y-90954393D01*
X146862085Y-90961090D01*
X146858276Y-90967446D01*
X146853862Y-90973397D01*
X146848887Y-90978887D01*
X146843397Y-90983862D01*
X146837446Y-90988276D01*
X146831090Y-90992085D01*
X146824393Y-90995253D01*
X146817416Y-90997749D01*
X146810229Y-90999549D01*
X146802900Y-91000636D01*
X146795500Y-91001000D01*
X146644500Y-91001000D01*
X146637100Y-91000636D01*
X146629771Y-90999549D01*
X146622584Y-90997749D01*
X146615607Y-90995253D01*
X146608910Y-90992085D01*
X146602554Y-90988276D01*
X146596603Y-90983862D01*
X146591113Y-90978887D01*
X146586138Y-90973397D01*
X146581724Y-90967446D01*
X146577915Y-90961090D01*
X146574747Y-90954393D01*
X146572251Y-90947416D01*
X146570451Y-90940229D01*
X146569364Y-90932900D01*
X146569000Y-90925500D01*
X146569000Y-90224500D01*
X146569364Y-90217100D01*
X146570451Y-90209771D01*
X146572251Y-90202584D01*
X146574747Y-90195607D01*
X146577915Y-90188910D01*
X146581724Y-90182554D01*
X146586138Y-90176603D01*
X146591113Y-90171113D01*
X146596603Y-90166138D01*
X146602554Y-90161724D01*
X146608910Y-90157915D01*
X146615607Y-90154747D01*
X146622584Y-90152251D01*
X146629771Y-90150451D01*
X146637100Y-90149364D01*
X146644500Y-90149000D01*
X146795500Y-90149000D01*
X146802900Y-90149364D01*
X146802900Y-90149364D01*
G37*
D15*
X146720000Y-90575000D03*
D14*
G36*
X147202900Y-90149364D02*
G01*
X147210229Y-90150451D01*
X147217416Y-90152251D01*
X147224393Y-90154747D01*
X147231090Y-90157915D01*
X147237446Y-90161724D01*
X147243397Y-90166138D01*
X147248887Y-90171113D01*
X147253862Y-90176603D01*
X147258276Y-90182554D01*
X147262085Y-90188910D01*
X147265253Y-90195607D01*
X147267749Y-90202584D01*
X147269549Y-90209771D01*
X147270636Y-90217100D01*
X147271000Y-90224500D01*
X147271000Y-90925500D01*
X147270636Y-90932900D01*
X147269549Y-90940229D01*
X147267749Y-90947416D01*
X147265253Y-90954393D01*
X147262085Y-90961090D01*
X147258276Y-90967446D01*
X147253862Y-90973397D01*
X147248887Y-90978887D01*
X147243397Y-90983862D01*
X147237446Y-90988276D01*
X147231090Y-90992085D01*
X147224393Y-90995253D01*
X147217416Y-90997749D01*
X147210229Y-90999549D01*
X147202900Y-91000636D01*
X147195500Y-91001000D01*
X147044500Y-91001000D01*
X147037100Y-91000636D01*
X147029771Y-90999549D01*
X147022584Y-90997749D01*
X147015607Y-90995253D01*
X147008910Y-90992085D01*
X147002554Y-90988276D01*
X146996603Y-90983862D01*
X146991113Y-90978887D01*
X146986138Y-90973397D01*
X146981724Y-90967446D01*
X146977915Y-90961090D01*
X146974747Y-90954393D01*
X146972251Y-90947416D01*
X146970451Y-90940229D01*
X146969364Y-90932900D01*
X146969000Y-90925500D01*
X146969000Y-90224500D01*
X146969364Y-90217100D01*
X146970451Y-90209771D01*
X146972251Y-90202584D01*
X146974747Y-90195607D01*
X146977915Y-90188910D01*
X146981724Y-90182554D01*
X146986138Y-90176603D01*
X146991113Y-90171113D01*
X146996603Y-90166138D01*
X147002554Y-90161724D01*
X147008910Y-90157915D01*
X147015607Y-90154747D01*
X147022584Y-90152251D01*
X147029771Y-90150451D01*
X147037100Y-90149364D01*
X147044500Y-90149000D01*
X147195500Y-90149000D01*
X147202900Y-90149364D01*
X147202900Y-90149364D01*
G37*
D15*
X147120000Y-90575000D03*
D14*
G36*
X147602900Y-90149364D02*
G01*
X147610229Y-90150451D01*
X147617416Y-90152251D01*
X147624393Y-90154747D01*
X147631090Y-90157915D01*
X147637446Y-90161724D01*
X147643397Y-90166138D01*
X147648887Y-90171113D01*
X147653862Y-90176603D01*
X147658276Y-90182554D01*
X147662085Y-90188910D01*
X147665253Y-90195607D01*
X147667749Y-90202584D01*
X147669549Y-90209771D01*
X147670636Y-90217100D01*
X147671000Y-90224500D01*
X147671000Y-90925500D01*
X147670636Y-90932900D01*
X147669549Y-90940229D01*
X147667749Y-90947416D01*
X147665253Y-90954393D01*
X147662085Y-90961090D01*
X147658276Y-90967446D01*
X147653862Y-90973397D01*
X147648887Y-90978887D01*
X147643397Y-90983862D01*
X147637446Y-90988276D01*
X147631090Y-90992085D01*
X147624393Y-90995253D01*
X147617416Y-90997749D01*
X147610229Y-90999549D01*
X147602900Y-91000636D01*
X147595500Y-91001000D01*
X147444500Y-91001000D01*
X147437100Y-91000636D01*
X147429771Y-90999549D01*
X147422584Y-90997749D01*
X147415607Y-90995253D01*
X147408910Y-90992085D01*
X147402554Y-90988276D01*
X147396603Y-90983862D01*
X147391113Y-90978887D01*
X147386138Y-90973397D01*
X147381724Y-90967446D01*
X147377915Y-90961090D01*
X147374747Y-90954393D01*
X147372251Y-90947416D01*
X147370451Y-90940229D01*
X147369364Y-90932900D01*
X147369000Y-90925500D01*
X147369000Y-90224500D01*
X147369364Y-90217100D01*
X147370451Y-90209771D01*
X147372251Y-90202584D01*
X147374747Y-90195607D01*
X147377915Y-90188910D01*
X147381724Y-90182554D01*
X147386138Y-90176603D01*
X147391113Y-90171113D01*
X147396603Y-90166138D01*
X147402554Y-90161724D01*
X147408910Y-90157915D01*
X147415607Y-90154747D01*
X147422584Y-90152251D01*
X147429771Y-90150451D01*
X147437100Y-90149364D01*
X147444500Y-90149000D01*
X147595500Y-90149000D01*
X147602900Y-90149364D01*
X147602900Y-90149364D01*
G37*
D15*
X147520000Y-90575000D03*
D14*
G36*
X148002900Y-90149364D02*
G01*
X148010229Y-90150451D01*
X148017416Y-90152251D01*
X148024393Y-90154747D01*
X148031090Y-90157915D01*
X148037446Y-90161724D01*
X148043397Y-90166138D01*
X148048887Y-90171113D01*
X148053862Y-90176603D01*
X148058276Y-90182554D01*
X148062085Y-90188910D01*
X148065253Y-90195607D01*
X148067749Y-90202584D01*
X148069549Y-90209771D01*
X148070636Y-90217100D01*
X148071000Y-90224500D01*
X148071000Y-90925500D01*
X148070636Y-90932900D01*
X148069549Y-90940229D01*
X148067749Y-90947416D01*
X148065253Y-90954393D01*
X148062085Y-90961090D01*
X148058276Y-90967446D01*
X148053862Y-90973397D01*
X148048887Y-90978887D01*
X148043397Y-90983862D01*
X148037446Y-90988276D01*
X148031090Y-90992085D01*
X148024393Y-90995253D01*
X148017416Y-90997749D01*
X148010229Y-90999549D01*
X148002900Y-91000636D01*
X147995500Y-91001000D01*
X147844500Y-91001000D01*
X147837100Y-91000636D01*
X147829771Y-90999549D01*
X147822584Y-90997749D01*
X147815607Y-90995253D01*
X147808910Y-90992085D01*
X147802554Y-90988276D01*
X147796603Y-90983862D01*
X147791113Y-90978887D01*
X147786138Y-90973397D01*
X147781724Y-90967446D01*
X147777915Y-90961090D01*
X147774747Y-90954393D01*
X147772251Y-90947416D01*
X147770451Y-90940229D01*
X147769364Y-90932900D01*
X147769000Y-90925500D01*
X147769000Y-90224500D01*
X147769364Y-90217100D01*
X147770451Y-90209771D01*
X147772251Y-90202584D01*
X147774747Y-90195607D01*
X147777915Y-90188910D01*
X147781724Y-90182554D01*
X147786138Y-90176603D01*
X147791113Y-90171113D01*
X147796603Y-90166138D01*
X147802554Y-90161724D01*
X147808910Y-90157915D01*
X147815607Y-90154747D01*
X147822584Y-90152251D01*
X147829771Y-90150451D01*
X147837100Y-90149364D01*
X147844500Y-90149000D01*
X147995500Y-90149000D01*
X148002900Y-90149364D01*
X148002900Y-90149364D01*
G37*
D15*
X147920000Y-90575000D03*
D13*
X148320000Y-90575000D03*
D14*
G36*
X148254999Y-91000754D02*
G01*
X148247195Y-90999985D01*
X148237392Y-90998035D01*
X148229889Y-90995759D01*
X148220655Y-90991935D01*
X148213739Y-90988239D01*
X148205420Y-90982680D01*
X148199359Y-90977705D01*
X148192295Y-90970641D01*
X148187320Y-90964580D01*
X148181761Y-90956261D01*
X148178065Y-90949345D01*
X148174241Y-90940111D01*
X148171965Y-90932608D01*
X148170015Y-90922805D01*
X148169246Y-90915001D01*
X148169000Y-90910000D01*
X148169000Y-90240000D01*
X148169246Y-90234999D01*
X148170015Y-90227195D01*
X148171965Y-90217392D01*
X148174241Y-90209889D01*
X148178065Y-90200655D01*
X148181761Y-90193739D01*
X148187320Y-90185420D01*
X148192295Y-90179359D01*
X148199359Y-90172295D01*
X148205420Y-90167320D01*
X148213739Y-90161761D01*
X148220655Y-90158065D01*
X148229889Y-90154241D01*
X148237392Y-90151965D01*
X148247195Y-90150015D01*
X148254999Y-90149246D01*
X148260000Y-90149000D01*
X148380000Y-90149000D01*
X148385001Y-90149246D01*
X148392805Y-90150015D01*
X148402608Y-90151965D01*
X148410111Y-90154241D01*
X148419345Y-90158065D01*
X148426261Y-90161761D01*
X148434580Y-90167320D01*
X148440641Y-90172295D01*
X148447705Y-90179359D01*
X148452680Y-90185420D01*
X148458239Y-90193739D01*
X148461935Y-90200655D01*
X148465759Y-90209889D01*
X148468035Y-90217392D01*
X148469985Y-90227195D01*
X148470754Y-90234999D01*
X148471000Y-90240000D01*
X148471000Y-90813431D01*
X148470754Y-90818432D01*
X148469985Y-90826236D01*
X148468035Y-90836039D01*
X148465759Y-90843542D01*
X148461935Y-90852776D01*
X148458239Y-90859692D01*
X148452680Y-90868011D01*
X148447705Y-90874072D01*
X148444346Y-90877777D01*
X148347777Y-90974346D01*
X148344072Y-90977705D01*
X148338011Y-90982680D01*
X148329692Y-90988239D01*
X148322776Y-90991935D01*
X148313542Y-90995759D01*
X148306039Y-90998035D01*
X148296236Y-90999985D01*
X148288432Y-91000754D01*
X148283431Y-91001000D01*
X148260000Y-91001000D01*
X148254999Y-91000754D01*
X148254999Y-91000754D01*
G37*
D13*
X148820000Y-91075000D03*
D14*
G36*
X148479999Y-91225754D02*
G01*
X148472195Y-91224985D01*
X148462392Y-91223035D01*
X148454889Y-91220759D01*
X148445655Y-91216935D01*
X148438739Y-91213239D01*
X148430420Y-91207680D01*
X148424359Y-91202705D01*
X148417295Y-91195641D01*
X148412320Y-91189580D01*
X148406761Y-91181261D01*
X148403065Y-91174345D01*
X148399241Y-91165111D01*
X148396965Y-91157608D01*
X148395015Y-91147805D01*
X148394246Y-91140001D01*
X148394000Y-91135000D01*
X148394000Y-91111569D01*
X148394246Y-91106568D01*
X148395015Y-91098764D01*
X148396965Y-91088961D01*
X148399241Y-91081458D01*
X148403065Y-91072224D01*
X148406761Y-91065308D01*
X148412320Y-91056989D01*
X148417295Y-91050928D01*
X148420654Y-91047223D01*
X148517223Y-90950654D01*
X148520928Y-90947295D01*
X148526989Y-90942320D01*
X148535308Y-90936761D01*
X148542224Y-90933065D01*
X148551458Y-90929241D01*
X148558961Y-90926965D01*
X148568764Y-90925015D01*
X148576568Y-90924246D01*
X148581569Y-90924000D01*
X149155000Y-90924000D01*
X149160001Y-90924246D01*
X149167805Y-90925015D01*
X149177608Y-90926965D01*
X149185111Y-90929241D01*
X149194345Y-90933065D01*
X149201261Y-90936761D01*
X149209580Y-90942320D01*
X149215641Y-90947295D01*
X149222705Y-90954359D01*
X149227680Y-90960420D01*
X149233239Y-90968739D01*
X149236935Y-90975655D01*
X149240759Y-90984889D01*
X149243035Y-90992392D01*
X149244985Y-91002195D01*
X149245754Y-91009999D01*
X149246000Y-91015000D01*
X149246000Y-91135000D01*
X149245754Y-91140001D01*
X149244985Y-91147805D01*
X149243035Y-91157608D01*
X149240759Y-91165111D01*
X149236935Y-91174345D01*
X149233239Y-91181261D01*
X149227680Y-91189580D01*
X149222705Y-91195641D01*
X149215641Y-91202705D01*
X149209580Y-91207680D01*
X149201261Y-91213239D01*
X149194345Y-91216935D01*
X149185111Y-91220759D01*
X149177608Y-91223035D01*
X149167805Y-91224985D01*
X149160001Y-91225754D01*
X149155000Y-91226000D01*
X148485000Y-91226000D01*
X148479999Y-91225754D01*
X148479999Y-91225754D01*
G37*
G36*
X149177900Y-91324364D02*
G01*
X149185229Y-91325451D01*
X149192416Y-91327251D01*
X149199393Y-91329747D01*
X149206090Y-91332915D01*
X149212446Y-91336724D01*
X149218397Y-91341138D01*
X149223887Y-91346113D01*
X149228862Y-91351603D01*
X149233276Y-91357554D01*
X149237085Y-91363910D01*
X149240253Y-91370607D01*
X149242749Y-91377584D01*
X149244549Y-91384771D01*
X149245636Y-91392100D01*
X149246000Y-91399500D01*
X149246000Y-91550500D01*
X149245636Y-91557900D01*
X149244549Y-91565229D01*
X149242749Y-91572416D01*
X149240253Y-91579393D01*
X149237085Y-91586090D01*
X149233276Y-91592446D01*
X149228862Y-91598397D01*
X149223887Y-91603887D01*
X149218397Y-91608862D01*
X149212446Y-91613276D01*
X149206090Y-91617085D01*
X149199393Y-91620253D01*
X149192416Y-91622749D01*
X149185229Y-91624549D01*
X149177900Y-91625636D01*
X149170500Y-91626000D01*
X148469500Y-91626000D01*
X148462100Y-91625636D01*
X148454771Y-91624549D01*
X148447584Y-91622749D01*
X148440607Y-91620253D01*
X148433910Y-91617085D01*
X148427554Y-91613276D01*
X148421603Y-91608862D01*
X148416113Y-91603887D01*
X148411138Y-91598397D01*
X148406724Y-91592446D01*
X148402915Y-91586090D01*
X148399747Y-91579393D01*
X148397251Y-91572416D01*
X148395451Y-91565229D01*
X148394364Y-91557900D01*
X148394000Y-91550500D01*
X148394000Y-91399500D01*
X148394364Y-91392100D01*
X148395451Y-91384771D01*
X148397251Y-91377584D01*
X148399747Y-91370607D01*
X148402915Y-91363910D01*
X148406724Y-91357554D01*
X148411138Y-91351603D01*
X148416113Y-91346113D01*
X148421603Y-91341138D01*
X148427554Y-91336724D01*
X148433910Y-91332915D01*
X148440607Y-91329747D01*
X148447584Y-91327251D01*
X148454771Y-91325451D01*
X148462100Y-91324364D01*
X148469500Y-91324000D01*
X149170500Y-91324000D01*
X149177900Y-91324364D01*
X149177900Y-91324364D01*
G37*
D15*
X148820000Y-91475000D03*
D14*
G36*
X149177900Y-91724364D02*
G01*
X149185229Y-91725451D01*
X149192416Y-91727251D01*
X149199393Y-91729747D01*
X149206090Y-91732915D01*
X149212446Y-91736724D01*
X149218397Y-91741138D01*
X149223887Y-91746113D01*
X149228862Y-91751603D01*
X149233276Y-91757554D01*
X149237085Y-91763910D01*
X149240253Y-91770607D01*
X149242749Y-91777584D01*
X149244549Y-91784771D01*
X149245636Y-91792100D01*
X149246000Y-91799500D01*
X149246000Y-91950500D01*
X149245636Y-91957900D01*
X149244549Y-91965229D01*
X149242749Y-91972416D01*
X149240253Y-91979393D01*
X149237085Y-91986090D01*
X149233276Y-91992446D01*
X149228862Y-91998397D01*
X149223887Y-92003887D01*
X149218397Y-92008862D01*
X149212446Y-92013276D01*
X149206090Y-92017085D01*
X149199393Y-92020253D01*
X149192416Y-92022749D01*
X149185229Y-92024549D01*
X149177900Y-92025636D01*
X149170500Y-92026000D01*
X148469500Y-92026000D01*
X148462100Y-92025636D01*
X148454771Y-92024549D01*
X148447584Y-92022749D01*
X148440607Y-92020253D01*
X148433910Y-92017085D01*
X148427554Y-92013276D01*
X148421603Y-92008862D01*
X148416113Y-92003887D01*
X148411138Y-91998397D01*
X148406724Y-91992446D01*
X148402915Y-91986090D01*
X148399747Y-91979393D01*
X148397251Y-91972416D01*
X148395451Y-91965229D01*
X148394364Y-91957900D01*
X148394000Y-91950500D01*
X148394000Y-91799500D01*
X148394364Y-91792100D01*
X148395451Y-91784771D01*
X148397251Y-91777584D01*
X148399747Y-91770607D01*
X148402915Y-91763910D01*
X148406724Y-91757554D01*
X148411138Y-91751603D01*
X148416113Y-91746113D01*
X148421603Y-91741138D01*
X148427554Y-91736724D01*
X148433910Y-91732915D01*
X148440607Y-91729747D01*
X148447584Y-91727251D01*
X148454771Y-91725451D01*
X148462100Y-91724364D01*
X148469500Y-91724000D01*
X149170500Y-91724000D01*
X149177900Y-91724364D01*
X149177900Y-91724364D01*
G37*
D15*
X148820000Y-91875000D03*
D14*
G36*
X149177900Y-92124364D02*
G01*
X149185229Y-92125451D01*
X149192416Y-92127251D01*
X149199393Y-92129747D01*
X149206090Y-92132915D01*
X149212446Y-92136724D01*
X149218397Y-92141138D01*
X149223887Y-92146113D01*
X149228862Y-92151603D01*
X149233276Y-92157554D01*
X149237085Y-92163910D01*
X149240253Y-92170607D01*
X149242749Y-92177584D01*
X149244549Y-92184771D01*
X149245636Y-92192100D01*
X149246000Y-92199500D01*
X149246000Y-92350500D01*
X149245636Y-92357900D01*
X149244549Y-92365229D01*
X149242749Y-92372416D01*
X149240253Y-92379393D01*
X149237085Y-92386090D01*
X149233276Y-92392446D01*
X149228862Y-92398397D01*
X149223887Y-92403887D01*
X149218397Y-92408862D01*
X149212446Y-92413276D01*
X149206090Y-92417085D01*
X149199393Y-92420253D01*
X149192416Y-92422749D01*
X149185229Y-92424549D01*
X149177900Y-92425636D01*
X149170500Y-92426000D01*
X148469500Y-92426000D01*
X148462100Y-92425636D01*
X148454771Y-92424549D01*
X148447584Y-92422749D01*
X148440607Y-92420253D01*
X148433910Y-92417085D01*
X148427554Y-92413276D01*
X148421603Y-92408862D01*
X148416113Y-92403887D01*
X148411138Y-92398397D01*
X148406724Y-92392446D01*
X148402915Y-92386090D01*
X148399747Y-92379393D01*
X148397251Y-92372416D01*
X148395451Y-92365229D01*
X148394364Y-92357900D01*
X148394000Y-92350500D01*
X148394000Y-92199500D01*
X148394364Y-92192100D01*
X148395451Y-92184771D01*
X148397251Y-92177584D01*
X148399747Y-92170607D01*
X148402915Y-92163910D01*
X148406724Y-92157554D01*
X148411138Y-92151603D01*
X148416113Y-92146113D01*
X148421603Y-92141138D01*
X148427554Y-92136724D01*
X148433910Y-92132915D01*
X148440607Y-92129747D01*
X148447584Y-92127251D01*
X148454771Y-92125451D01*
X148462100Y-92124364D01*
X148469500Y-92124000D01*
X149170500Y-92124000D01*
X149177900Y-92124364D01*
X149177900Y-92124364D01*
G37*
D15*
X148820000Y-92275000D03*
D14*
G36*
X149177900Y-92524364D02*
G01*
X149185229Y-92525451D01*
X149192416Y-92527251D01*
X149199393Y-92529747D01*
X149206090Y-92532915D01*
X149212446Y-92536724D01*
X149218397Y-92541138D01*
X149223887Y-92546113D01*
X149228862Y-92551603D01*
X149233276Y-92557554D01*
X149237085Y-92563910D01*
X149240253Y-92570607D01*
X149242749Y-92577584D01*
X149244549Y-92584771D01*
X149245636Y-92592100D01*
X149246000Y-92599500D01*
X149246000Y-92750500D01*
X149245636Y-92757900D01*
X149244549Y-92765229D01*
X149242749Y-92772416D01*
X149240253Y-92779393D01*
X149237085Y-92786090D01*
X149233276Y-92792446D01*
X149228862Y-92798397D01*
X149223887Y-92803887D01*
X149218397Y-92808862D01*
X149212446Y-92813276D01*
X149206090Y-92817085D01*
X149199393Y-92820253D01*
X149192416Y-92822749D01*
X149185229Y-92824549D01*
X149177900Y-92825636D01*
X149170500Y-92826000D01*
X148469500Y-92826000D01*
X148462100Y-92825636D01*
X148454771Y-92824549D01*
X148447584Y-92822749D01*
X148440607Y-92820253D01*
X148433910Y-92817085D01*
X148427554Y-92813276D01*
X148421603Y-92808862D01*
X148416113Y-92803887D01*
X148411138Y-92798397D01*
X148406724Y-92792446D01*
X148402915Y-92786090D01*
X148399747Y-92779393D01*
X148397251Y-92772416D01*
X148395451Y-92765229D01*
X148394364Y-92757900D01*
X148394000Y-92750500D01*
X148394000Y-92599500D01*
X148394364Y-92592100D01*
X148395451Y-92584771D01*
X148397251Y-92577584D01*
X148399747Y-92570607D01*
X148402915Y-92563910D01*
X148406724Y-92557554D01*
X148411138Y-92551603D01*
X148416113Y-92546113D01*
X148421603Y-92541138D01*
X148427554Y-92536724D01*
X148433910Y-92532915D01*
X148440607Y-92529747D01*
X148447584Y-92527251D01*
X148454771Y-92525451D01*
X148462100Y-92524364D01*
X148469500Y-92524000D01*
X149170500Y-92524000D01*
X149177900Y-92524364D01*
X149177900Y-92524364D01*
G37*
D15*
X148820000Y-92675000D03*
D13*
X148820000Y-93075000D03*
D14*
G36*
X148576568Y-93225754D02*
G01*
X148568764Y-93224985D01*
X148558961Y-93223035D01*
X148551458Y-93220759D01*
X148542224Y-93216935D01*
X148535308Y-93213239D01*
X148526989Y-93207680D01*
X148520928Y-93202705D01*
X148517223Y-93199346D01*
X148420654Y-93102777D01*
X148417295Y-93099072D01*
X148412320Y-93093011D01*
X148406761Y-93084692D01*
X148403065Y-93077776D01*
X148399241Y-93068542D01*
X148396965Y-93061039D01*
X148395015Y-93051236D01*
X148394246Y-93043432D01*
X148394000Y-93038431D01*
X148394000Y-93015000D01*
X148394246Y-93009999D01*
X148395015Y-93002195D01*
X148396965Y-92992392D01*
X148399241Y-92984889D01*
X148403065Y-92975655D01*
X148406761Y-92968739D01*
X148412320Y-92960420D01*
X148417295Y-92954359D01*
X148424359Y-92947295D01*
X148430420Y-92942320D01*
X148438739Y-92936761D01*
X148445655Y-92933065D01*
X148454889Y-92929241D01*
X148462392Y-92926965D01*
X148472195Y-92925015D01*
X148479999Y-92924246D01*
X148485000Y-92924000D01*
X149155000Y-92924000D01*
X149160001Y-92924246D01*
X149167805Y-92925015D01*
X149177608Y-92926965D01*
X149185111Y-92929241D01*
X149194345Y-92933065D01*
X149201261Y-92936761D01*
X149209580Y-92942320D01*
X149215641Y-92947295D01*
X149222705Y-92954359D01*
X149227680Y-92960420D01*
X149233239Y-92968739D01*
X149236935Y-92975655D01*
X149240759Y-92984889D01*
X149243035Y-92992392D01*
X149244985Y-93002195D01*
X149245754Y-93009999D01*
X149246000Y-93015000D01*
X149246000Y-93135000D01*
X149245754Y-93140001D01*
X149244985Y-93147805D01*
X149243035Y-93157608D01*
X149240759Y-93165111D01*
X149236935Y-93174345D01*
X149233239Y-93181261D01*
X149227680Y-93189580D01*
X149222705Y-93195641D01*
X149215641Y-93202705D01*
X149209580Y-93207680D01*
X149201261Y-93213239D01*
X149194345Y-93216935D01*
X149185111Y-93220759D01*
X149177608Y-93223035D01*
X149167805Y-93224985D01*
X149160001Y-93225754D01*
X149155000Y-93226000D01*
X148581569Y-93226000D01*
X148576568Y-93225754D01*
X148576568Y-93225754D01*
G37*
G36*
X147305691Y-78725176D02*
G01*
X147329401Y-78728693D01*
X147352652Y-78734517D01*
X147375220Y-78742592D01*
X147396889Y-78752841D01*
X147417448Y-78765164D01*
X147436701Y-78779442D01*
X147454461Y-78795539D01*
X147470558Y-78813299D01*
X147484836Y-78832552D01*
X147497159Y-78853111D01*
X147507408Y-78874780D01*
X147515483Y-78897348D01*
X147521307Y-78920599D01*
X147524824Y-78944309D01*
X147526000Y-78968250D01*
X147526000Y-79456750D01*
X147524824Y-79480691D01*
X147521307Y-79504401D01*
X147515483Y-79527652D01*
X147507408Y-79550220D01*
X147497159Y-79571889D01*
X147484836Y-79592448D01*
X147470558Y-79611701D01*
X147454461Y-79629461D01*
X147436701Y-79645558D01*
X147417448Y-79659836D01*
X147396889Y-79672159D01*
X147375220Y-79682408D01*
X147352652Y-79690483D01*
X147329401Y-79696307D01*
X147305691Y-79699824D01*
X147281750Y-79701000D01*
X146718250Y-79701000D01*
X146694309Y-79699824D01*
X146670599Y-79696307D01*
X146647348Y-79690483D01*
X146624780Y-79682408D01*
X146603111Y-79672159D01*
X146582552Y-79659836D01*
X146563299Y-79645558D01*
X146545539Y-79629461D01*
X146529442Y-79611701D01*
X146515164Y-79592448D01*
X146502841Y-79571889D01*
X146492592Y-79550220D01*
X146484517Y-79527652D01*
X146478693Y-79504401D01*
X146475176Y-79480691D01*
X146474000Y-79456750D01*
X146474000Y-78968250D01*
X146475176Y-78944309D01*
X146478693Y-78920599D01*
X146484517Y-78897348D01*
X146492592Y-78874780D01*
X146502841Y-78853111D01*
X146515164Y-78832552D01*
X146529442Y-78813299D01*
X146545539Y-78795539D01*
X146563299Y-78779442D01*
X146582552Y-78765164D01*
X146603111Y-78752841D01*
X146624780Y-78742592D01*
X146647348Y-78734517D01*
X146670599Y-78728693D01*
X146694309Y-78725176D01*
X146718250Y-78724000D01*
X147281750Y-78724000D01*
X147305691Y-78725176D01*
X147305691Y-78725176D01*
G37*
D16*
X147000000Y-79212500D03*
D14*
G36*
X147305691Y-80300176D02*
G01*
X147329401Y-80303693D01*
X147352652Y-80309517D01*
X147375220Y-80317592D01*
X147396889Y-80327841D01*
X147417448Y-80340164D01*
X147436701Y-80354442D01*
X147454461Y-80370539D01*
X147470558Y-80388299D01*
X147484836Y-80407552D01*
X147497159Y-80428111D01*
X147507408Y-80449780D01*
X147515483Y-80472348D01*
X147521307Y-80495599D01*
X147524824Y-80519309D01*
X147526000Y-80543250D01*
X147526000Y-81031750D01*
X147524824Y-81055691D01*
X147521307Y-81079401D01*
X147515483Y-81102652D01*
X147507408Y-81125220D01*
X147497159Y-81146889D01*
X147484836Y-81167448D01*
X147470558Y-81186701D01*
X147454461Y-81204461D01*
X147436701Y-81220558D01*
X147417448Y-81234836D01*
X147396889Y-81247159D01*
X147375220Y-81257408D01*
X147352652Y-81265483D01*
X147329401Y-81271307D01*
X147305691Y-81274824D01*
X147281750Y-81276000D01*
X146718250Y-81276000D01*
X146694309Y-81274824D01*
X146670599Y-81271307D01*
X146647348Y-81265483D01*
X146624780Y-81257408D01*
X146603111Y-81247159D01*
X146582552Y-81234836D01*
X146563299Y-81220558D01*
X146545539Y-81204461D01*
X146529442Y-81186701D01*
X146515164Y-81167448D01*
X146502841Y-81146889D01*
X146492592Y-81125220D01*
X146484517Y-81102652D01*
X146478693Y-81079401D01*
X146475176Y-81055691D01*
X146474000Y-81031750D01*
X146474000Y-80543250D01*
X146475176Y-80519309D01*
X146478693Y-80495599D01*
X146484517Y-80472348D01*
X146492592Y-80449780D01*
X146502841Y-80428111D01*
X146515164Y-80407552D01*
X146529442Y-80388299D01*
X146545539Y-80370539D01*
X146563299Y-80354442D01*
X146582552Y-80340164D01*
X146603111Y-80327841D01*
X146624780Y-80317592D01*
X146647348Y-80309517D01*
X146670599Y-80303693D01*
X146694309Y-80300176D01*
X146718250Y-80299000D01*
X147281750Y-80299000D01*
X147305691Y-80300176D01*
X147305691Y-80300176D01*
G37*
D16*
X147000000Y-80787500D03*
D14*
G36*
X145305691Y-78725176D02*
G01*
X145329401Y-78728693D01*
X145352652Y-78734517D01*
X145375220Y-78742592D01*
X145396889Y-78752841D01*
X145417448Y-78765164D01*
X145436701Y-78779442D01*
X145454461Y-78795539D01*
X145470558Y-78813299D01*
X145484836Y-78832552D01*
X145497159Y-78853111D01*
X145507408Y-78874780D01*
X145515483Y-78897348D01*
X145521307Y-78920599D01*
X145524824Y-78944309D01*
X145526000Y-78968250D01*
X145526000Y-79456750D01*
X145524824Y-79480691D01*
X145521307Y-79504401D01*
X145515483Y-79527652D01*
X145507408Y-79550220D01*
X145497159Y-79571889D01*
X145484836Y-79592448D01*
X145470558Y-79611701D01*
X145454461Y-79629461D01*
X145436701Y-79645558D01*
X145417448Y-79659836D01*
X145396889Y-79672159D01*
X145375220Y-79682408D01*
X145352652Y-79690483D01*
X145329401Y-79696307D01*
X145305691Y-79699824D01*
X145281750Y-79701000D01*
X144718250Y-79701000D01*
X144694309Y-79699824D01*
X144670599Y-79696307D01*
X144647348Y-79690483D01*
X144624780Y-79682408D01*
X144603111Y-79672159D01*
X144582552Y-79659836D01*
X144563299Y-79645558D01*
X144545539Y-79629461D01*
X144529442Y-79611701D01*
X144515164Y-79592448D01*
X144502841Y-79571889D01*
X144492592Y-79550220D01*
X144484517Y-79527652D01*
X144478693Y-79504401D01*
X144475176Y-79480691D01*
X144474000Y-79456750D01*
X144474000Y-78968250D01*
X144475176Y-78944309D01*
X144478693Y-78920599D01*
X144484517Y-78897348D01*
X144492592Y-78874780D01*
X144502841Y-78853111D01*
X144515164Y-78832552D01*
X144529442Y-78813299D01*
X144545539Y-78795539D01*
X144563299Y-78779442D01*
X144582552Y-78765164D01*
X144603111Y-78752841D01*
X144624780Y-78742592D01*
X144647348Y-78734517D01*
X144670599Y-78728693D01*
X144694309Y-78725176D01*
X144718250Y-78724000D01*
X145281750Y-78724000D01*
X145305691Y-78725176D01*
X145305691Y-78725176D01*
G37*
D16*
X145000000Y-79212500D03*
D14*
G36*
X145305691Y-80300176D02*
G01*
X145329401Y-80303693D01*
X145352652Y-80309517D01*
X145375220Y-80317592D01*
X145396889Y-80327841D01*
X145417448Y-80340164D01*
X145436701Y-80354442D01*
X145454461Y-80370539D01*
X145470558Y-80388299D01*
X145484836Y-80407552D01*
X145497159Y-80428111D01*
X145507408Y-80449780D01*
X145515483Y-80472348D01*
X145521307Y-80495599D01*
X145524824Y-80519309D01*
X145526000Y-80543250D01*
X145526000Y-81031750D01*
X145524824Y-81055691D01*
X145521307Y-81079401D01*
X145515483Y-81102652D01*
X145507408Y-81125220D01*
X145497159Y-81146889D01*
X145484836Y-81167448D01*
X145470558Y-81186701D01*
X145454461Y-81204461D01*
X145436701Y-81220558D01*
X145417448Y-81234836D01*
X145396889Y-81247159D01*
X145375220Y-81257408D01*
X145352652Y-81265483D01*
X145329401Y-81271307D01*
X145305691Y-81274824D01*
X145281750Y-81276000D01*
X144718250Y-81276000D01*
X144694309Y-81274824D01*
X144670599Y-81271307D01*
X144647348Y-81265483D01*
X144624780Y-81257408D01*
X144603111Y-81247159D01*
X144582552Y-81234836D01*
X144563299Y-81220558D01*
X144545539Y-81204461D01*
X144529442Y-81186701D01*
X144515164Y-81167448D01*
X144502841Y-81146889D01*
X144492592Y-81125220D01*
X144484517Y-81102652D01*
X144478693Y-81079401D01*
X144475176Y-81055691D01*
X144474000Y-81031750D01*
X144474000Y-80543250D01*
X144475176Y-80519309D01*
X144478693Y-80495599D01*
X144484517Y-80472348D01*
X144492592Y-80449780D01*
X144502841Y-80428111D01*
X144515164Y-80407552D01*
X144529442Y-80388299D01*
X144545539Y-80370539D01*
X144563299Y-80354442D01*
X144582552Y-80340164D01*
X144603111Y-80327841D01*
X144624780Y-80317592D01*
X144647348Y-80309517D01*
X144670599Y-80303693D01*
X144694309Y-80300176D01*
X144718250Y-80299000D01*
X145281750Y-80299000D01*
X145305691Y-80300176D01*
X145305691Y-80300176D01*
G37*
D16*
X145000000Y-80787500D03*
D17*
X150700000Y-74900000D03*
X148700000Y-74900000D03*
X146700000Y-74900000D03*
X144700000Y-74900000D03*
D18*
X142240000Y-102750000D03*
X142240000Y-100210000D03*
X142240000Y-97670000D03*
X142240000Y-95130000D03*
X142240000Y-92590000D03*
X142240000Y-90050000D03*
X142240000Y-87510000D03*
X142240000Y-84970000D03*
X142240000Y-82430000D03*
D19*
X142240000Y-79890000D03*
D18*
X152400000Y-80010000D03*
X152400000Y-82550000D03*
X152400000Y-85090000D03*
X152400000Y-87630000D03*
X152400000Y-90170000D03*
X152400000Y-92710000D03*
X152400000Y-95250000D03*
X152400000Y-97790000D03*
X152400000Y-100330000D03*
D19*
X152400000Y-102870000D03*
D14*
G36*
X147305691Y-96825176D02*
G01*
X147329401Y-96828693D01*
X147352652Y-96834517D01*
X147375220Y-96842592D01*
X147396889Y-96852841D01*
X147417448Y-96865164D01*
X147436701Y-96879442D01*
X147454461Y-96895539D01*
X147470558Y-96913299D01*
X147484836Y-96932552D01*
X147497159Y-96953111D01*
X147507408Y-96974780D01*
X147515483Y-96997348D01*
X147521307Y-97020599D01*
X147524824Y-97044309D01*
X147526000Y-97068250D01*
X147526000Y-97556750D01*
X147524824Y-97580691D01*
X147521307Y-97604401D01*
X147515483Y-97627652D01*
X147507408Y-97650220D01*
X147497159Y-97671889D01*
X147484836Y-97692448D01*
X147470558Y-97711701D01*
X147454461Y-97729461D01*
X147436701Y-97745558D01*
X147417448Y-97759836D01*
X147396889Y-97772159D01*
X147375220Y-97782408D01*
X147352652Y-97790483D01*
X147329401Y-97796307D01*
X147305691Y-97799824D01*
X147281750Y-97801000D01*
X146718250Y-97801000D01*
X146694309Y-97799824D01*
X146670599Y-97796307D01*
X146647348Y-97790483D01*
X146624780Y-97782408D01*
X146603111Y-97772159D01*
X146582552Y-97759836D01*
X146563299Y-97745558D01*
X146545539Y-97729461D01*
X146529442Y-97711701D01*
X146515164Y-97692448D01*
X146502841Y-97671889D01*
X146492592Y-97650220D01*
X146484517Y-97627652D01*
X146478693Y-97604401D01*
X146475176Y-97580691D01*
X146474000Y-97556750D01*
X146474000Y-97068250D01*
X146475176Y-97044309D01*
X146478693Y-97020599D01*
X146484517Y-96997348D01*
X146492592Y-96974780D01*
X146502841Y-96953111D01*
X146515164Y-96932552D01*
X146529442Y-96913299D01*
X146545539Y-96895539D01*
X146563299Y-96879442D01*
X146582552Y-96865164D01*
X146603111Y-96852841D01*
X146624780Y-96842592D01*
X146647348Y-96834517D01*
X146670599Y-96828693D01*
X146694309Y-96825176D01*
X146718250Y-96824000D01*
X147281750Y-96824000D01*
X147305691Y-96825176D01*
X147305691Y-96825176D01*
G37*
D16*
X147000000Y-97312500D03*
D14*
G36*
X147305691Y-98400176D02*
G01*
X147329401Y-98403693D01*
X147352652Y-98409517D01*
X147375220Y-98417592D01*
X147396889Y-98427841D01*
X147417448Y-98440164D01*
X147436701Y-98454442D01*
X147454461Y-98470539D01*
X147470558Y-98488299D01*
X147484836Y-98507552D01*
X147497159Y-98528111D01*
X147507408Y-98549780D01*
X147515483Y-98572348D01*
X147521307Y-98595599D01*
X147524824Y-98619309D01*
X147526000Y-98643250D01*
X147526000Y-99131750D01*
X147524824Y-99155691D01*
X147521307Y-99179401D01*
X147515483Y-99202652D01*
X147507408Y-99225220D01*
X147497159Y-99246889D01*
X147484836Y-99267448D01*
X147470558Y-99286701D01*
X147454461Y-99304461D01*
X147436701Y-99320558D01*
X147417448Y-99334836D01*
X147396889Y-99347159D01*
X147375220Y-99357408D01*
X147352652Y-99365483D01*
X147329401Y-99371307D01*
X147305691Y-99374824D01*
X147281750Y-99376000D01*
X146718250Y-99376000D01*
X146694309Y-99374824D01*
X146670599Y-99371307D01*
X146647348Y-99365483D01*
X146624780Y-99357408D01*
X146603111Y-99347159D01*
X146582552Y-99334836D01*
X146563299Y-99320558D01*
X146545539Y-99304461D01*
X146529442Y-99286701D01*
X146515164Y-99267448D01*
X146502841Y-99246889D01*
X146492592Y-99225220D01*
X146484517Y-99202652D01*
X146478693Y-99179401D01*
X146475176Y-99155691D01*
X146474000Y-99131750D01*
X146474000Y-98643250D01*
X146475176Y-98619309D01*
X146478693Y-98595599D01*
X146484517Y-98572348D01*
X146492592Y-98549780D01*
X146502841Y-98528111D01*
X146515164Y-98507552D01*
X146529442Y-98488299D01*
X146545539Y-98470539D01*
X146563299Y-98454442D01*
X146582552Y-98440164D01*
X146603111Y-98427841D01*
X146624780Y-98417592D01*
X146647348Y-98409517D01*
X146670599Y-98403693D01*
X146694309Y-98400176D01*
X146718250Y-98399000D01*
X147281750Y-98399000D01*
X147305691Y-98400176D01*
X147305691Y-98400176D01*
G37*
D16*
X147000000Y-98887500D03*
D14*
G36*
X148905691Y-98400176D02*
G01*
X148929401Y-98403693D01*
X148952652Y-98409517D01*
X148975220Y-98417592D01*
X148996889Y-98427841D01*
X149017448Y-98440164D01*
X149036701Y-98454442D01*
X149054461Y-98470539D01*
X149070558Y-98488299D01*
X149084836Y-98507552D01*
X149097159Y-98528111D01*
X149107408Y-98549780D01*
X149115483Y-98572348D01*
X149121307Y-98595599D01*
X149124824Y-98619309D01*
X149126000Y-98643250D01*
X149126000Y-99131750D01*
X149124824Y-99155691D01*
X149121307Y-99179401D01*
X149115483Y-99202652D01*
X149107408Y-99225220D01*
X149097159Y-99246889D01*
X149084836Y-99267448D01*
X149070558Y-99286701D01*
X149054461Y-99304461D01*
X149036701Y-99320558D01*
X149017448Y-99334836D01*
X148996889Y-99347159D01*
X148975220Y-99357408D01*
X148952652Y-99365483D01*
X148929401Y-99371307D01*
X148905691Y-99374824D01*
X148881750Y-99376000D01*
X148318250Y-99376000D01*
X148294309Y-99374824D01*
X148270599Y-99371307D01*
X148247348Y-99365483D01*
X148224780Y-99357408D01*
X148203111Y-99347159D01*
X148182552Y-99334836D01*
X148163299Y-99320558D01*
X148145539Y-99304461D01*
X148129442Y-99286701D01*
X148115164Y-99267448D01*
X148102841Y-99246889D01*
X148092592Y-99225220D01*
X148084517Y-99202652D01*
X148078693Y-99179401D01*
X148075176Y-99155691D01*
X148074000Y-99131750D01*
X148074000Y-98643250D01*
X148075176Y-98619309D01*
X148078693Y-98595599D01*
X148084517Y-98572348D01*
X148092592Y-98549780D01*
X148102841Y-98528111D01*
X148115164Y-98507552D01*
X148129442Y-98488299D01*
X148145539Y-98470539D01*
X148163299Y-98454442D01*
X148182552Y-98440164D01*
X148203111Y-98427841D01*
X148224780Y-98417592D01*
X148247348Y-98409517D01*
X148270599Y-98403693D01*
X148294309Y-98400176D01*
X148318250Y-98399000D01*
X148881750Y-98399000D01*
X148905691Y-98400176D01*
X148905691Y-98400176D01*
G37*
D16*
X148600000Y-98887500D03*
D14*
G36*
X148905691Y-96825176D02*
G01*
X148929401Y-96828693D01*
X148952652Y-96834517D01*
X148975220Y-96842592D01*
X148996889Y-96852841D01*
X149017448Y-96865164D01*
X149036701Y-96879442D01*
X149054461Y-96895539D01*
X149070558Y-96913299D01*
X149084836Y-96932552D01*
X149097159Y-96953111D01*
X149107408Y-96974780D01*
X149115483Y-96997348D01*
X149121307Y-97020599D01*
X149124824Y-97044309D01*
X149126000Y-97068250D01*
X149126000Y-97556750D01*
X149124824Y-97580691D01*
X149121307Y-97604401D01*
X149115483Y-97627652D01*
X149107408Y-97650220D01*
X149097159Y-97671889D01*
X149084836Y-97692448D01*
X149070558Y-97711701D01*
X149054461Y-97729461D01*
X149036701Y-97745558D01*
X149017448Y-97759836D01*
X148996889Y-97772159D01*
X148975220Y-97782408D01*
X148952652Y-97790483D01*
X148929401Y-97796307D01*
X148905691Y-97799824D01*
X148881750Y-97801000D01*
X148318250Y-97801000D01*
X148294309Y-97799824D01*
X148270599Y-97796307D01*
X148247348Y-97790483D01*
X148224780Y-97782408D01*
X148203111Y-97772159D01*
X148182552Y-97759836D01*
X148163299Y-97745558D01*
X148145539Y-97729461D01*
X148129442Y-97711701D01*
X148115164Y-97692448D01*
X148102841Y-97671889D01*
X148092592Y-97650220D01*
X148084517Y-97627652D01*
X148078693Y-97604401D01*
X148075176Y-97580691D01*
X148074000Y-97556750D01*
X148074000Y-97068250D01*
X148075176Y-97044309D01*
X148078693Y-97020599D01*
X148084517Y-96997348D01*
X148092592Y-96974780D01*
X148102841Y-96953111D01*
X148115164Y-96932552D01*
X148129442Y-96913299D01*
X148145539Y-96895539D01*
X148163299Y-96879442D01*
X148182552Y-96865164D01*
X148203111Y-96852841D01*
X148224780Y-96842592D01*
X148247348Y-96834517D01*
X148270599Y-96828693D01*
X148294309Y-96825176D01*
X148318250Y-96824000D01*
X148881750Y-96824000D01*
X148905691Y-96825176D01*
X148905691Y-96825176D01*
G37*
D16*
X148600000Y-97312500D03*
D14*
G36*
X147755691Y-86275176D02*
G01*
X147779401Y-86278693D01*
X147802652Y-86284517D01*
X147825220Y-86292592D01*
X147846889Y-86302841D01*
X147867448Y-86315164D01*
X147886701Y-86329442D01*
X147904461Y-86345539D01*
X147920558Y-86363299D01*
X147934836Y-86382552D01*
X147947159Y-86403111D01*
X147957408Y-86424780D01*
X147965483Y-86447348D01*
X147971307Y-86470599D01*
X147974824Y-86494309D01*
X147976000Y-86518250D01*
X147976000Y-87081750D01*
X147974824Y-87105691D01*
X147971307Y-87129401D01*
X147965483Y-87152652D01*
X147957408Y-87175220D01*
X147947159Y-87196889D01*
X147934836Y-87217448D01*
X147920558Y-87236701D01*
X147904461Y-87254461D01*
X147886701Y-87270558D01*
X147867448Y-87284836D01*
X147846889Y-87297159D01*
X147825220Y-87307408D01*
X147802652Y-87315483D01*
X147779401Y-87321307D01*
X147755691Y-87324824D01*
X147731750Y-87326000D01*
X147243250Y-87326000D01*
X147219309Y-87324824D01*
X147195599Y-87321307D01*
X147172348Y-87315483D01*
X147149780Y-87307408D01*
X147128111Y-87297159D01*
X147107552Y-87284836D01*
X147088299Y-87270558D01*
X147070539Y-87254461D01*
X147054442Y-87236701D01*
X147040164Y-87217448D01*
X147027841Y-87196889D01*
X147017592Y-87175220D01*
X147009517Y-87152652D01*
X147003693Y-87129401D01*
X147000176Y-87105691D01*
X146999000Y-87081750D01*
X146999000Y-86518250D01*
X147000176Y-86494309D01*
X147003693Y-86470599D01*
X147009517Y-86447348D01*
X147017592Y-86424780D01*
X147027841Y-86403111D01*
X147040164Y-86382552D01*
X147054442Y-86363299D01*
X147070539Y-86345539D01*
X147088299Y-86329442D01*
X147107552Y-86315164D01*
X147128111Y-86302841D01*
X147149780Y-86292592D01*
X147172348Y-86284517D01*
X147195599Y-86278693D01*
X147219309Y-86275176D01*
X147243250Y-86274000D01*
X147731750Y-86274000D01*
X147755691Y-86275176D01*
X147755691Y-86275176D01*
G37*
D16*
X147487500Y-86800000D03*
D14*
G36*
X146180691Y-86275176D02*
G01*
X146204401Y-86278693D01*
X146227652Y-86284517D01*
X146250220Y-86292592D01*
X146271889Y-86302841D01*
X146292448Y-86315164D01*
X146311701Y-86329442D01*
X146329461Y-86345539D01*
X146345558Y-86363299D01*
X146359836Y-86382552D01*
X146372159Y-86403111D01*
X146382408Y-86424780D01*
X146390483Y-86447348D01*
X146396307Y-86470599D01*
X146399824Y-86494309D01*
X146401000Y-86518250D01*
X146401000Y-87081750D01*
X146399824Y-87105691D01*
X146396307Y-87129401D01*
X146390483Y-87152652D01*
X146382408Y-87175220D01*
X146372159Y-87196889D01*
X146359836Y-87217448D01*
X146345558Y-87236701D01*
X146329461Y-87254461D01*
X146311701Y-87270558D01*
X146292448Y-87284836D01*
X146271889Y-87297159D01*
X146250220Y-87307408D01*
X146227652Y-87315483D01*
X146204401Y-87321307D01*
X146180691Y-87324824D01*
X146156750Y-87326000D01*
X145668250Y-87326000D01*
X145644309Y-87324824D01*
X145620599Y-87321307D01*
X145597348Y-87315483D01*
X145574780Y-87307408D01*
X145553111Y-87297159D01*
X145532552Y-87284836D01*
X145513299Y-87270558D01*
X145495539Y-87254461D01*
X145479442Y-87236701D01*
X145465164Y-87217448D01*
X145452841Y-87196889D01*
X145442592Y-87175220D01*
X145434517Y-87152652D01*
X145428693Y-87129401D01*
X145425176Y-87105691D01*
X145424000Y-87081750D01*
X145424000Y-86518250D01*
X145425176Y-86494309D01*
X145428693Y-86470599D01*
X145434517Y-86447348D01*
X145442592Y-86424780D01*
X145452841Y-86403111D01*
X145465164Y-86382552D01*
X145479442Y-86363299D01*
X145495539Y-86345539D01*
X145513299Y-86329442D01*
X145532552Y-86315164D01*
X145553111Y-86302841D01*
X145574780Y-86292592D01*
X145597348Y-86284517D01*
X145620599Y-86278693D01*
X145644309Y-86275176D01*
X145668250Y-86274000D01*
X146156750Y-86274000D01*
X146180691Y-86275176D01*
X146180691Y-86275176D01*
G37*
D16*
X145912500Y-86800000D03*
M02*
