G04 #@! TF.GenerationSoftware,KiCad,Pcbnew,(5.1.2)-1*
G04 #@! TF.CreationDate,2024-07-07T09:58:16+09:00*
G04 #@! TF.ProjectId,slg,736c672e-6b69-4636-9164-5f7063625858,v1.0*
G04 #@! TF.SameCoordinates,Original*
G04 #@! TF.FileFunction,Copper,L2,Bot*
G04 #@! TF.FilePolarity,Positive*
%FSLAX46Y46*%
G04 Gerber Fmt 4.6, Leading zero omitted, Abs format (unit mm)*
G04 Created by KiCad (PCBNEW (5.1.2)-1) date 2024-07-07 09:58:16*
%MOMM*%
%LPD*%
G04 APERTURE LIST*
%ADD10O,1.524000X1.800000*%
%ADD11O,1.700000X1.700000*%
%ADD12R,1.700000X1.700000*%
%ADD13C,0.800000*%
%ADD14C,0.200000*%
%ADD15C,0.350000*%
%ADD16C,0.254000*%
%ADD17C,0.025400*%
G04 APERTURE END LIST*
D10*
X150700000Y-74900000D03*
X148700000Y-74900000D03*
X146700000Y-74900000D03*
X144700000Y-74900000D03*
D11*
X142240000Y-102750000D03*
X142240000Y-100210000D03*
X142240000Y-97670000D03*
X142240000Y-95130000D03*
X142240000Y-92590000D03*
X142240000Y-90050000D03*
X142240000Y-87510000D03*
X142240000Y-84970000D03*
X142240000Y-82430000D03*
D12*
X142240000Y-79890000D03*
D11*
X152400000Y-80010000D03*
X152400000Y-82550000D03*
X152400000Y-85090000D03*
X152400000Y-87630000D03*
X152400000Y-90170000D03*
X152400000Y-92710000D03*
X152400000Y-95250000D03*
X152400000Y-97790000D03*
X152400000Y-100330000D03*
D12*
X152400000Y-102870000D03*
D13*
X149400000Y-101900000D03*
X149680000Y-84090000D03*
X145030000Y-99110000D03*
X145200000Y-90327800D03*
X145564980Y-97600000D03*
X146500000Y-96100000D03*
X148459970Y-95400000D03*
X147900000Y-96299994D03*
X150600000Y-97100000D03*
X145219990Y-88636965D03*
X147154034Y-88185966D03*
X146100000Y-82700000D03*
D14*
X142240000Y-82430000D02*
X143275200Y-82430000D01*
X147820000Y-101900000D02*
X149400000Y-101900000D01*
X146220000Y-85374800D02*
X146220000Y-89190000D01*
X143275200Y-82430000D02*
X146220000Y-85374800D01*
X145940000Y-89470000D02*
X144530000Y-89470000D01*
X146220000Y-89190000D02*
X145940000Y-89470000D01*
X144530000Y-89470000D02*
X144106150Y-89893850D01*
X144106150Y-89893850D02*
X144106150Y-98186150D01*
X150700000Y-76650000D02*
X150700000Y-74900000D01*
X143275200Y-82430000D02*
X144920000Y-82430000D01*
X144920000Y-82430000D02*
X150700000Y-76650000D01*
X144106150Y-98186150D02*
X145030000Y-99110000D01*
X145030000Y-99110000D02*
X147820000Y-101900000D01*
X145300000Y-97335020D02*
X145564980Y-97600000D01*
X145300000Y-90327800D02*
X145300000Y-97335020D01*
D15*
X143440000Y-79890000D02*
X142240000Y-79890000D01*
X143848000Y-79890000D02*
X143440000Y-79890000D01*
X148700000Y-75038000D02*
X143848000Y-79890000D01*
X148700000Y-74900000D02*
X148700000Y-75038000D01*
D14*
X146500000Y-96100000D02*
X146500000Y-93100000D01*
X149430000Y-90170000D02*
X152400000Y-90170000D01*
X146500000Y-93100000D02*
X149430000Y-90170000D01*
X149025655Y-95400000D02*
X148459970Y-95400000D01*
X149710000Y-95400000D02*
X149025655Y-95400000D01*
X152400000Y-92710000D02*
X149710000Y-95400000D01*
X148465685Y-96299994D02*
X147900000Y-96299994D01*
X152400000Y-95250000D02*
X151350006Y-96299994D01*
X151350006Y-96299994D02*
X148465685Y-96299994D01*
X151350000Y-102870000D02*
X152400000Y-102870000D01*
X150600000Y-102120000D02*
X151350000Y-102870000D01*
X150600000Y-97100000D02*
X150600000Y-102120000D01*
X142240000Y-84970000D02*
X145219990Y-87949990D01*
X145219990Y-87949990D02*
X145219990Y-88071280D01*
X145219990Y-88071280D02*
X145219990Y-88636965D01*
X147554033Y-87785967D02*
X147554033Y-84554033D01*
X147154034Y-88185966D02*
X147554033Y-87785967D01*
X147554033Y-84554033D02*
X147554033Y-84154033D01*
X147554033Y-84154033D02*
X146100000Y-82700000D01*
D16*
G36*
X144332616Y-88102063D02*
G01*
X144302785Y-88146709D01*
X144224764Y-88335067D01*
X144184990Y-88535026D01*
X144184990Y-88738904D01*
X144224764Y-88938863D01*
X144302785Y-89127221D01*
X144416053Y-89296739D01*
X144560216Y-89440902D01*
X144612301Y-89475704D01*
X144540226Y-89523863D01*
X144396063Y-89668026D01*
X144282795Y-89837544D01*
X144204774Y-90025902D01*
X144165000Y-90225861D01*
X144165000Y-90429739D01*
X144204774Y-90629698D01*
X144282795Y-90818056D01*
X144396063Y-90987574D01*
X144451049Y-91042560D01*
X144472542Y-91066475D01*
X144493681Y-91088878D01*
X144541086Y-91136738D01*
X144550464Y-91146012D01*
X144565000Y-91160090D01*
X144565001Y-96891692D01*
X144564122Y-96978780D01*
X144561926Y-97046646D01*
X144558776Y-97103366D01*
X144554844Y-97154891D01*
X144550074Y-97207920D01*
X144544991Y-97263037D01*
X144544424Y-97269546D01*
X144539661Y-97327731D01*
X144538749Y-97340437D01*
X144534827Y-97404007D01*
X144534051Y-97419762D01*
X144531440Y-97490719D01*
X144529980Y-97498061D01*
X144529980Y-97701939D01*
X144569754Y-97901898D01*
X144647775Y-98090256D01*
X144761043Y-98259774D01*
X144905206Y-98403937D01*
X145074724Y-98517205D01*
X145263082Y-98595226D01*
X145463041Y-98635000D01*
X145666919Y-98635000D01*
X145866878Y-98595226D01*
X146055236Y-98517205D01*
X146224754Y-98403937D01*
X146368917Y-98259774D01*
X146482185Y-98090256D01*
X146560206Y-97901898D01*
X146599980Y-97701939D01*
X146599980Y-97498061D01*
X146560206Y-97298102D01*
X146492646Y-97135000D01*
X146601939Y-97135000D01*
X146801898Y-97095226D01*
X146990256Y-97017205D01*
X147089937Y-96950600D01*
X147096063Y-96959768D01*
X147240226Y-97103931D01*
X147409744Y-97217199D01*
X147598102Y-97295220D01*
X147798061Y-97334994D01*
X148001939Y-97334994D01*
X148201898Y-97295220D01*
X148390256Y-97217199D01*
X148432834Y-97188749D01*
X148443762Y-97182971D01*
X148479739Y-97162418D01*
X148541170Y-97124614D01*
X148565080Y-97109150D01*
X148618709Y-97072735D01*
X148624631Y-97068665D01*
X148665385Y-97040313D01*
X148670901Y-97036734D01*
X148713082Y-97034994D01*
X149565000Y-97034994D01*
X149565000Y-97201939D01*
X149604774Y-97401898D01*
X149682795Y-97590256D01*
X149711751Y-97633592D01*
X149716991Y-97643470D01*
X149738502Y-97680893D01*
X149776060Y-97741375D01*
X149792528Y-97766544D01*
X149828843Y-97819277D01*
X149833706Y-97826238D01*
X149862231Y-97866496D01*
X149863517Y-97868435D01*
X149865000Y-97903448D01*
X149865001Y-102083885D01*
X149861444Y-102120000D01*
X149875635Y-102264085D01*
X149903677Y-102356524D01*
X149917664Y-102402633D01*
X149985914Y-102530320D01*
X150077763Y-102642238D01*
X150105808Y-102665254D01*
X150370160Y-102929607D01*
X150370163Y-102929610D01*
X150504856Y-103064599D01*
X150617466Y-103178012D01*
X150713577Y-103275305D01*
X150777195Y-103340000D01*
X143608461Y-103340000D01*
X143618599Y-103321034D01*
X143703513Y-103041111D01*
X143732185Y-102750000D01*
X143703513Y-102458889D01*
X143618599Y-102178966D01*
X143480706Y-101920986D01*
X143295134Y-101694866D01*
X143069014Y-101509294D01*
X143014209Y-101480000D01*
X143069014Y-101450706D01*
X143295134Y-101265134D01*
X143480706Y-101039014D01*
X143618599Y-100781034D01*
X143703513Y-100501111D01*
X143732185Y-100210000D01*
X143703513Y-99918889D01*
X143618599Y-99638966D01*
X143480706Y-99380986D01*
X143295134Y-99154866D01*
X143069014Y-98969294D01*
X143014209Y-98940000D01*
X143069014Y-98910706D01*
X143295134Y-98725134D01*
X143480706Y-98499014D01*
X143618599Y-98241034D01*
X143703513Y-97961111D01*
X143732185Y-97670000D01*
X143703513Y-97378889D01*
X143618599Y-97098966D01*
X143480706Y-96840986D01*
X143295134Y-96614866D01*
X143069014Y-96429294D01*
X143014209Y-96400000D01*
X143069014Y-96370706D01*
X143295134Y-96185134D01*
X143480706Y-95959014D01*
X143618599Y-95701034D01*
X143703513Y-95421111D01*
X143732185Y-95130000D01*
X143703513Y-94838889D01*
X143618599Y-94558966D01*
X143480706Y-94300986D01*
X143295134Y-94074866D01*
X143069014Y-93889294D01*
X143014209Y-93860000D01*
X143069014Y-93830706D01*
X143295134Y-93645134D01*
X143480706Y-93419014D01*
X143618599Y-93161034D01*
X143703513Y-92881111D01*
X143732185Y-92590000D01*
X143703513Y-92298889D01*
X143618599Y-92018966D01*
X143480706Y-91760986D01*
X143295134Y-91534866D01*
X143069014Y-91349294D01*
X143014209Y-91320000D01*
X143069014Y-91290706D01*
X143295134Y-91105134D01*
X143480706Y-90879014D01*
X143618599Y-90621034D01*
X143703513Y-90341111D01*
X143732185Y-90050000D01*
X143703513Y-89758889D01*
X143618599Y-89478966D01*
X143480706Y-89220986D01*
X143295134Y-88994866D01*
X143069014Y-88809294D01*
X143014209Y-88780000D01*
X143069014Y-88750706D01*
X143295134Y-88565134D01*
X143480706Y-88339014D01*
X143618599Y-88081034D01*
X143703513Y-87801111D01*
X143732185Y-87510000D01*
X143731271Y-87500717D01*
X144332616Y-88102063D01*
X144332616Y-88102063D01*
G37*
X144332616Y-88102063D02*
X144302785Y-88146709D01*
X144224764Y-88335067D01*
X144184990Y-88535026D01*
X144184990Y-88738904D01*
X144224764Y-88938863D01*
X144302785Y-89127221D01*
X144416053Y-89296739D01*
X144560216Y-89440902D01*
X144612301Y-89475704D01*
X144540226Y-89523863D01*
X144396063Y-89668026D01*
X144282795Y-89837544D01*
X144204774Y-90025902D01*
X144165000Y-90225861D01*
X144165000Y-90429739D01*
X144204774Y-90629698D01*
X144282795Y-90818056D01*
X144396063Y-90987574D01*
X144451049Y-91042560D01*
X144472542Y-91066475D01*
X144493681Y-91088878D01*
X144541086Y-91136738D01*
X144550464Y-91146012D01*
X144565000Y-91160090D01*
X144565001Y-96891692D01*
X144564122Y-96978780D01*
X144561926Y-97046646D01*
X144558776Y-97103366D01*
X144554844Y-97154891D01*
X144550074Y-97207920D01*
X144544991Y-97263037D01*
X144544424Y-97269546D01*
X144539661Y-97327731D01*
X144538749Y-97340437D01*
X144534827Y-97404007D01*
X144534051Y-97419762D01*
X144531440Y-97490719D01*
X144529980Y-97498061D01*
X144529980Y-97701939D01*
X144569754Y-97901898D01*
X144647775Y-98090256D01*
X144761043Y-98259774D01*
X144905206Y-98403937D01*
X145074724Y-98517205D01*
X145263082Y-98595226D01*
X145463041Y-98635000D01*
X145666919Y-98635000D01*
X145866878Y-98595226D01*
X146055236Y-98517205D01*
X146224754Y-98403937D01*
X146368917Y-98259774D01*
X146482185Y-98090256D01*
X146560206Y-97901898D01*
X146599980Y-97701939D01*
X146599980Y-97498061D01*
X146560206Y-97298102D01*
X146492646Y-97135000D01*
X146601939Y-97135000D01*
X146801898Y-97095226D01*
X146990256Y-97017205D01*
X147089937Y-96950600D01*
X147096063Y-96959768D01*
X147240226Y-97103931D01*
X147409744Y-97217199D01*
X147598102Y-97295220D01*
X147798061Y-97334994D01*
X148001939Y-97334994D01*
X148201898Y-97295220D01*
X148390256Y-97217199D01*
X148432834Y-97188749D01*
X148443762Y-97182971D01*
X148479739Y-97162418D01*
X148541170Y-97124614D01*
X148565080Y-97109150D01*
X148618709Y-97072735D01*
X148624631Y-97068665D01*
X148665385Y-97040313D01*
X148670901Y-97036734D01*
X148713082Y-97034994D01*
X149565000Y-97034994D01*
X149565000Y-97201939D01*
X149604774Y-97401898D01*
X149682795Y-97590256D01*
X149711751Y-97633592D01*
X149716991Y-97643470D01*
X149738502Y-97680893D01*
X149776060Y-97741375D01*
X149792528Y-97766544D01*
X149828843Y-97819277D01*
X149833706Y-97826238D01*
X149862231Y-97866496D01*
X149863517Y-97868435D01*
X149865000Y-97903448D01*
X149865001Y-102083885D01*
X149861444Y-102120000D01*
X149875635Y-102264085D01*
X149903677Y-102356524D01*
X149917664Y-102402633D01*
X149985914Y-102530320D01*
X150077763Y-102642238D01*
X150105808Y-102665254D01*
X150370160Y-102929607D01*
X150370163Y-102929610D01*
X150504856Y-103064599D01*
X150617466Y-103178012D01*
X150713577Y-103275305D01*
X150777195Y-103340000D01*
X143608461Y-103340000D01*
X143618599Y-103321034D01*
X143703513Y-103041111D01*
X143732185Y-102750000D01*
X143703513Y-102458889D01*
X143618599Y-102178966D01*
X143480706Y-101920986D01*
X143295134Y-101694866D01*
X143069014Y-101509294D01*
X143014209Y-101480000D01*
X143069014Y-101450706D01*
X143295134Y-101265134D01*
X143480706Y-101039014D01*
X143618599Y-100781034D01*
X143703513Y-100501111D01*
X143732185Y-100210000D01*
X143703513Y-99918889D01*
X143618599Y-99638966D01*
X143480706Y-99380986D01*
X143295134Y-99154866D01*
X143069014Y-98969294D01*
X143014209Y-98940000D01*
X143069014Y-98910706D01*
X143295134Y-98725134D01*
X143480706Y-98499014D01*
X143618599Y-98241034D01*
X143703513Y-97961111D01*
X143732185Y-97670000D01*
X143703513Y-97378889D01*
X143618599Y-97098966D01*
X143480706Y-96840986D01*
X143295134Y-96614866D01*
X143069014Y-96429294D01*
X143014209Y-96400000D01*
X143069014Y-96370706D01*
X143295134Y-96185134D01*
X143480706Y-95959014D01*
X143618599Y-95701034D01*
X143703513Y-95421111D01*
X143732185Y-95130000D01*
X143703513Y-94838889D01*
X143618599Y-94558966D01*
X143480706Y-94300986D01*
X143295134Y-94074866D01*
X143069014Y-93889294D01*
X143014209Y-93860000D01*
X143069014Y-93830706D01*
X143295134Y-93645134D01*
X143480706Y-93419014D01*
X143618599Y-93161034D01*
X143703513Y-92881111D01*
X143732185Y-92590000D01*
X143703513Y-92298889D01*
X143618599Y-92018966D01*
X143480706Y-91760986D01*
X143295134Y-91534866D01*
X143069014Y-91349294D01*
X143014209Y-91320000D01*
X143069014Y-91290706D01*
X143295134Y-91105134D01*
X143480706Y-90879014D01*
X143618599Y-90621034D01*
X143703513Y-90341111D01*
X143732185Y-90050000D01*
X143703513Y-89758889D01*
X143618599Y-89478966D01*
X143480706Y-89220986D01*
X143295134Y-88994866D01*
X143069014Y-88809294D01*
X143014209Y-88780000D01*
X143069014Y-88750706D01*
X143295134Y-88565134D01*
X143480706Y-88339014D01*
X143618599Y-88081034D01*
X143703513Y-87801111D01*
X143732185Y-87510000D01*
X143731271Y-87500717D01*
X144332616Y-88102063D01*
G36*
X153065424Y-73669580D02*
G01*
X153128356Y-73688580D01*
X153186405Y-73719445D01*
X153237343Y-73760989D01*
X153279248Y-73811644D01*
X153310515Y-73869471D01*
X153329956Y-73932272D01*
X153340000Y-74027835D01*
X153340000Y-78860378D01*
X153229014Y-78769294D01*
X152971034Y-78631401D01*
X152691111Y-78546487D01*
X152472950Y-78525000D01*
X152327050Y-78525000D01*
X152108889Y-78546487D01*
X151828966Y-78631401D01*
X151570986Y-78769294D01*
X151344866Y-78954866D01*
X151159294Y-79180986D01*
X151021401Y-79438966D01*
X150936487Y-79718889D01*
X150907815Y-80010000D01*
X150936487Y-80301111D01*
X151021401Y-80581034D01*
X151159294Y-80839014D01*
X151344866Y-81065134D01*
X151570986Y-81250706D01*
X151625791Y-81280000D01*
X151570986Y-81309294D01*
X151344866Y-81494866D01*
X151159294Y-81720986D01*
X151021401Y-81978966D01*
X150936487Y-82258889D01*
X150907815Y-82550000D01*
X150936487Y-82841111D01*
X151021401Y-83121034D01*
X151159294Y-83379014D01*
X151344866Y-83605134D01*
X151570986Y-83790706D01*
X151625791Y-83820000D01*
X151570986Y-83849294D01*
X151344866Y-84034866D01*
X151159294Y-84260986D01*
X151021401Y-84518966D01*
X150936487Y-84798889D01*
X150907815Y-85090000D01*
X150936487Y-85381111D01*
X151021401Y-85661034D01*
X151159294Y-85919014D01*
X151344866Y-86145134D01*
X151570986Y-86330706D01*
X151625791Y-86360000D01*
X151570986Y-86389294D01*
X151344866Y-86574866D01*
X151159294Y-86800986D01*
X151021401Y-87058966D01*
X150936487Y-87338889D01*
X150907815Y-87630000D01*
X150936487Y-87921111D01*
X151021401Y-88201034D01*
X151159294Y-88459014D01*
X151344866Y-88685134D01*
X151570986Y-88870706D01*
X151625791Y-88900000D01*
X151570986Y-88929294D01*
X151558540Y-88939508D01*
X151510149Y-88969283D01*
X151377716Y-89060084D01*
X151338485Y-89089265D01*
X151225805Y-89180020D01*
X151207336Y-89195481D01*
X151109959Y-89280196D01*
X151034586Y-89343760D01*
X150984987Y-89379581D01*
X150950066Y-89398553D01*
X150908406Y-89413335D01*
X150834225Y-89427303D01*
X150692745Y-89435000D01*
X149466105Y-89435000D01*
X149430000Y-89431444D01*
X149285915Y-89445635D01*
X149147366Y-89487663D01*
X149022941Y-89554170D01*
X149019680Y-89555913D01*
X148907762Y-89647762D01*
X148884746Y-89675807D01*
X146035000Y-92525554D01*
X146035000Y-91129320D01*
X146037273Y-91066748D01*
X146040662Y-91038792D01*
X146043573Y-91025466D01*
X146047320Y-91013686D01*
X146056767Y-90990183D01*
X146076469Y-90946246D01*
X146077173Y-90944669D01*
X146102718Y-90887284D01*
X146112663Y-90863674D01*
X146137782Y-90800503D01*
X146151851Y-90761448D01*
X146175380Y-90688767D01*
X146185273Y-90653725D01*
X146195226Y-90629698D01*
X146235000Y-90429739D01*
X146235000Y-90225861D01*
X146195226Y-90025902D01*
X146117205Y-89837544D01*
X146003937Y-89668026D01*
X145859774Y-89523863D01*
X145807689Y-89489061D01*
X145879764Y-89440902D01*
X146023927Y-89296739D01*
X146137195Y-89127221D01*
X146215216Y-88938863D01*
X146254990Y-88738904D01*
X146254990Y-88703402D01*
X146350097Y-88845740D01*
X146494260Y-88989903D01*
X146663778Y-89103171D01*
X146852136Y-89181192D01*
X147052095Y-89220966D01*
X147255973Y-89220966D01*
X147455932Y-89181192D01*
X147644290Y-89103171D01*
X147813808Y-88989903D01*
X147957971Y-88845740D01*
X148071239Y-88676222D01*
X148149260Y-88487864D01*
X148189034Y-88287905D01*
X148189034Y-88197514D01*
X148190490Y-88157629D01*
X148190965Y-88153547D01*
X148236370Y-88068600D01*
X148265649Y-87972081D01*
X148278398Y-87930053D01*
X148292589Y-87785968D01*
X148289033Y-87749863D01*
X148289033Y-84190129D01*
X148292588Y-84154032D01*
X148289033Y-84117935D01*
X148289033Y-84117929D01*
X148278398Y-84009948D01*
X148236370Y-83871400D01*
X148168120Y-83743713D01*
X148076271Y-83631795D01*
X148048226Y-83608779D01*
X147187850Y-82748404D01*
X147164136Y-82722591D01*
X147163676Y-82720324D01*
X147155378Y-82671676D01*
X147153895Y-82663318D01*
X147142286Y-82600352D01*
X147136133Y-82570906D01*
X147119923Y-82501581D01*
X147108675Y-82459917D01*
X147105395Y-82449226D01*
X147095226Y-82398102D01*
X147017205Y-82209744D01*
X146903937Y-82040226D01*
X146759774Y-81896063D01*
X146590256Y-81782795D01*
X146401898Y-81704774D01*
X146201939Y-81665000D01*
X145998061Y-81665000D01*
X145798102Y-81704774D01*
X145609744Y-81782795D01*
X145440226Y-81896063D01*
X145296063Y-82040226D01*
X145182795Y-82209744D01*
X145104774Y-82398102D01*
X145065000Y-82598061D01*
X145065000Y-82801939D01*
X145104774Y-83001898D01*
X145182795Y-83190256D01*
X145296063Y-83359774D01*
X145440226Y-83503937D01*
X145609744Y-83617205D01*
X145798102Y-83695226D01*
X145849226Y-83705395D01*
X145859917Y-83708675D01*
X145901581Y-83719923D01*
X145970906Y-83736133D01*
X146000352Y-83742286D01*
X146063318Y-83753895D01*
X146071676Y-83755378D01*
X146120324Y-83763676D01*
X146122591Y-83764136D01*
X146148404Y-83787850D01*
X146819033Y-84458480D01*
X146819033Y-84590137D01*
X146819034Y-84590147D01*
X146819033Y-87204452D01*
X146663778Y-87268761D01*
X146494260Y-87382029D01*
X146350097Y-87526192D01*
X146236829Y-87695710D01*
X146158808Y-87884068D01*
X146119034Y-88084027D01*
X146119034Y-88119529D01*
X146023927Y-87977191D01*
X145985059Y-87938323D01*
X145983870Y-87933576D01*
X145982000Y-87926294D01*
X145968123Y-87873536D01*
X145954543Y-87828700D01*
X145935837Y-87774265D01*
X145931730Y-87764285D01*
X145902327Y-87667357D01*
X145834077Y-87539670D01*
X145817504Y-87519477D01*
X145765243Y-87455796D01*
X145765240Y-87455793D01*
X145742227Y-87427752D01*
X145714187Y-87404740D01*
X143966931Y-85657484D01*
X143872339Y-85552009D01*
X143829753Y-85489664D01*
X143810755Y-85449771D01*
X143799475Y-85411652D01*
X143789733Y-85351256D01*
X143781373Y-85252900D01*
X143772427Y-85124252D01*
X143770301Y-85100261D01*
X143754798Y-84956410D01*
X143747691Y-84908034D01*
X143718253Y-84750185D01*
X143705092Y-84694920D01*
X143703513Y-84678889D01*
X143618599Y-84398966D01*
X143480706Y-84140986D01*
X143295134Y-83914866D01*
X143069014Y-83729294D01*
X143004477Y-83694799D01*
X143121355Y-83625178D01*
X143337588Y-83430269D01*
X143511641Y-83196920D01*
X143636825Y-82934099D01*
X143681476Y-82786890D01*
X143560155Y-82557000D01*
X142367000Y-82557000D01*
X142367000Y-82577000D01*
X142113000Y-82577000D01*
X142113000Y-82557000D01*
X142093000Y-82557000D01*
X142093000Y-82303000D01*
X142113000Y-82303000D01*
X142113000Y-82283000D01*
X142367000Y-82283000D01*
X142367000Y-82303000D01*
X143560155Y-82303000D01*
X143681476Y-82073110D01*
X143636825Y-81925901D01*
X143511641Y-81663080D01*
X143337588Y-81429731D01*
X143253534Y-81353966D01*
X143334180Y-81329502D01*
X143444494Y-81270537D01*
X143541185Y-81191185D01*
X143620537Y-81094494D01*
X143679502Y-80984180D01*
X143715812Y-80864482D01*
X143719095Y-80831144D01*
X143803723Y-80810099D01*
X143888005Y-80782771D01*
X144010654Y-80733303D01*
X144105013Y-80685767D01*
X144233348Y-80607092D01*
X144256792Y-80589945D01*
X144300189Y-80566749D01*
X144423528Y-80465528D01*
X144448900Y-80434612D01*
X148258097Y-76625415D01*
X148362369Y-76529308D01*
X148433552Y-76475416D01*
X148486952Y-76443678D01*
X148528761Y-76424893D01*
X148700000Y-76441759D01*
X148973860Y-76414786D01*
X149237195Y-76334904D01*
X149479887Y-76205183D01*
X149692608Y-76030608D01*
X149705961Y-76014337D01*
X149869670Y-76162135D01*
X150104932Y-76302524D01*
X150356930Y-76392220D01*
X150573000Y-76269720D01*
X150573000Y-75027000D01*
X150827000Y-75027000D01*
X150827000Y-76269720D01*
X151043070Y-76392220D01*
X151295068Y-76302524D01*
X151530330Y-76162135D01*
X151733683Y-75978546D01*
X151897312Y-75758812D01*
X152014929Y-75511378D01*
X152082014Y-75245752D01*
X151938749Y-75027000D01*
X150827000Y-75027000D01*
X150573000Y-75027000D01*
X150553000Y-75027000D01*
X150553000Y-74773000D01*
X150573000Y-74773000D01*
X150573000Y-74753000D01*
X150827000Y-74753000D01*
X150827000Y-74773000D01*
X151938749Y-74773000D01*
X152082014Y-74554248D01*
X152014929Y-74288622D01*
X151897312Y-74041188D01*
X151733683Y-73821454D01*
X151554848Y-73660000D01*
X152967721Y-73660000D01*
X153065424Y-73669580D01*
X153065424Y-73669580D01*
G37*
X153065424Y-73669580D02*
X153128356Y-73688580D01*
X153186405Y-73719445D01*
X153237343Y-73760989D01*
X153279248Y-73811644D01*
X153310515Y-73869471D01*
X153329956Y-73932272D01*
X153340000Y-74027835D01*
X153340000Y-78860378D01*
X153229014Y-78769294D01*
X152971034Y-78631401D01*
X152691111Y-78546487D01*
X152472950Y-78525000D01*
X152327050Y-78525000D01*
X152108889Y-78546487D01*
X151828966Y-78631401D01*
X151570986Y-78769294D01*
X151344866Y-78954866D01*
X151159294Y-79180986D01*
X151021401Y-79438966D01*
X150936487Y-79718889D01*
X150907815Y-80010000D01*
X150936487Y-80301111D01*
X151021401Y-80581034D01*
X151159294Y-80839014D01*
X151344866Y-81065134D01*
X151570986Y-81250706D01*
X151625791Y-81280000D01*
X151570986Y-81309294D01*
X151344866Y-81494866D01*
X151159294Y-81720986D01*
X151021401Y-81978966D01*
X150936487Y-82258889D01*
X150907815Y-82550000D01*
X150936487Y-82841111D01*
X151021401Y-83121034D01*
X151159294Y-83379014D01*
X151344866Y-83605134D01*
X151570986Y-83790706D01*
X151625791Y-83820000D01*
X151570986Y-83849294D01*
X151344866Y-84034866D01*
X151159294Y-84260986D01*
X151021401Y-84518966D01*
X150936487Y-84798889D01*
X150907815Y-85090000D01*
X150936487Y-85381111D01*
X151021401Y-85661034D01*
X151159294Y-85919014D01*
X151344866Y-86145134D01*
X151570986Y-86330706D01*
X151625791Y-86360000D01*
X151570986Y-86389294D01*
X151344866Y-86574866D01*
X151159294Y-86800986D01*
X151021401Y-87058966D01*
X150936487Y-87338889D01*
X150907815Y-87630000D01*
X150936487Y-87921111D01*
X151021401Y-88201034D01*
X151159294Y-88459014D01*
X151344866Y-88685134D01*
X151570986Y-88870706D01*
X151625791Y-88900000D01*
X151570986Y-88929294D01*
X151558540Y-88939508D01*
X151510149Y-88969283D01*
X151377716Y-89060084D01*
X151338485Y-89089265D01*
X151225805Y-89180020D01*
X151207336Y-89195481D01*
X151109959Y-89280196D01*
X151034586Y-89343760D01*
X150984987Y-89379581D01*
X150950066Y-89398553D01*
X150908406Y-89413335D01*
X150834225Y-89427303D01*
X150692745Y-89435000D01*
X149466105Y-89435000D01*
X149430000Y-89431444D01*
X149285915Y-89445635D01*
X149147366Y-89487663D01*
X149022941Y-89554170D01*
X149019680Y-89555913D01*
X148907762Y-89647762D01*
X148884746Y-89675807D01*
X146035000Y-92525554D01*
X146035000Y-91129320D01*
X146037273Y-91066748D01*
X146040662Y-91038792D01*
X146043573Y-91025466D01*
X146047320Y-91013686D01*
X146056767Y-90990183D01*
X146076469Y-90946246D01*
X146077173Y-90944669D01*
X146102718Y-90887284D01*
X146112663Y-90863674D01*
X146137782Y-90800503D01*
X146151851Y-90761448D01*
X146175380Y-90688767D01*
X146185273Y-90653725D01*
X146195226Y-90629698D01*
X146235000Y-90429739D01*
X146235000Y-90225861D01*
X146195226Y-90025902D01*
X146117205Y-89837544D01*
X146003937Y-89668026D01*
X145859774Y-89523863D01*
X145807689Y-89489061D01*
X145879764Y-89440902D01*
X146023927Y-89296739D01*
X146137195Y-89127221D01*
X146215216Y-88938863D01*
X146254990Y-88738904D01*
X146254990Y-88703402D01*
X146350097Y-88845740D01*
X146494260Y-88989903D01*
X146663778Y-89103171D01*
X146852136Y-89181192D01*
X147052095Y-89220966D01*
X147255973Y-89220966D01*
X147455932Y-89181192D01*
X147644290Y-89103171D01*
X147813808Y-88989903D01*
X147957971Y-88845740D01*
X148071239Y-88676222D01*
X148149260Y-88487864D01*
X148189034Y-88287905D01*
X148189034Y-88197514D01*
X148190490Y-88157629D01*
X148190965Y-88153547D01*
X148236370Y-88068600D01*
X148265649Y-87972081D01*
X148278398Y-87930053D01*
X148292589Y-87785968D01*
X148289033Y-87749863D01*
X148289033Y-84190129D01*
X148292588Y-84154032D01*
X148289033Y-84117935D01*
X148289033Y-84117929D01*
X148278398Y-84009948D01*
X148236370Y-83871400D01*
X148168120Y-83743713D01*
X148076271Y-83631795D01*
X148048226Y-83608779D01*
X147187850Y-82748404D01*
X147164136Y-82722591D01*
X147163676Y-82720324D01*
X147155378Y-82671676D01*
X147153895Y-82663318D01*
X147142286Y-82600352D01*
X147136133Y-82570906D01*
X147119923Y-82501581D01*
X147108675Y-82459917D01*
X147105395Y-82449226D01*
X147095226Y-82398102D01*
X147017205Y-82209744D01*
X146903937Y-82040226D01*
X146759774Y-81896063D01*
X146590256Y-81782795D01*
X146401898Y-81704774D01*
X146201939Y-81665000D01*
X145998061Y-81665000D01*
X145798102Y-81704774D01*
X145609744Y-81782795D01*
X145440226Y-81896063D01*
X145296063Y-82040226D01*
X145182795Y-82209744D01*
X145104774Y-82398102D01*
X145065000Y-82598061D01*
X145065000Y-82801939D01*
X145104774Y-83001898D01*
X145182795Y-83190256D01*
X145296063Y-83359774D01*
X145440226Y-83503937D01*
X145609744Y-83617205D01*
X145798102Y-83695226D01*
X145849226Y-83705395D01*
X145859917Y-83708675D01*
X145901581Y-83719923D01*
X145970906Y-83736133D01*
X146000352Y-83742286D01*
X146063318Y-83753895D01*
X146071676Y-83755378D01*
X146120324Y-83763676D01*
X146122591Y-83764136D01*
X146148404Y-83787850D01*
X146819033Y-84458480D01*
X146819033Y-84590137D01*
X146819034Y-84590147D01*
X146819033Y-87204452D01*
X146663778Y-87268761D01*
X146494260Y-87382029D01*
X146350097Y-87526192D01*
X146236829Y-87695710D01*
X146158808Y-87884068D01*
X146119034Y-88084027D01*
X146119034Y-88119529D01*
X146023927Y-87977191D01*
X145985059Y-87938323D01*
X145983870Y-87933576D01*
X145982000Y-87926294D01*
X145968123Y-87873536D01*
X145954543Y-87828700D01*
X145935837Y-87774265D01*
X145931730Y-87764285D01*
X145902327Y-87667357D01*
X145834077Y-87539670D01*
X145817504Y-87519477D01*
X145765243Y-87455796D01*
X145765240Y-87455793D01*
X145742227Y-87427752D01*
X145714187Y-87404740D01*
X143966931Y-85657484D01*
X143872339Y-85552009D01*
X143829753Y-85489664D01*
X143810755Y-85449771D01*
X143799475Y-85411652D01*
X143789733Y-85351256D01*
X143781373Y-85252900D01*
X143772427Y-85124252D01*
X143770301Y-85100261D01*
X143754798Y-84956410D01*
X143747691Y-84908034D01*
X143718253Y-84750185D01*
X143705092Y-84694920D01*
X143703513Y-84678889D01*
X143618599Y-84398966D01*
X143480706Y-84140986D01*
X143295134Y-83914866D01*
X143069014Y-83729294D01*
X143004477Y-83694799D01*
X143121355Y-83625178D01*
X143337588Y-83430269D01*
X143511641Y-83196920D01*
X143636825Y-82934099D01*
X143681476Y-82786890D01*
X143560155Y-82557000D01*
X142367000Y-82557000D01*
X142367000Y-82577000D01*
X142113000Y-82577000D01*
X142113000Y-82557000D01*
X142093000Y-82557000D01*
X142093000Y-82303000D01*
X142113000Y-82303000D01*
X142113000Y-82283000D01*
X142367000Y-82283000D01*
X142367000Y-82303000D01*
X143560155Y-82303000D01*
X143681476Y-82073110D01*
X143636825Y-81925901D01*
X143511641Y-81663080D01*
X143337588Y-81429731D01*
X143253534Y-81353966D01*
X143334180Y-81329502D01*
X143444494Y-81270537D01*
X143541185Y-81191185D01*
X143620537Y-81094494D01*
X143679502Y-80984180D01*
X143715812Y-80864482D01*
X143719095Y-80831144D01*
X143803723Y-80810099D01*
X143888005Y-80782771D01*
X144010654Y-80733303D01*
X144105013Y-80685767D01*
X144233348Y-80607092D01*
X144256792Y-80589945D01*
X144300189Y-80566749D01*
X144423528Y-80465528D01*
X144448900Y-80434612D01*
X148258097Y-76625415D01*
X148362369Y-76529308D01*
X148433552Y-76475416D01*
X148486952Y-76443678D01*
X148528761Y-76424893D01*
X148700000Y-76441759D01*
X148973860Y-76414786D01*
X149237195Y-76334904D01*
X149479887Y-76205183D01*
X149692608Y-76030608D01*
X149705961Y-76014337D01*
X149869670Y-76162135D01*
X150104932Y-76302524D01*
X150356930Y-76392220D01*
X150573000Y-76269720D01*
X150573000Y-75027000D01*
X150827000Y-75027000D01*
X150827000Y-76269720D01*
X151043070Y-76392220D01*
X151295068Y-76302524D01*
X151530330Y-76162135D01*
X151733683Y-75978546D01*
X151897312Y-75758812D01*
X152014929Y-75511378D01*
X152082014Y-75245752D01*
X151938749Y-75027000D01*
X150827000Y-75027000D01*
X150573000Y-75027000D01*
X150553000Y-75027000D01*
X150553000Y-74773000D01*
X150573000Y-74773000D01*
X150573000Y-74753000D01*
X150827000Y-74753000D01*
X150827000Y-74773000D01*
X151938749Y-74773000D01*
X152082014Y-74554248D01*
X152014929Y-74288622D01*
X151897312Y-74041188D01*
X151733683Y-73821454D01*
X151554848Y-73660000D01*
X152967721Y-73660000D01*
X153065424Y-73669580D01*
D17*
G36*
X145577517Y-90413237D02*
G01*
X145559019Y-90489730D01*
X145535761Y-90561575D01*
X145510892Y-90624117D01*
X145485467Y-90681233D01*
X145460659Y-90736557D01*
X145460463Y-90737016D01*
X145437557Y-90794002D01*
X145437239Y-90794889D01*
X145417398Y-90857263D01*
X145417093Y-90858403D01*
X145401479Y-90929888D01*
X145401278Y-90931070D01*
X145391057Y-91015391D01*
X145390973Y-91016458D01*
X145387753Y-91105100D01*
X145212121Y-91105100D01*
X145208767Y-91033297D01*
X145208615Y-91031843D01*
X145197243Y-90962204D01*
X145196826Y-90960449D01*
X145178577Y-90902292D01*
X145177836Y-90900448D01*
X145153286Y-90850981D01*
X145152339Y-90849380D01*
X145122066Y-90805815D01*
X145121192Y-90804696D01*
X145085771Y-90764242D01*
X145085212Y-90763643D01*
X145045220Y-90723511D01*
X145045059Y-90723353D01*
X145001166Y-90680842D01*
X144954076Y-90633300D01*
X144910138Y-90584411D01*
X145154876Y-90151816D01*
X145577517Y-90413237D01*
X145577517Y-90413237D01*
G37*
X145577517Y-90413237D02*
X145559019Y-90489730D01*
X145535761Y-90561575D01*
X145510892Y-90624117D01*
X145485467Y-90681233D01*
X145460659Y-90736557D01*
X145460463Y-90737016D01*
X145437557Y-90794002D01*
X145437239Y-90794889D01*
X145417398Y-90857263D01*
X145417093Y-90858403D01*
X145401479Y-90929888D01*
X145401278Y-90931070D01*
X145391057Y-91015391D01*
X145390973Y-91016458D01*
X145387753Y-91105100D01*
X145212121Y-91105100D01*
X145208767Y-91033297D01*
X145208615Y-91031843D01*
X145197243Y-90962204D01*
X145196826Y-90960449D01*
X145178577Y-90902292D01*
X145177836Y-90900448D01*
X145153286Y-90850981D01*
X145152339Y-90849380D01*
X145122066Y-90805815D01*
X145121192Y-90804696D01*
X145085771Y-90764242D01*
X145085212Y-90763643D01*
X145045220Y-90723511D01*
X145045059Y-90723353D01*
X145001166Y-90680842D01*
X144954076Y-90633300D01*
X144910138Y-90584411D01*
X145154876Y-90151816D01*
X145577517Y-90413237D01*
G36*
X145391333Y-96959794D02*
G01*
X145391605Y-96961731D01*
X145403281Y-97014765D01*
X145404021Y-97017061D01*
X145422843Y-97060731D01*
X145424145Y-97063049D01*
X145449589Y-97098940D01*
X145451245Y-97100842D01*
X145482787Y-97130537D01*
X145484381Y-97131813D01*
X145521499Y-97156897D01*
X145522724Y-97157628D01*
X145564895Y-97179684D01*
X145565653Y-97180049D01*
X145612354Y-97200661D01*
X145612672Y-97200796D01*
X145663323Y-97221525D01*
X145709244Y-97240572D01*
X145684275Y-97734396D01*
X145177792Y-97590439D01*
X145178657Y-97515760D01*
X145181306Y-97443754D01*
X145185211Y-97380459D01*
X145189965Y-97322390D01*
X145195136Y-97266322D01*
X145195139Y-97266294D01*
X145200321Y-97208684D01*
X145200335Y-97208512D01*
X145205098Y-97146092D01*
X145205115Y-97145830D01*
X145209037Y-97075201D01*
X145209050Y-97074908D01*
X145211712Y-96992672D01*
X145211718Y-96992389D01*
X145212572Y-96907720D01*
X145388071Y-96907720D01*
X145391333Y-96959794D01*
X145391333Y-96959794D01*
G37*
X145391333Y-96959794D02*
X145391605Y-96961731D01*
X145403281Y-97014765D01*
X145404021Y-97017061D01*
X145422843Y-97060731D01*
X145424145Y-97063049D01*
X145449589Y-97098940D01*
X145451245Y-97100842D01*
X145482787Y-97130537D01*
X145484381Y-97131813D01*
X145521499Y-97156897D01*
X145522724Y-97157628D01*
X145564895Y-97179684D01*
X145565653Y-97180049D01*
X145612354Y-97200661D01*
X145612672Y-97200796D01*
X145663323Y-97221525D01*
X145709244Y-97240572D01*
X145684275Y-97734396D01*
X145177792Y-97590439D01*
X145178657Y-97515760D01*
X145181306Y-97443754D01*
X145185211Y-97380459D01*
X145189965Y-97322390D01*
X145195136Y-97266322D01*
X145195139Y-97266294D01*
X145200321Y-97208684D01*
X145200335Y-97208512D01*
X145205098Y-97146092D01*
X145205115Y-97145830D01*
X145209037Y-97075201D01*
X145209050Y-97074908D01*
X145211712Y-96992672D01*
X145211718Y-96992389D01*
X145212572Y-96907720D01*
X145388071Y-96907720D01*
X145391333Y-96959794D01*
G36*
X142748914Y-79224706D02*
G01*
X142878052Y-79334719D01*
X142995775Y-79456048D01*
X143105351Y-79577897D01*
X143105540Y-79578103D01*
X143210227Y-79689492D01*
X143211132Y-79690364D01*
X143314253Y-79780338D01*
X143316480Y-79781895D01*
X143421530Y-79839689D01*
X143423819Y-79840670D01*
X143425960Y-79841149D01*
X143536432Y-79855996D01*
X143538920Y-79856084D01*
X143542055Y-79855485D01*
X143661443Y-79816620D01*
X143663724Y-79815621D01*
X143665348Y-79814538D01*
X143788290Y-79718142D01*
X144018162Y-79948014D01*
X143893945Y-80055438D01*
X143767397Y-80133018D01*
X143646560Y-80181755D01*
X143529655Y-80210826D01*
X143415099Y-80229228D01*
X143301685Y-80245974D01*
X143300886Y-80246118D01*
X143187872Y-80270269D01*
X143186252Y-80270730D01*
X143072371Y-80311429D01*
X143070338Y-80312365D01*
X142954279Y-80378765D01*
X142952378Y-80380097D01*
X142839697Y-80475535D01*
X141835897Y-79887523D01*
X142612237Y-79140955D01*
X142748914Y-79224706D01*
X142748914Y-79224706D01*
G37*
X142748914Y-79224706D02*
X142878052Y-79334719D01*
X142995775Y-79456048D01*
X143105351Y-79577897D01*
X143105540Y-79578103D01*
X143210227Y-79689492D01*
X143211132Y-79690364D01*
X143314253Y-79780338D01*
X143316480Y-79781895D01*
X143421530Y-79839689D01*
X143423819Y-79840670D01*
X143425960Y-79841149D01*
X143536432Y-79855996D01*
X143538920Y-79856084D01*
X143542055Y-79855485D01*
X143661443Y-79816620D01*
X143663724Y-79815621D01*
X143665348Y-79814538D01*
X143788290Y-79718142D01*
X144018162Y-79948014D01*
X143893945Y-80055438D01*
X143767397Y-80133018D01*
X143646560Y-80181755D01*
X143529655Y-80210826D01*
X143415099Y-80229228D01*
X143301685Y-80245974D01*
X143300886Y-80246118D01*
X143187872Y-80270269D01*
X143186252Y-80270730D01*
X143072371Y-80311429D01*
X143070338Y-80312365D01*
X142954279Y-80378765D01*
X142952378Y-80380097D01*
X142839697Y-80475535D01*
X141835897Y-79887523D01*
X142612237Y-79140955D01*
X142748914Y-79224706D01*
G36*
X149026351Y-75574163D02*
G01*
X148885740Y-75637534D01*
X148752391Y-75685747D01*
X148630571Y-75721588D01*
X148516768Y-75751356D01*
X148516618Y-75751397D01*
X148407538Y-75781361D01*
X148406829Y-75781578D01*
X148299206Y-75818023D01*
X148298074Y-75818468D01*
X148188451Y-75867722D01*
X148187167Y-75868389D01*
X148072090Y-75936786D01*
X148070913Y-75937578D01*
X147946925Y-76031449D01*
X147945984Y-76032236D01*
X147818598Y-76149648D01*
X147588310Y-75919360D01*
X147694146Y-75803364D01*
X147695044Y-75802261D01*
X147778232Y-75687587D01*
X147779149Y-75686123D01*
X147836764Y-75578489D01*
X147837519Y-75576789D01*
X147874816Y-75472955D01*
X147875280Y-75471335D01*
X147897512Y-75368059D01*
X147897710Y-75366865D01*
X147910130Y-75260906D01*
X147910185Y-75260317D01*
X147918047Y-75148434D01*
X147918046Y-75148434D01*
X147926586Y-75027646D01*
X147941027Y-74894795D01*
X147965108Y-74755145D01*
X148921589Y-74612888D01*
X149026351Y-75574163D01*
X149026351Y-75574163D01*
G37*
X149026351Y-75574163D02*
X148885740Y-75637534D01*
X148752391Y-75685747D01*
X148630571Y-75721588D01*
X148516768Y-75751356D01*
X148516618Y-75751397D01*
X148407538Y-75781361D01*
X148406829Y-75781578D01*
X148299206Y-75818023D01*
X148298074Y-75818468D01*
X148188451Y-75867722D01*
X148187167Y-75868389D01*
X148072090Y-75936786D01*
X148070913Y-75937578D01*
X147946925Y-76031449D01*
X147945984Y-76032236D01*
X147818598Y-76149648D01*
X147588310Y-75919360D01*
X147694146Y-75803364D01*
X147695044Y-75802261D01*
X147778232Y-75687587D01*
X147779149Y-75686123D01*
X147836764Y-75578489D01*
X147837519Y-75576789D01*
X147874816Y-75472955D01*
X147875280Y-75471335D01*
X147897512Y-75368059D01*
X147897710Y-75366865D01*
X147910130Y-75260906D01*
X147910185Y-75260317D01*
X147918047Y-75148434D01*
X147918046Y-75148434D01*
X147926586Y-75027646D01*
X147941027Y-74894795D01*
X147965108Y-74755145D01*
X148921589Y-74612888D01*
X149026351Y-75574163D01*
G36*
X146591182Y-95401935D02*
G01*
X146591303Y-95403227D01*
X146602353Y-95479147D01*
X146602668Y-95480658D01*
X146620049Y-95544418D01*
X146620577Y-95545959D01*
X146643440Y-95600876D01*
X146644069Y-95602172D01*
X146671567Y-95651566D01*
X146672078Y-95652407D01*
X146703363Y-95699596D01*
X146703586Y-95699920D01*
X146737712Y-95748082D01*
X146773858Y-95800569D01*
X146811032Y-95860433D01*
X146844471Y-95923471D01*
X146500000Y-96281678D01*
X146155529Y-95923471D01*
X146188967Y-95860433D01*
X146226141Y-95800569D01*
X146262287Y-95748082D01*
X146296413Y-95699920D01*
X146296636Y-95699596D01*
X146327921Y-95652407D01*
X146328432Y-95651566D01*
X146355930Y-95602172D01*
X146356559Y-95600876D01*
X146379422Y-95545959D01*
X146379950Y-95544418D01*
X146397331Y-95480658D01*
X146397646Y-95479147D01*
X146408696Y-95403227D01*
X146408817Y-95401936D01*
X146412174Y-95322700D01*
X146587826Y-95322700D01*
X146591182Y-95401935D01*
X146591182Y-95401935D01*
G37*
X146591182Y-95401935D02*
X146591303Y-95403227D01*
X146602353Y-95479147D01*
X146602668Y-95480658D01*
X146620049Y-95544418D01*
X146620577Y-95545959D01*
X146643440Y-95600876D01*
X146644069Y-95602172D01*
X146671567Y-95651566D01*
X146672078Y-95652407D01*
X146703363Y-95699596D01*
X146703586Y-95699920D01*
X146737712Y-95748082D01*
X146773858Y-95800569D01*
X146811032Y-95860433D01*
X146844471Y-95923471D01*
X146500000Y-96281678D01*
X146155529Y-95923471D01*
X146188967Y-95860433D01*
X146226141Y-95800569D01*
X146262287Y-95748082D01*
X146296413Y-95699920D01*
X146296636Y-95699596D01*
X146327921Y-95652407D01*
X146328432Y-95651566D01*
X146355930Y-95602172D01*
X146356559Y-95600876D01*
X146379422Y-95545959D01*
X146379950Y-95544418D01*
X146397331Y-95480658D01*
X146397646Y-95479147D01*
X146408696Y-95403227D01*
X146408817Y-95401936D01*
X146412174Y-95322700D01*
X146587826Y-95322700D01*
X146591182Y-95401935D01*
G36*
X152806678Y-90170000D02*
G01*
X152027422Y-90919373D01*
X151875894Y-90836164D01*
X151744385Y-90745996D01*
X151632285Y-90655708D01*
X151531451Y-90567986D01*
X151531303Y-90567860D01*
X151433898Y-90485715D01*
X151433146Y-90485127D01*
X151331265Y-90411549D01*
X151329892Y-90410686D01*
X151215456Y-90348514D01*
X151213640Y-90347704D01*
X151078574Y-90299779D01*
X151076677Y-90299267D01*
X150912905Y-90268429D01*
X150911245Y-90268229D01*
X150722700Y-90257972D01*
X150722700Y-90082028D01*
X150911245Y-90071770D01*
X150912905Y-90071570D01*
X151076677Y-90040732D01*
X151078574Y-90040220D01*
X151213640Y-89992295D01*
X151215456Y-89991485D01*
X151329892Y-89929313D01*
X151331265Y-89928450D01*
X151433146Y-89854872D01*
X151433898Y-89854284D01*
X151531303Y-89772139D01*
X151531451Y-89772013D01*
X151632285Y-89684291D01*
X151744385Y-89594003D01*
X151875894Y-89503836D01*
X152027422Y-89420627D01*
X152806678Y-90170000D01*
X152806678Y-90170000D01*
G37*
X152806678Y-90170000D02*
X152027422Y-90919373D01*
X151875894Y-90836164D01*
X151744385Y-90745996D01*
X151632285Y-90655708D01*
X151531451Y-90567986D01*
X151531303Y-90567860D01*
X151433898Y-90485715D01*
X151433146Y-90485127D01*
X151331265Y-90411549D01*
X151329892Y-90410686D01*
X151215456Y-90348514D01*
X151213640Y-90347704D01*
X151078574Y-90299779D01*
X151076677Y-90299267D01*
X150912905Y-90268429D01*
X150911245Y-90268229D01*
X150722700Y-90257972D01*
X150722700Y-90082028D01*
X150911245Y-90071770D01*
X150912905Y-90071570D01*
X151076677Y-90040732D01*
X151078574Y-90040220D01*
X151213640Y-89992295D01*
X151215456Y-89991485D01*
X151329892Y-89929313D01*
X151331265Y-89928450D01*
X151433146Y-89854872D01*
X151433898Y-89854284D01*
X151531303Y-89772139D01*
X151531451Y-89772013D01*
X151632285Y-89684291D01*
X151744385Y-89594003D01*
X151875894Y-89503836D01*
X152027422Y-89420627D01*
X152806678Y-90170000D01*
G36*
X148700599Y-95089408D02*
G01*
X148761435Y-95126846D01*
X148814784Y-95163071D01*
X148863884Y-95197229D01*
X148864224Y-95197458D01*
X148912286Y-95228643D01*
X148913133Y-95229146D01*
X148963431Y-95256493D01*
X148964719Y-95257103D01*
X149020599Y-95279793D01*
X149022116Y-95280300D01*
X149086924Y-95297519D01*
X149088402Y-95297819D01*
X149165484Y-95308749D01*
X149166743Y-95308864D01*
X149247270Y-95312187D01*
X149247270Y-95487813D01*
X149166744Y-95491135D01*
X149165484Y-95491250D01*
X149088402Y-95502180D01*
X149086924Y-95502480D01*
X149022116Y-95519699D01*
X149020599Y-95520206D01*
X148964719Y-95542896D01*
X148963431Y-95543506D01*
X148913133Y-95570853D01*
X148912286Y-95571356D01*
X148864224Y-95602541D01*
X148863884Y-95602770D01*
X148814784Y-95636928D01*
X148761435Y-95673153D01*
X148700605Y-95710587D01*
X148636508Y-95744480D01*
X148278292Y-95400000D01*
X148636508Y-95055520D01*
X148700599Y-95089408D01*
X148700599Y-95089408D01*
G37*
X148700599Y-95089408D02*
X148761435Y-95126846D01*
X148814784Y-95163071D01*
X148863884Y-95197229D01*
X148864224Y-95197458D01*
X148912286Y-95228643D01*
X148913133Y-95229146D01*
X148963431Y-95256493D01*
X148964719Y-95257103D01*
X149020599Y-95279793D01*
X149022116Y-95280300D01*
X149086924Y-95297519D01*
X149088402Y-95297819D01*
X149165484Y-95308749D01*
X149166743Y-95308864D01*
X149247270Y-95312187D01*
X149247270Y-95487813D01*
X149166744Y-95491135D01*
X149165484Y-95491250D01*
X149088402Y-95502180D01*
X149086924Y-95502480D01*
X149022116Y-95519699D01*
X149020599Y-95520206D01*
X148964719Y-95542896D01*
X148963431Y-95543506D01*
X148913133Y-95570853D01*
X148912286Y-95571356D01*
X148864224Y-95602541D01*
X148863884Y-95602770D01*
X148814784Y-95636928D01*
X148761435Y-95673153D01*
X148700605Y-95710587D01*
X148636508Y-95744480D01*
X148278292Y-95400000D01*
X148636508Y-95055520D01*
X148700599Y-95089408D01*
G36*
X152666434Y-93503340D02*
G01*
X152500453Y-93551646D01*
X152343700Y-93580879D01*
X152200562Y-93596306D01*
X152067262Y-93605575D01*
X152067067Y-93605590D01*
X151940107Y-93616381D01*
X151939161Y-93616497D01*
X151815092Y-93636510D01*
X151813510Y-93636870D01*
X151688629Y-93673826D01*
X151686773Y-93674538D01*
X151557380Y-93736156D01*
X151555677Y-93737135D01*
X151418066Y-93831133D01*
X151416750Y-93832165D01*
X151276176Y-93958235D01*
X151151765Y-93833824D01*
X151277834Y-93693249D01*
X151278866Y-93691933D01*
X151372864Y-93554322D01*
X151373843Y-93552619D01*
X151435461Y-93423226D01*
X151436173Y-93421370D01*
X151473129Y-93296489D01*
X151473489Y-93294907D01*
X151493502Y-93170838D01*
X151493618Y-93169892D01*
X151504409Y-93042932D01*
X151504424Y-93042737D01*
X151513693Y-92909437D01*
X151529120Y-92766299D01*
X151558353Y-92609546D01*
X151606660Y-92443566D01*
X152687564Y-92422436D01*
X152666434Y-93503340D01*
X152666434Y-93503340D01*
G37*
X152666434Y-93503340D02*
X152500453Y-93551646D01*
X152343700Y-93580879D01*
X152200562Y-93596306D01*
X152067262Y-93605575D01*
X152067067Y-93605590D01*
X151940107Y-93616381D01*
X151939161Y-93616497D01*
X151815092Y-93636510D01*
X151813510Y-93636870D01*
X151688629Y-93673826D01*
X151686773Y-93674538D01*
X151557380Y-93736156D01*
X151555677Y-93737135D01*
X151418066Y-93831133D01*
X151416750Y-93832165D01*
X151276176Y-93958235D01*
X151151765Y-93833824D01*
X151277834Y-93693249D01*
X151278866Y-93691933D01*
X151372864Y-93554322D01*
X151373843Y-93552619D01*
X151435461Y-93423226D01*
X151436173Y-93421370D01*
X151473129Y-93296489D01*
X151473489Y-93294907D01*
X151493502Y-93170838D01*
X151493618Y-93169892D01*
X151504409Y-93042932D01*
X151504424Y-93042737D01*
X151513693Y-92909437D01*
X151529120Y-92766299D01*
X151558353Y-92609546D01*
X151606660Y-92443566D01*
X152687564Y-92422436D01*
X152666434Y-93503340D01*
G36*
X148140629Y-95989402D02*
G01*
X148201465Y-96026840D01*
X148254814Y-96063065D01*
X148303914Y-96097223D01*
X148304254Y-96097452D01*
X148352316Y-96128637D01*
X148353163Y-96129140D01*
X148403461Y-96156487D01*
X148404749Y-96157097D01*
X148460629Y-96179787D01*
X148462146Y-96180294D01*
X148526954Y-96197513D01*
X148528432Y-96197813D01*
X148605514Y-96208743D01*
X148606773Y-96208858D01*
X148687300Y-96212181D01*
X148687300Y-96387807D01*
X148606774Y-96391129D01*
X148605514Y-96391244D01*
X148528432Y-96402174D01*
X148526954Y-96402474D01*
X148462146Y-96419693D01*
X148460629Y-96420200D01*
X148404749Y-96442890D01*
X148403461Y-96443500D01*
X148353163Y-96470847D01*
X148352316Y-96471350D01*
X148304254Y-96502535D01*
X148303914Y-96502764D01*
X148254814Y-96536922D01*
X148201465Y-96573147D01*
X148140635Y-96610581D01*
X148076538Y-96644474D01*
X147718322Y-96299994D01*
X148076538Y-95955514D01*
X148140629Y-95989402D01*
X148140629Y-95989402D01*
G37*
X148140629Y-95989402D02*
X148201465Y-96026840D01*
X148254814Y-96063065D01*
X148303914Y-96097223D01*
X148304254Y-96097452D01*
X148352316Y-96128637D01*
X148353163Y-96129140D01*
X148403461Y-96156487D01*
X148404749Y-96157097D01*
X148460629Y-96179787D01*
X148462146Y-96180294D01*
X148526954Y-96197513D01*
X148528432Y-96197813D01*
X148605514Y-96208743D01*
X148606773Y-96208858D01*
X148687300Y-96212181D01*
X148687300Y-96387807D01*
X148606774Y-96391129D01*
X148605514Y-96391244D01*
X148528432Y-96402174D01*
X148526954Y-96402474D01*
X148462146Y-96419693D01*
X148460629Y-96420200D01*
X148404749Y-96442890D01*
X148403461Y-96443500D01*
X148353163Y-96470847D01*
X148352316Y-96471350D01*
X148304254Y-96502535D01*
X148303914Y-96502764D01*
X148254814Y-96536922D01*
X148201465Y-96573147D01*
X148140635Y-96610581D01*
X148076538Y-96644474D01*
X147718322Y-96299994D01*
X148076538Y-95955514D01*
X148140629Y-95989402D01*
G36*
X152390057Y-96087811D02*
G01*
X152241389Y-96095717D01*
X152239910Y-96095883D01*
X152107347Y-96118683D01*
X152105912Y-96119016D01*
X151991825Y-96152615D01*
X151990716Y-96152998D01*
X151888211Y-96193797D01*
X151887659Y-96194033D01*
X151789937Y-96238389D01*
X151690256Y-96282633D01*
X151582047Y-96323086D01*
X151458162Y-96356348D01*
X151311482Y-96378940D01*
X151147622Y-96386680D01*
X151147622Y-96211295D01*
X151303705Y-96193043D01*
X151306138Y-96192513D01*
X151307766Y-96191859D01*
X151422273Y-96136399D01*
X151424396Y-96135099D01*
X151426531Y-96133054D01*
X151497947Y-96046548D01*
X151499336Y-96044482D01*
X151500186Y-96042524D01*
X151538219Y-95929822D01*
X151538814Y-95927114D01*
X151553174Y-95793067D01*
X151553246Y-95791747D01*
X151553642Y-95641205D01*
X151553638Y-95640870D01*
X151549785Y-95478892D01*
X151551374Y-95310682D01*
X151567990Y-95141234D01*
X151607061Y-94983559D01*
X152683991Y-94962506D01*
X152390057Y-96087811D01*
X152390057Y-96087811D01*
G37*
X152390057Y-96087811D02*
X152241389Y-96095717D01*
X152239910Y-96095883D01*
X152107347Y-96118683D01*
X152105912Y-96119016D01*
X151991825Y-96152615D01*
X151990716Y-96152998D01*
X151888211Y-96193797D01*
X151887659Y-96194033D01*
X151789937Y-96238389D01*
X151690256Y-96282633D01*
X151582047Y-96323086D01*
X151458162Y-96356348D01*
X151311482Y-96378940D01*
X151147622Y-96386680D01*
X151147622Y-96211295D01*
X151303705Y-96193043D01*
X151306138Y-96192513D01*
X151307766Y-96191859D01*
X151422273Y-96136399D01*
X151424396Y-96135099D01*
X151426531Y-96133054D01*
X151497947Y-96046548D01*
X151499336Y-96044482D01*
X151500186Y-96042524D01*
X151538219Y-95929822D01*
X151538814Y-95927114D01*
X151553174Y-95793067D01*
X151553246Y-95791747D01*
X151553642Y-95641205D01*
X151553638Y-95640870D01*
X151549785Y-95478892D01*
X151551374Y-95310682D01*
X151567990Y-95141234D01*
X151607061Y-94983559D01*
X152683991Y-94962506D01*
X152390057Y-96087811D01*
G36*
X152804103Y-102867523D02*
G01*
X151801015Y-103455118D01*
X151687773Y-103341595D01*
X151687774Y-103341594D01*
X151585768Y-103238779D01*
X151497015Y-103148833D01*
X151416520Y-103066888D01*
X151339309Y-102988100D01*
X151339307Y-102988098D01*
X151260412Y-102907625D01*
X151260398Y-102907611D01*
X151174860Y-102820625D01*
X151174840Y-102820605D01*
X151077694Y-102722265D01*
X151077671Y-102722242D01*
X150963949Y-102607709D01*
X150963927Y-102607687D01*
X150837620Y-102481102D01*
X150961885Y-102356837D01*
X151065087Y-102442554D01*
X151067654Y-102444208D01*
X151173267Y-102495490D01*
X151175602Y-102496353D01*
X151176900Y-102496621D01*
X151278016Y-102512040D01*
X151280502Y-102512172D01*
X151281774Y-102512050D01*
X151380387Y-102497582D01*
X151383170Y-102496844D01*
X151481277Y-102458459D01*
X151482902Y-102457687D01*
X151582501Y-102401358D01*
X151583263Y-102400890D01*
X151686350Y-102332590D01*
X151686508Y-102332484D01*
X151794917Y-102258296D01*
X151910431Y-102184317D01*
X152027398Y-102120604D01*
X152804103Y-102867523D01*
X152804103Y-102867523D01*
G37*
X152804103Y-102867523D02*
X151801015Y-103455118D01*
X151687773Y-103341595D01*
X151687774Y-103341594D01*
X151585768Y-103238779D01*
X151497015Y-103148833D01*
X151416520Y-103066888D01*
X151339309Y-102988100D01*
X151339307Y-102988098D01*
X151260412Y-102907625D01*
X151260398Y-102907611D01*
X151174860Y-102820625D01*
X151174840Y-102820605D01*
X151077694Y-102722265D01*
X151077671Y-102722242D01*
X150963949Y-102607709D01*
X150963927Y-102607687D01*
X150837620Y-102481102D01*
X150961885Y-102356837D01*
X151065087Y-102442554D01*
X151067654Y-102444208D01*
X151173267Y-102495490D01*
X151175602Y-102496353D01*
X151176900Y-102496621D01*
X151278016Y-102512040D01*
X151280502Y-102512172D01*
X151281774Y-102512050D01*
X151380387Y-102497582D01*
X151383170Y-102496844D01*
X151481277Y-102458459D01*
X151482902Y-102457687D01*
X151582501Y-102401358D01*
X151583263Y-102400890D01*
X151686350Y-102332590D01*
X151686508Y-102332484D01*
X151794917Y-102258296D01*
X151910431Y-102184317D01*
X152027398Y-102120604D01*
X152804103Y-102867523D01*
G36*
X150944471Y-97276529D02*
G01*
X150911032Y-97339566D01*
X150873858Y-97399430D01*
X150837729Y-97451892D01*
X150803586Y-97500079D01*
X150803363Y-97500403D01*
X150772078Y-97547592D01*
X150771567Y-97548433D01*
X150744069Y-97597827D01*
X150743440Y-97599123D01*
X150720577Y-97654040D01*
X150720049Y-97655581D01*
X150702668Y-97719341D01*
X150702353Y-97720852D01*
X150691303Y-97796772D01*
X150691182Y-97798064D01*
X150687826Y-97877300D01*
X150512174Y-97877300D01*
X150508817Y-97798063D01*
X150508696Y-97796772D01*
X150497646Y-97720852D01*
X150497331Y-97719341D01*
X150479950Y-97655581D01*
X150479422Y-97654040D01*
X150456559Y-97599123D01*
X150455930Y-97597827D01*
X150428432Y-97548433D01*
X150427921Y-97547592D01*
X150396636Y-97500403D01*
X150396413Y-97500079D01*
X150362270Y-97451892D01*
X150326141Y-97399430D01*
X150288967Y-97339566D01*
X150255529Y-97276529D01*
X150600000Y-96918322D01*
X150944471Y-97276529D01*
X150944471Y-97276529D01*
G37*
X150944471Y-97276529D02*
X150911032Y-97339566D01*
X150873858Y-97399430D01*
X150837729Y-97451892D01*
X150803586Y-97500079D01*
X150803363Y-97500403D01*
X150772078Y-97547592D01*
X150771567Y-97548433D01*
X150744069Y-97597827D01*
X150743440Y-97599123D01*
X150720577Y-97654040D01*
X150720049Y-97655581D01*
X150702668Y-97719341D01*
X150702353Y-97720852D01*
X150691303Y-97796772D01*
X150691182Y-97798064D01*
X150687826Y-97877300D01*
X150512174Y-97877300D01*
X150508817Y-97798063D01*
X150508696Y-97796772D01*
X150497646Y-97720852D01*
X150497331Y-97719341D01*
X150479950Y-97655581D01*
X150479422Y-97654040D01*
X150456559Y-97599123D01*
X150455930Y-97597827D01*
X150428432Y-97548433D01*
X150427921Y-97547592D01*
X150396636Y-97500403D01*
X150396413Y-97500079D01*
X150362270Y-97451892D01*
X150326141Y-97399430D01*
X150288967Y-97339566D01*
X150255529Y-97276529D01*
X150600000Y-96918322D01*
X150944471Y-97276529D01*
G36*
X143033340Y-84703566D02*
G01*
X143081646Y-84869546D01*
X143110879Y-85026299D01*
X143126306Y-85169437D01*
X143135575Y-85302737D01*
X143135590Y-85302932D01*
X143146381Y-85429892D01*
X143146497Y-85430838D01*
X143166510Y-85554907D01*
X143166870Y-85556489D01*
X143203826Y-85681370D01*
X143204538Y-85683226D01*
X143266156Y-85812619D01*
X143267135Y-85814322D01*
X143361133Y-85951933D01*
X143362165Y-85953249D01*
X143488235Y-86093824D01*
X143363824Y-86218235D01*
X143223249Y-86092165D01*
X143221933Y-86091133D01*
X143084322Y-85997135D01*
X143082619Y-85996156D01*
X142953226Y-85934538D01*
X142951370Y-85933826D01*
X142826489Y-85896870D01*
X142824907Y-85896510D01*
X142700838Y-85876497D01*
X142699892Y-85876381D01*
X142572932Y-85865590D01*
X142572737Y-85865575D01*
X142439437Y-85856306D01*
X142296299Y-85840879D01*
X142139546Y-85811646D01*
X141973566Y-85763340D01*
X141952436Y-84682436D01*
X143033340Y-84703566D01*
X143033340Y-84703566D01*
G37*
X143033340Y-84703566D02*
X143081646Y-84869546D01*
X143110879Y-85026299D01*
X143126306Y-85169437D01*
X143135575Y-85302737D01*
X143135590Y-85302932D01*
X143146381Y-85429892D01*
X143146497Y-85430838D01*
X143166510Y-85554907D01*
X143166870Y-85556489D01*
X143203826Y-85681370D01*
X143204538Y-85683226D01*
X143266156Y-85812619D01*
X143267135Y-85814322D01*
X143361133Y-85951933D01*
X143362165Y-85953249D01*
X143488235Y-86093824D01*
X143363824Y-86218235D01*
X143223249Y-86092165D01*
X143221933Y-86091133D01*
X143084322Y-85997135D01*
X143082619Y-85996156D01*
X142953226Y-85934538D01*
X142951370Y-85933826D01*
X142826489Y-85896870D01*
X142824907Y-85896510D01*
X142700838Y-85876497D01*
X142699892Y-85876381D01*
X142572932Y-85865590D01*
X142572737Y-85865575D01*
X142439437Y-85856306D01*
X142296299Y-85840879D01*
X142139546Y-85811646D01*
X141973566Y-85763340D01*
X141952436Y-84682436D01*
X143033340Y-84703566D01*
G36*
X145257552Y-87871340D02*
G01*
X145296777Y-87930049D01*
X145323540Y-87985470D01*
X145341850Y-88038755D01*
X145355569Y-88090909D01*
X145368558Y-88142780D01*
X145368747Y-88143455D01*
X145384793Y-88195229D01*
X145385296Y-88196576D01*
X145408342Y-88249046D01*
X145409224Y-88250708D01*
X145443212Y-88304662D01*
X145444373Y-88306224D01*
X145487265Y-88355572D01*
X145217513Y-88816068D01*
X144875840Y-88460770D01*
X144907530Y-88407268D01*
X144951326Y-88351435D01*
X144998902Y-88299431D01*
X145045994Y-88250228D01*
X145046305Y-88249891D01*
X145088533Y-88202454D01*
X145089420Y-88201338D01*
X145122498Y-88154516D01*
X145123851Y-88152066D01*
X145143600Y-88104595D01*
X145144326Y-88102214D01*
X145144561Y-88100293D01*
X145146802Y-88050910D01*
X145146670Y-88048424D01*
X145146026Y-88045927D01*
X145126581Y-87993369D01*
X145125492Y-87991130D01*
X145124611Y-87989873D01*
X145086352Y-87941747D01*
X145210218Y-87817881D01*
X145257552Y-87871340D01*
X145257552Y-87871340D01*
G37*
X145257552Y-87871340D02*
X145296777Y-87930049D01*
X145323540Y-87985470D01*
X145341850Y-88038755D01*
X145355569Y-88090909D01*
X145368558Y-88142780D01*
X145368747Y-88143455D01*
X145384793Y-88195229D01*
X145385296Y-88196576D01*
X145408342Y-88249046D01*
X145409224Y-88250708D01*
X145443212Y-88304662D01*
X145444373Y-88306224D01*
X145487265Y-88355572D01*
X145217513Y-88816068D01*
X144875840Y-88460770D01*
X144907530Y-88407268D01*
X144951326Y-88351435D01*
X144998902Y-88299431D01*
X145045994Y-88250228D01*
X145046305Y-88249891D01*
X145088533Y-88202454D01*
X145089420Y-88201338D01*
X145122498Y-88154516D01*
X145123851Y-88152066D01*
X145143600Y-88104595D01*
X145144326Y-88102214D01*
X145144561Y-88100293D01*
X145146802Y-88050910D01*
X145146670Y-88048424D01*
X145146026Y-88045927D01*
X145126581Y-87993369D01*
X145125492Y-87991130D01*
X145124611Y-87989873D01*
X145086352Y-87941747D01*
X145210218Y-87817881D01*
X145257552Y-87871340D01*
G36*
X147638553Y-87639077D02*
G01*
X147631046Y-87712444D01*
X147619996Y-87775061D01*
X147606559Y-87830220D01*
X147591829Y-87881346D01*
X147577054Y-87931347D01*
X147576947Y-87931731D01*
X147563346Y-87983707D01*
X147563170Y-87984475D01*
X147551971Y-88041520D01*
X147551818Y-88042499D01*
X147544218Y-88107788D01*
X147544141Y-88108793D01*
X147541686Y-88176065D01*
X147025639Y-88310858D01*
X147035279Y-87817747D01*
X147087739Y-87802727D01*
X147148698Y-87790639D01*
X147208472Y-87781216D01*
X147208567Y-87781201D01*
X147265371Y-87771801D01*
X147266162Y-87771644D01*
X147318283Y-87759581D01*
X147319927Y-87759081D01*
X147365886Y-87741632D01*
X147368425Y-87740325D01*
X147406744Y-87714768D01*
X147408670Y-87713190D01*
X147409602Y-87712151D01*
X147438803Y-87675762D01*
X147440163Y-87673676D01*
X147440799Y-87672246D01*
X147459403Y-87622304D01*
X147460141Y-87619118D01*
X147465542Y-87564352D01*
X147640923Y-87564352D01*
X147638553Y-87639077D01*
X147638553Y-87639077D01*
G37*
X147638553Y-87639077D02*
X147631046Y-87712444D01*
X147619996Y-87775061D01*
X147606559Y-87830220D01*
X147591829Y-87881346D01*
X147577054Y-87931347D01*
X147576947Y-87931731D01*
X147563346Y-87983707D01*
X147563170Y-87984475D01*
X147551971Y-88041520D01*
X147551818Y-88042499D01*
X147544218Y-88107788D01*
X147544141Y-88108793D01*
X147541686Y-88176065D01*
X147025639Y-88310858D01*
X147035279Y-87817747D01*
X147087739Y-87802727D01*
X147148698Y-87790639D01*
X147208472Y-87781216D01*
X147208567Y-87781201D01*
X147265371Y-87771801D01*
X147266162Y-87771644D01*
X147318283Y-87759581D01*
X147319927Y-87759081D01*
X147365886Y-87741632D01*
X147368425Y-87740325D01*
X147406744Y-87714768D01*
X147408670Y-87713190D01*
X147409602Y-87712151D01*
X147438803Y-87675762D01*
X147440163Y-87673676D01*
X147440799Y-87672246D01*
X147459403Y-87622304D01*
X147460141Y-87619118D01*
X147465542Y-87564352D01*
X147640923Y-87564352D01*
X147638553Y-87639077D01*
G36*
X146468403Y-82581248D02*
G01*
X146489333Y-82649472D01*
X146505372Y-82718066D01*
X146516923Y-82780718D01*
X146526855Y-82838942D01*
X146526927Y-82839328D01*
X146538172Y-82894817D01*
X146538405Y-82895773D01*
X146553888Y-82950144D01*
X146554360Y-82951505D01*
X146577026Y-83006504D01*
X146577742Y-83007967D01*
X146610537Y-83065341D01*
X146611383Y-83066632D01*
X146657253Y-83128129D01*
X146658081Y-83129128D01*
X146711736Y-83187531D01*
X146587531Y-83311736D01*
X146529128Y-83258081D01*
X146528129Y-83257253D01*
X146466632Y-83211383D01*
X146465341Y-83210537D01*
X146407967Y-83177742D01*
X146406504Y-83177026D01*
X146351505Y-83154360D01*
X146350144Y-83153888D01*
X146295773Y-83138405D01*
X146294817Y-83138172D01*
X146239328Y-83126927D01*
X146238942Y-83126855D01*
X146180718Y-83116923D01*
X146118066Y-83105372D01*
X146049472Y-83089333D01*
X145981248Y-83068403D01*
X145971535Y-82571535D01*
X146468403Y-82581248D01*
X146468403Y-82581248D01*
G37*
X146468403Y-82581248D02*
X146489333Y-82649472D01*
X146505372Y-82718066D01*
X146516923Y-82780718D01*
X146526855Y-82838942D01*
X146526927Y-82839328D01*
X146538172Y-82894817D01*
X146538405Y-82895773D01*
X146553888Y-82950144D01*
X146554360Y-82951505D01*
X146577026Y-83006504D01*
X146577742Y-83007967D01*
X146610537Y-83065341D01*
X146611383Y-83066632D01*
X146657253Y-83128129D01*
X146658081Y-83129128D01*
X146711736Y-83187531D01*
X146587531Y-83311736D01*
X146529128Y-83258081D01*
X146528129Y-83257253D01*
X146466632Y-83211383D01*
X146465341Y-83210537D01*
X146407967Y-83177742D01*
X146406504Y-83177026D01*
X146351505Y-83154360D01*
X146350144Y-83153888D01*
X146295773Y-83138405D01*
X146294817Y-83138172D01*
X146239328Y-83126927D01*
X146238942Y-83126855D01*
X146180718Y-83116923D01*
X146118066Y-83105372D01*
X146049472Y-83089333D01*
X145981248Y-83068403D01*
X145971535Y-82571535D01*
X146468403Y-82581248D01*
M02*
