M48
; DRILL file {KiCad (5.1.2)-1} date 2024/07/07 9:58:18
; FORMAT={-:-/ absolute / metric / decimal}
; #@! TF.CreationDate,2024-07-07T09:58:18+09:00
; #@! TF.GenerationSoftware,Kicad,Pcbnew,(5.1.2)-1
FMAT,2
METRIC
T1C0.400
T2C0.762
T3C1.000
%
G90
G05
T1
X145.03Y-99.11
X145.2Y-90.328
X145.22Y-88.637
X145.565Y-97.6
X146.1Y-82.7
X146.5Y-96.1
X147.154Y-88.186
X147.9Y-96.3
X148.46Y-95.4
X149.4Y-101.9
X149.68Y-84.09
X150.6Y-97.1
T2
X144.7Y-74.9
X146.7Y-74.9
X148.7Y-74.9
X150.7Y-74.9
T3
X142.24Y-79.89
X142.24Y-82.43
X142.24Y-84.97
X142.24Y-87.51
X142.24Y-90.05
X142.24Y-92.59
X142.24Y-95.13
X142.24Y-97.67
X142.24Y-100.21
X142.24Y-102.75
X152.4Y-80.01
X152.4Y-82.55
X152.4Y-85.09
X152.4Y-87.63
X152.4Y-90.17
X152.4Y-92.71
X152.4Y-95.25
X152.4Y-97.79
X152.4Y-100.33
X152.4Y-102.87
T0
M30
